<?xml version="1.0" standalone="no"?>
<!DOCTYPE svg PUBLIC "-//W3C//DTD SVG 20010904//EN"
 "http://www.w3.org/TR/2001/REC-SVG-20010904/DTD/svg10.dtd">
<svg version="1.0" xmlns="http://www.w3.org/2000/svg"
 width="1130.247565pt" height="800.076186pt" viewBox="0 0 1130.247565 800.076186"
 preserveAspectRatio="xMidYMid meet">
<metadata>Created by Svg.la</metadata>
<g transform="translate(0.247565,800.000000) scale(0.100000,-0.100000)"
fill="#27b0dd" stroke="none">
<path d="M189 7986 c7 -8 23 -17 36 -20 14 -4 25 -11 25 -17 0 -14 82 -8 98 8
7 7 25 14 40 14 15 1 32 2 37 4 6 1 18 3 28 3 9 1 17 7 17 12 0 6 -55 10 -146
10 -125 0 -145 -2 -135 -14z"/>
<path d="M933 7993 c9 -2 23 -2 30 0 6 3 -1 5 -18 5 -16 0 -22 -2 -12 -5z"/>
<path d="M2044 7978 c41 -56 56 -85 58 -108 0 -14 2 -38 3 -53 1 -16 -4 -35
-11 -42 -8 -7 -14 -19 -14 -25 0 -6 -4 -9 -9 -6 -5 4 -7 -3 -4 -14 3 -11 10
-20 15 -20 6 0 7 -11 4 -25 -4 -14 -2 -25 3 -25 5 0 7 -9 4 -20 -3 -13 0 -20
8 -21 15 0 -19 -17 -38 -18 -14 -1 -35 57 -26 73 12 19 13 46 2 46 -5 0 -8 -4
-5 -8 5 -9 -20 -24 -55 -35 -22 -7 -46 -111 -45 -195 1 -67 16 -83 29 -31 5
18 15 42 23 53 8 11 14 35 14 53 0 33 13 44 24 21 5 -10 7 -10 12 0 4 7 27 12
65 12 l59 0 22 46 c39 80 43 84 54 80 14 -5 44 29 44 49 0 8 5 15 10 15 6 0
10 6 10 14 0 8 9 18 20 21 11 3 20 15 20 25 0 14 7 18 30 18 17 -1 30 -5 30
-10 0 -4 22 -8 49 -8 57 0 81 22 81 76 0 42 -20 57 -86 62 -30 2 -57 8 -60 13
-3 5 -84 9 -181 9 l-175 0 16 -22z"/>
<path d="M5845 7989 c-19 -9 -18 -9 3 -5 28 5 29 -2 0 -13 -20 -7 -18 -10 27
-33 85 -43 147 -78 161 -89 14 -12 13 -12 154 -4 108 6 148 15 67 15 -26 0
-47 3 -47 8 1 20 20 30 65 35 28 3 76 11 108 18 52 12 61 18 72 47 l14 32
-302 -1 c-168 0 -311 -5 -322 -10z"/>
<path d="M7345 7990 c28 -12 123 -12 130 0 4 6 -22 10 -72 9 -53 0 -72 -3 -58
-9z"/>
<path d="M11249 7986 c-21 -7 -49 -22 -64 -34 -24 -19 -30 -20 -70 -8 -61 19
-73 5 -64 -72 4 -31 8 -89 8 -127 1 -76 -5 -87 -61 -112 -28 -12 -28 -13 -28
-112 0 -56 -4 -103 -10 -106 -24 -15 -8 -30 31 -31 28 0 44 -6 51 -17 14 -26
77 -49 132 -48 52 1 70 14 61 44 -3 9 -8 26 -11 37 -6 18 -2 20 37 20 32 0 40
3 29 10 -8 5 -25 10 -37 10 -26 0 -29 6 -9 25 11 12 17 11 35 -1 l21 -15 0
160 c0 88 -4 162 -8 165 -5 3 -5 31 -1 63 10 79 11 163 2 163 -5 -1 -24 -7
-44 -14z"/>
<path d="M3210 7980 c-8 -5 -10 -10 -5 -10 6 0 17 5 25 10 8 5 11 10 5 10 -5
0 -17 -5 -25 -10z"/>
<path d="M3248 7923 c6 -2 18 -2 25 0 6 3 1 5 -13 5 -14 0 -19 -2 -12 -5z"/>
<path d="M791 7887 c-17 -17 -14 -77 4 -83 29 -12 41 2 37 44 -4 42 -21 59
-41 39z"/>
<path d="M2647 7852 c-37 -5 -65 -45 -46 -69 8 -9 13 -18 12 -20 -2 -1 -3 -8
-3 -13 0 -6 16 6 36 26 43 45 44 81 1 76z"/>
<path d="M6808 7783 c7 -3 16 -2 19 1 4 3 -2 6 -13 5 -11 0 -14 -3 -6 -6z"/>
<path d="M7500 7776 c0 -8 7 -17 16 -20 8 -3 12 -2 9 4 -3 6 -2 10 4 10 18 0
21 -17 6 -30 -14 -12 -15 -43 -2 -56 9 -10 9 -36 0 -31 -5 3 -9 -9 -10 -26
l-2 -32 13 30 c7 17 25 44 39 61 25 30 31 59 12 59 -6 0 -9 -8 -9 -17 1 -10
-5 -18 -13 -18 -9 0 -11 5 -7 13 5 8 2 8 -9 -2 -19 -15 -23 -1 -5 17 6 6 13
21 15 32 2 16 -3 20 -27 20 -19 0 -30 -5 -30 -14z m54 -87 c-3 -5 -10 -7 -15
-3 -5 3 -7 10 -3 15 3 5 10 7 15 3 5 -3 7 -10 3 -15z"/>
<path d="M4132 7690 c-1 -81 14 -193 36 -270 30 -105 42 -153 42 -170 0 -11 5
-20 10 -20 6 0 10 -8 10 -18 0 -10 14 -46 30 -80 17 -34 30 -64 30 -67 0 -12
77 -132 130 -204 33 -45 60 -85 60 -89 0 -4 -19 -28 -42 -52 -44 -45 -53 -59
-96 -145 -47 -95 -113 -318 -111 -379 0 -17 14 26 29 96 38 168 124 351 207
440 l26 27 48 -65 c27 -35 66 -90 87 -122 66 -99 176 -222 339 -379 87 -83
172 -162 188 -174 17 -13 80 -66 140 -119 61 -53 143 -122 183 -155 39 -32 72
-60 72 -61 0 -1 -23 9 -51 23 -44 22 -59 25 -112 19 -77 -8 -91 -20 -26 -23
32 -2 48 1 44 7 -13 21 65 1 118 -29 30 -17 58 -27 62 -23 5 4 5 2 2 -4 -4 -7
0 -15 9 -18 9 -4 15 -9 12 -12 -3 -2 -27 9 -54 25 -27 17 -60 32 -74 35 -14 2
-34 7 -45 11 -16 6 -17 5 -5 -4 8 -6 31 -15 50 -21 19 -5 73 -32 119 -60 91
-54 96 -56 85 -37 -6 9 -4 9 7 1 24 -18 127 -86 223 -148 92 -59 109 -69 271
-159 50 -27 102 -58 117 -69 23 -16 343 -173 448 -220 68 -30 278 -98 304 -98
15 0 25 5 23 12 -1 8 19 15 57 19 62 7 69 13 87 69 29 95 29 109 -6 146 -18
19 -37 34 -43 34 -13 0 -48 64 -53 96 -2 11 9 44 24 72 35 65 65 75 203 70 80
-2 108 -8 144 -26 68 -36 110 -80 105 -111 -17 -109 -13 -100 -57 -107 -34 -6
-42 -12 -55 -41 -17 -41 -10 -68 23 -89 38 -26 65 -78 70 -140 2 -31 7 -61 10
-65 3 -5 23 -9 44 -9 35 0 40 3 57 43 27 57 53 138 53 160 0 19 -60 148 -81
173 -22 27 -12 84 22 118 17 17 38 47 47 66 8 19 28 54 44 77 15 23 28 51 28
62 0 11 4 23 10 26 6 3 10 27 10 53 0 39 -4 49 -22 57 -13 6 -22 18 -21 28 1
14 -3 16 -15 11 -143 -61 -388 -95 -483 -66 -19 6 -68 13 -109 16 -50 3 -127
22 -230 55 -85 27 -165 52 -178 56 -12 3 -20 10 -17 15 3 4 -5 6 -17 3 -19 -4
-20 -3 -8 7 12 9 11 10 -6 5 -30 -8 -98 17 -259 96 -83 41 -178 97 -231 138
-50 37 -112 82 -138 100 -83 57 -449 410 -497 479 -17 23 -35 42 -40 42 -6 0
-7 5 -3 12 4 6 3 8 -4 4 -15 -9 -121 142 -180 259 -58 115 -71 152 -51 139 11
-6 12 -5 3 7 -23 30 -37 110 -32 187 4 67 10 88 41 145 40 71 45 86 22 67 -8
-7 -13 -16 -10 -20 3 -5 0 -12 -6 -16 -6 -3 -24 -34 -40 -68 -21 -45 -29 -76
-29 -118 0 -62 42 -253 65 -299 9 -16 15 -32 14 -35 0 -4 3 -10 8 -13 17 -12
62 -98 55 -106 -4 -5 -1 -5 7 0 9 5 12 3 9 -6 -10 -29 -138 -15 -138 15 0 7
-12 12 -27 13 -74 2 -73 2 -73 33 0 21 -5 30 -16 30 -25 0 -44 -26 -44 -59 0
-28 -3 -31 -30 -31 -20 0 -30 5 -30 15 0 8 -9 15 -20 15 -14 0 -20 7 -20 21 0
35 -24 49 -87 50 -51 1 -54 2 -23 9 l35 7 -32 2 c-18 0 -33 6 -33 11 0 6 -15
10 -34 10 -44 0 -66 9 -66 26 0 8 -9 14 -20 14 -15 0 -20 7 -20 25 0 19 8 29
33 39 31 14 30 14 -49 15 -64 1 -84 5 -97 19 -26 29 -99 181 -92 192 4 6 2 17
-5 25 -7 9 -8 15 0 20 5 3 10 21 10 39 0 32 -2 34 -47 42 l-48 8 45 7 45 6
-40 3 c-22 1 -32 4 -22 7 21 6 22 17 0 50 -17 26 -18 26 -23 5 -6 -25 -30 -16
-34 14 -3 20 -16 22 -181 27 -69 3 -77 16 -91 162 l-12 120 0 -85z m399 -947
c13 -16 12 -17 -3 -4 -10 7 -18 15 -18 17 0 8 8 3 21 -13z m901 -15 c-7 -7
-12 -8 -12 -2 0 5 -5 2 -10 -6 -9 -13 -11 -13 -20 0 -9 13 -11 13 -20 0 -5 -8
-10 -10 -10 -5 0 6 5 17 10 25 9 13 11 13 20 0 9 -13 12 -13 21 3 8 14 14 16
22 8 8 -8 8 -14 -1 -23z m-835 -21 c0 -7 -9 -13 -19 -13 -18 0 -18 1 -2 13 10
7 18 13 19 13 1 0 2 -6 2 -13z m863 -2 c7 -9 8 -15 2 -15 -5 0 -12 7 -16 15
-3 8 -4 15 -2 15 2 0 9 -7 16 -15z m-865 -35 c3 -5 2 -10 -4 -10 -5 0 -13 5
-16 10 -3 6 -2 10 4 10 5 0 13 -4 16 -10z m900 -9 c3 -5 2 -12 -3 -15 -5 -3
-9 1 -9 9 0 17 3 19 12 6z m-861 -47 c3 -8 2 -12 -4 -9 -6 3 -10 10 -10 16 0
14 7 11 14 -7z"/>
<path d="M6915 7751 c135 -49 437 -237 433 -270 -2 -21 4 -30 18 -24 16 6 97
-64 89 -77 -5 -8 36 -22 43 -16 2 2 -23 30 -55 62 -33 33 -57 58 -55 57 6 -3
62 26 62 32 0 2 -17 -2 -37 -9 -35 -12 -41 -11 -70 9 -18 13 -30 25 -27 28 3
2 -9 10 -26 16 -20 7 -29 15 -24 22 4 8 3 9 -5 5 -6 -4 -28 7 -50 26 -60 51
-291 160 -334 157 -6 0 11 -8 38 -18z"/>
<path d="M2810 7749 c0 -11 63 -17 85 -8 17 7 16 8 -10 9 -16 1 -40 3 -52 4
-13 2 -23 -1 -23 -5z"/>
<path d="M5745 7740 c-3 -6 1 -7 9 -4 18 7 21 14 7 14 -6 0 -13 -4 -16 -10z"/>
<path d="M2775 7703 c-5 -22 -8 -24 -16 -12 -9 12 -10 12 -6 -1 6 -21 -12 -53
-26 -47 -7 2 -18 -2 -26 -10 -26 -28 31 -4 60 26 29 28 47 71 31 71 -6 0 -13
-12 -17 -27z"/>
<path d="M5694 7714 c-18 -14 -18 -14 6 -3 31 14 36 19 24 19 -6 0 -19 -7 -30
-16z"/>
<path d="M2732 7700 c0 -14 2 -19 5 -12 2 6 2 18 0 25 -3 6 -5 1 -5 -13z"/>
<path d="M5606 7665 c-11 -8 -31 -16 -45 -16 -17 -1 -20 -3 -9 -6 15 -4 14
-11 -13 -59 -17 -30 -26 -54 -20 -54 5 0 19 21 31 48 11 26 35 59 53 74 34 29
36 38 3 13z"/>
<path d="M7165 7670 c-3 -6 1 -7 9 -4 18 7 21 14 7 14 -6 0 -13 -4 -16 -10z"/>
<path d="M7185 7650 c3 -5 8 -10 11 -10 2 0 4 5 4 10 0 6 -5 10 -11 10 -5 0
-7 -4 -4 -10z"/>
<path d="M7741 7644 c0 -11 3 -14 6 -6 3 7 2 16 -1 19 -3 4 -6 -2 -5 -13z"/>
<path d="M5469 7608 l-22 -33 31 29 c34 32 37 36 23 36 -5 0 -20 -15 -32 -32z"/>
<path d="M7015 7581 c-4 -13 -4 -72 0 -132 7 -102 6 -109 -11 -109 -23 -1 -56
-24 -47 -33 3 -4 -19 -7 -50 -7 -50 0 -57 2 -57 19 0 11 -4 23 -10 26 -5 3
-10 16 -11 28 0 20 -1 21 -8 3 -7 -19 -8 -19 -15 -1 -6 16 -9 15 -34 -12 -34
-37 -51 -43 -95 -33 -40 9 -47 -2 -47 -72 0 -63 -6 -68 -74 -70 -34 -1 -47 -3
-28 -5 34 -5 39 -12 20 -31 -9 -9 -9 -15 0 -24 16 -16 15 -28 -1 -28 -9 0 -14
-12 -15 -30 -1 -29 1 -29 61 -36 49 -6 57 -9 37 -15 -25 -7 -25 -7 -2 -8 15
-1 26 -9 29 -21 3 -11 9 -20 14 -20 5 0 16 -18 25 -41 12 -28 21 -38 32 -34 8
3 22 -3 31 -12 20 -22 56 -43 73 -43 7 0 22 -15 33 -33 10 -17 30 -50 43 -72
34 -57 52 -137 52 -227 0 -92 -6 -97 -77 -75 -83 26 -109 28 -132 8 -12 -10
-21 -23 -21 -30 0 -6 -4 -11 -10 -11 -5 0 -10 -8 -10 -17 0 -10 -7 -26 -14
-35 -14 -19 -36 -24 -36 -9 0 5 -16 12 -35 15 -19 4 -34 12 -32 19 1 7 -12 13
-33 15 -18 2 -41 11 -50 21 -8 10 -26 21 -40 24 -31 8 -150 84 -150 97 0 5 -9
11 -19 15 -12 4 -17 12 -14 24 2 9 -3 23 -11 30 -9 8 -16 19 -16 26 0 17 -45
24 -105 16 -28 -4 -65 -4 -82 0 l-32 6 51 -58 c27 -32 53 -59 57 -61 3 -2 18
-17 31 -35 27 -34 155 -130 267 -200 37 -24 104 -65 148 -93 43 -27 86 -48 95
-45 8 2 22 0 30 -6 11 -8 9 -9 -10 -4 -20 5 -22 4 -10 -5 38 -27 134 -71 235
-105 61 -21 118 -42 127 -46 10 -5 18 -5 20 1 2 7 15 6 38 -1 59 -18 155 -38
160 -32 3 2 5 8 5 11 1 4 4 17 8 28 10 28 37 33 202 39 105 3 136 1 162 -12
18 -8 30 -20 27 -25 -4 -6 2 -7 16 -3 15 5 20 4 16 -4 -4 -6 0 -11 11 -11 15
0 16 -2 3 -10 -25 -16 -5 -11 46 11 52 24 164 123 164 146 0 8 4 12 10 8 10
-6 43 38 47 64 1 10 -5 7 -17 -9 -11 -14 -20 -20 -20 -14 0 5 5 15 11 21 6 6
13 38 16 72 6 59 6 60 19 35 8 -14 14 -33 14 -40 0 -8 6 -14 14 -14 18 0 24
-37 20 -118 -3 -61 -3 -64 7 -27 13 52 6 179 -10 199 -9 10 -9 16 -3 16 16 0
34 -38 26 -52 -4 -7 -3 -8 5 -4 6 4 9 16 6 27 -5 13 -2 19 10 19 17 0 12 14
-20 55 -15 18 -17 19 -26 3 -5 -9 -17 -15 -27 -13 -9 2 -20 4 -24 4 -5 1 -8
20 -8 44 -1 34 -3 38 -11 24 -6 -9 -14 -15 -20 -12 -5 4 -9 -4 -9 -16 0 -12
-3 -20 -6 -17 -6 7 -32 -6 -79 -37 -24 -17 -45 -20 -121 -19 -56 1 -107 7
-130 16 -31 12 -133 31 -164 30 -3 0 -16 6 -30 13 -14 7 -41 19 -59 26 -19 7
-50 26 -69 43 -31 27 -33 32 -26 70 3 22 20 58 38 81 17 22 31 41 32 43 1 2
68 7 150 13 219 14 267 20 285 35 9 8 41 16 72 18 31 1 62 7 69 13 7 6 40 24
73 39 44 21 55 29 39 32 -12 1 -43 -8 -69 -22 -56 -30 -55 -30 -55 -13 0 6
-12 37 -26 67 -14 30 -27 77 -30 105 -5 53 -31 125 -46 125 -4 0 -6 -11 -3
-25 3 -14 7 -36 10 -50 3 -14 4 -25 2 -25 -2 0 -21 25 -41 55 -35 53 -51 70
-40 42 3 -8 -2 -14 -10 -14 -8 0 -13 4 -10 8 2 4 0 10 -6 14 -5 3 -10 2 -10
-4 0 -6 -37 8 -82 32 -70 35 -89 51 -121 97 -35 51 -37 59 -32 111 3 35 0 60
-7 67 -7 7 -8 12 -3 12 5 0 -6 16 -25 35 -39 40 -58 46 -34 11 15 -25 15 -25
-17 -21 -18 3 -36 10 -40 17 -6 9 -13 8 -28 -6 -13 -12 -30 -17 -46 -14 -22 5
-23 3 -13 -10 11 -13 8 -12 -19 1 -38 20 -47 44 -33 82 9 25 9 26 -5 15 -18
-15 -19 -11 -5 24 6 17 6 26 0 26 -6 0 -10 -5 -10 -11 0 -6 -6 -9 -14 -6 -8 3
-17 1 -20 -6 -2 -7 -5 -5 -5 5 -1 21 -39 48 -68 48 -12 0 -26 7 -31 17 -8 14
-10 13 -17 -6z m-387 -408 c-10 -2 -26 -2 -35 0 -10 3 -2 5 17 5 19 0 27 -2
18 -5z m87 -853 c3 -5 1 -10 -4 -10 -6 0 -11 5 -11 10 0 6 2 10 4 10 3 0 8 -4
11 -10z"/>
<path d="M7173 7593 c-7 -3 -13 -12 -13 -21 0 -15 2 -15 17 1 18 18 16 27 -4
20z"/>
<path d="M7286 7582 c-2 -4 4 -8 14 -8 10 0 16 4 14 8 -3 4 -9 8 -14 8 -5 0
-11 -4 -14 -8z"/>
<path d="M5419 7553 c-13 -16 -12 -17 4 -4 16 13 21 21 13 21 -2 0 -10 -8 -17
-17z"/>
<path d="M7330 7550 c0 -5 5 -10 10 -10 6 0 10 5 10 10 0 6 -4 10 -10 10 -5 0
-10 -4 -10 -10z"/>
<path d="M5522 7470 c0 -19 2 -27 5 -17 2 9 2 25 0 35 -3 9 -5 1 -5 -18z"/>
<path d="M4110 7456 c0 -16 5 -26 15 -26 8 0 15 6 15 14 0 7 -7 19 -15 26 -13
11 -15 8 -15 -14z"/>
<path d="M9660 7400 c0 -5 5 -10 10 -10 6 0 10 5 10 10 0 6 -4 10 -10 10 -5 0
-10 -4 -10 -10z"/>
<path d="M11292 7390 c0 -14 2 -19 5 -12 2 6 2 18 0 25 -3 6 -5 1 -5 -13z"/>
<path d="M3058 7383 c7 -3 16 -2 19 1 4 3 -2 6 -13 5 -11 0 -14 -3 -6 -6z"/>
<path d="M4596 7383 c5 -5 12 -12 15 -16 3 -5 9 -2 12 7 5 12 0 16 -15 16 -12
0 -17 -3 -12 -7z"/>
<path d="M10902 7360 c-13 -11 -41 -24 -63 -30 -21 -6 -39 -17 -39 -24 0 -8
-7 -19 -15 -26 -21 -18 -19 -47 5 -60 11 -6 20 -8 20 -5 0 10 64 -27 98 -57
41 -35 64 -27 28 11 -29 30 -33 66 -12 97 17 24 25 106 11 110 -5 2 -21 -5
-33 -16z"/>
<path d="M1815 7360 c-4 -6 7 -10 24 -10 17 0 31 5 31 10 0 6 -11 10 -24 10
-14 0 -28 -4 -31 -10z"/>
<path d="M4561 7306 c-14 -15 -18 -26 -12 -30 10 -7 48 41 39 49 -2 3 -15 -6
-27 -19z"/>
<path d="M5501 7314 c0 -11 3 -14 6 -6 3 7 2 16 -1 19 -3 4 -6 -2 -5 -13z"/>
<path d="M4033 7282 c-6 -26 -43 -37 -44 -14 -1 20 -16 -29 -24 -80 -7 -43
-60 -104 -100 -114 -18 -4 -25 -13 -25 -30 0 -13 6 -24 13 -24 7 0 19 -9 27
-20 8 -11 20 -20 27 -20 7 0 13 -4 13 -9 0 -5 22 -12 50 -16 27 -4 52 -11 56
-16 3 -5 9 -9 15 -9 16 0 10 22 -13 42 l-23 20 27 21 c40 33 68 107 67 180 0
57 -3 64 -30 86 -30 23 -30 23 -36 3z m-3 -242 c0 -5 -4 -10 -10 -10 -5 0 -10
5 -10 10 0 6 5 10 10 10 6 0 10 -4 10 -10z"/>
<path d="M5535 7240 c9 -30 34 -80 40 -80 4 0 -35 92 -43 100 -2 3 -1 -6 3
-20z"/>
<path d="M11294 7065 c0 -99 2 -138 3 -87 2 51 2 132 0 180 -1 48 -3 6 -3 -93z"/>
<path d="M9795 7112 c8 -101 -4 -145 -55 -192 -26 -25 -30 -35 -30 -83 0 -79
3 -83 58 -79 48 4 56 0 152 -78 40 -32 60 -18 60 41 0 38 -4 51 -20 59 -25 13
-60 81 -60 115 0 31 13 58 42 87 l20 20 -28 14 c-18 9 -38 34 -54 65 -14 29
-30 53 -36 56 -7 2 -14 17 -18 34 -3 17 -12 29 -22 29 -13 0 -15 -11 -9 -88z"/>
<path d="M1168 7173 c6 -2 18 -2 25 0 6 3 1 5 -13 5 -14 0 -19 -2 -12 -5z"/>
<path d="M1628 7136 c-19 -14 -23 -26 -10 -26 4 0 13 9 20 20 14 23 13 24 -10
6z"/>
<path d="M5586 7137 c3 -10 9 -15 12 -12 3 3 0 11 -7 18 -10 9 -11 8 -5 -6z"/>
<path d="M5636 7107 c3 -10 9 -15 12 -12 3 3 0 11 -7 18 -10 9 -11 8 -5 -6z"/>
<path d="M3740 7079 c0 -5 5 -7 10 -4 6 3 10 8 10 11 0 2 -4 4 -10 4 -5 0 -10
-5 -10 -11z"/>
<path d="M3765 7043 c11 -46 25 -51 25 -10 0 27 -4 37 -16 37 -13 0 -15 -6 -9
-27z"/>
<path d="M6480 7054 c0 -8 -10 -14 -22 -14 -12 0 -19 -3 -15 -6 10 -11 79 6
75 18 -6 17 -38 18 -38 2z"/>
<path d="M1163 7043 c9 -2 25 -2 35 0 9 3 1 5 -18 5 -19 0 -27 -2 -17 -5z"/>
<path d="M1801 7034 c0 -11 3 -14 6 -6 3 7 2 16 -1 19 -3 4 -6 -2 -5 -13z"/>
<path d="M8162 7012 c-11 -25 -11 -25 4 -10 9 9 15 21 13 27 -2 6 -10 -2 -17
-17z"/>
<path d="M1720 7026 c0 -4 7 -14 15 -22 8 -9 15 -11 15 -6 0 5 -7 15 -15 22
-8 7 -15 9 -15 6z"/>
<path d="M5320 7021 c0 -6 4 -13 10 -16 6 -3 7 1 4 9 -7 18 -14 21 -14 7z"/>
<path d="M6248 7023 c6 -2 18 -2 25 0 6 3 1 5 -13 5 -14 0 -19 -2 -12 -5z"/>
<path d="M1682 6989 c2 -7 10 -15 17 -17 8 -3 12 1 9 9 -2 7 -10 15 -17 17 -8
3 -12 -1 -9 -9z"/>
<path d="M1760 6991 c0 -5 7 -14 15 -21 12 -10 15 -10 15 3 0 8 -7 17 -15 21
-8 3 -15 2 -15 -3z"/>
<path d="M6378 6993 c7 -3 16 -2 19 1 4 3 -2 6 -13 5 -11 0 -14 -3 -6 -6z"/>
<path d="M1720 6966 c0 -2 7 -9 15 -16 9 -7 15 -8 15 -2 0 5 -7 12 -15 16 -8
3 -15 4 -15 2z"/>
<path d="M8096 6935 c-3 -9 -10 -14 -15 -11 -5 3 -7 -4 -4 -16 4 -19 3 -21 -7
-8 -10 13 -11 13 -7 -1 3 -9 0 -23 -6 -30 -9 -10 -7 -9 6 1 20 15 51 69 44 76
-3 3 -7 -2 -11 -11z"/>
<path d="M1756 6915 c-3 -9 0 -15 9 -15 16 0 20 16 6 24 -5 3 -11 -1 -15 -9z"/>
<path d="M5730 6926 c0 -2 8 -10 18 -17 15 -13 16 -12 3 4 -13 16 -21 21 -21
13z"/>
<path d="M2660 6894 c-12 -14 -6 -34 10 -34 5 0 7 7 4 15 -7 18 -4 18 30 5 35
-13 33 -5 -4 13 -24 13 -31 13 -40 1z"/>
<path d="M10217 6899 c-14 -8 -17 -18 -11 -42 12 -58 34 -87 88 -118 30 -16
75 -48 100 -70 52 -46 82 -46 92 -1 4 15 20 38 37 53 27 22 29 29 23 62 -5 25
-12 37 -24 37 -9 0 -30 8 -47 18 -17 10 -60 21 -96 25 -40 4 -80 14 -100 26
-39 24 -38 24 -62 10z"/>
<path d="M1725 6880 c-3 -6 1 -7 9 -4 18 7 21 14 7 14 -6 0 -13 -4 -16 -10z"/>
<path d="M5778 6865 c26 -37 116 -135 106 -116 -3 7 0 18 7 23 11 8 10 9 -3 4
-12 -3 -34 14 -74 57 -32 34 -48 49 -36 32z"/>
<path d="M4264 6821 c-44 -32 -106 -87 -139 -122 -61 -65 -39 -50 44 30 45 43
135 114 176 138 11 7 15 12 9 13 -7 0 -47 -27 -90 -59z"/>
<path d="M1682 6836 c-1 -15 1 -17 7 -7 5 7 15 17 22 22 10 6 8 8 -7 7 -12 -1
-21 -10 -22 -22z"/>
<path d="M1743 6834 c-23 -21 -31 -40 -13 -29 6 4 10 -9 10 -31 0 -45 7 -41
13 6 2 19 8 43 12 53 11 26 3 26 -22 1z"/>
<path d="M1860 6835 c0 -8 2 -15 4 -15 2 0 6 7 10 15 3 8 1 15 -4 15 -6 0 -10
-7 -10 -15z"/>
<path d="M2875 6843 c-11 -2 -25 -15 -32 -28 -10 -22 -9 -26 10 -30 12 -3 33
-7 47 -8 14 0 30 -8 37 -17 11 -13 12 -13 13 2 0 9 -6 18 -12 21 -10 3 -10 7
0 20 27 32 -3 50 -63 40z"/>
<path d="M8025 6829 c-4 -6 -5 -12 -2 -15 2 -3 7 2 10 11 7 17 1 20 -8 4z"/>
<path d="M5360 6815 c0 -8 4 -15 10 -15 5 0 7 7 4 15 -4 8 -8 15 -10 15 -2 0
-4 -7 -4 -15z"/>
<path d="M2982 6770 c0 -19 2 -27 5 -17 2 9 2 25 0 35 -3 9 -5 1 -5 -18z"/>
<path d="M2701 6764 c0 -11 3 -14 6 -6 3 7 2 16 -1 19 -3 4 -6 -2 -5 -13z"/>
<path d="M5995 6754 c-19 -15 -18 -15 15 -12 19 2 34 8 33 13 -3 16 -26 16
-48 -1z"/>
<path d="M5905 6750 c3 -5 11 -10 16 -10 6 0 7 5 4 10 -3 6 -11 10 -16 10 -6
0 -7 -4 -4 -10z"/>
<path d="M8850 6756 c0 -2 8 -10 18 -17 15 -13 16 -12 3 4 -13 16 -21 21 -21
13z"/>
<path d="M2656 6741 c-4 -7 -5 -15 -2 -18 9 -9 19 4 14 18 -4 11 -6 11 -12 0z"/>
<path d="M2596 6731 c-3 -4 -24 -11 -47 -15 -41 -7 -99 -53 -99 -79 0 -6 8 0
17 13 25 36 43 48 83 56 19 4 49 13 65 20 26 11 27 13 8 14 -12 0 -24 -4 -27
-9z"/>
<path d="M1832 6705 c0 -16 2 -22 5 -12 2 9 2 23 0 30 -3 6 -5 -1 -5 -18z"/>
<path d="M2997 6713 c14 -40 73 -67 89 -41 5 7 2 9 -9 5 -22 -8 -67 15 -67 36
0 9 -4 17 -10 17 -5 0 -7 -8 -3 -17z"/>
<path d="M2951 6684 c0 -11 3 -14 6 -6 3 7 2 16 -1 19 -3 4 -6 -2 -5 -13z"/>
<path d="M1822 6650 c0 -14 2 -19 5 -12 2 6 2 18 0 25 -3 6 -5 1 -5 -13z"/>
<path d="M2525 6660 c-13 -5 -14 -9 -5 -9 8 0 24 4 35 9 13 5 14 9 5 9 -8 0
-24 -4 -35 -9z"/>
<path d="M2700 6660 c0 -5 4 -10 9 -10 6 0 13 5 16 10 3 6 -1 10 -9 10 -9 0
-16 -4 -16 -10z"/>
<path d="M2750 6661 c0 -6 5 -13 10 -16 6 -3 10 1 10 9 0 9 -4 16 -10 16 -5 0
-10 -4 -10 -9z"/>
<path d="M2845 6660 c-3 -5 -1 -10 4 -10 6 0 11 5 11 10 0 6 -2 10 -4 10 -3 0
-8 -4 -11 -10z"/>
<path d="M3108 6663 c7 -3 16 -2 19 1 4 3 -2 6 -13 5 -11 0 -14 -3 -6 -6z"/>
<path d="M3386 6651 c-8 -13 5 -71 15 -71 5 0 9 7 9 15 0 18 20 20 21 3 0 -7
5 0 9 16 5 16 7 33 4 38 -7 11 -51 10 -58 -1z"/>
<path d="M8118 6653 c6 -2 18 -2 25 0 6 3 1 5 -13 5 -14 0 -19 -2 -12 -5z"/>
<path d="M2917 6643 c-12 -11 -8 -23 8 -23 8 0 15 7 15 15 0 16 -12 20 -23 8z"/>
<path d="M3136 6642 c-9 -15 24 -52 47 -52 22 1 22 1 -2 14 -16 9 -20 15 -11
18 8 2 10 9 6 16 -8 14 -32 16 -40 4z"/>
<path d="M2420 6615 c0 -14 4 -25 9 -25 4 0 6 11 3 25 -2 14 -6 25 -8 25 -2 0
-4 -11 -4 -25z"/>
<path d="M9815 6620 c-4 -12 5 -43 25 -83 45 -92 29 -134 -57 -152 -18 -4 -34
-12 -34 -18 -3 -26 3 -53 16 -74 13 -20 12 -22 -20 -38 -19 -9 -35 -21 -35
-27 0 -13 -26 -35 -57 -48 -30 -12 -29 -30 0 -30 20 0 23 -4 19 -29 -3 -22 1
-32 18 -41 23 -13 80 -4 80 12 0 5 9 23 21 39 11 16 22 46 22 67 1 23 10 45
24 59 26 26 47 96 38 130 -4 16 1 34 15 53 11 15 20 35 20 43 0 9 5 19 10 22
6 3 10 23 10 44 0 28 -7 44 -28 64 -34 33 -78 36 -87 7z"/>
<path d="M2657 6610 c-3 -11 -1 -20 4 -20 5 0 9 9 9 20 0 11 -2 20 -4 20 -2 0
-6 -9 -9 -20z"/>
<path d="M2742 6600 c0 -19 2 -27 5 -17 2 9 2 25 0 35 -3 9 -5 1 -5 -18z"/>
<path d="M8648 6623 c6 -2 18 -2 25 0 6 3 1 5 -13 5 -14 0 -19 -2 -12 -5z"/>
<path d="M11037 6624 c-3 -4 5 -16 19 -27 28 -21 52 -11 41 17 -6 16 -48 22
-60 10z"/>
<path d="M2910 6600 c0 -5 5 -10 10 -10 6 0 10 5 10 10 0 6 -4 10 -10 10 -5 0
-10 -4 -10 -10z"/>
<path d="M10479 6578 c-6 -69 12 -108 50 -108 48 0 55 42 15 89 -26 31 -63 42
-65 19z"/>
<path d="M2465 6560 c3 -5 18 -10 33 -9 24 0 25 1 7 9 -28 12 -47 12 -40 0z"/>
<path d="M11240 6534 c-19 -19 -40 -34 -47 -34 -20 0 -15 -18 6 -25 20 -6 71
13 71 27 0 4 7 8 15 8 16 0 19 17 9 44 -8 21 -13 19 -54 -20z"/>
<path d="M4235 6548 c-16 -6 -50 -26 -74 -44 -24 -19 -48 -34 -53 -34 -4 0 -8
-5 -8 -11 0 -10 59 26 71 44 4 5 12 6 18 3 6 -4 11 -2 11 3 0 6 6 11 13 11 6
0 26 9 42 20 33 22 27 24 -20 8z"/>
<path d="M2731 6526 c-9 -11 -6 -15 14 -18 28 -6 27 -6 19 16 -8 20 -18 20
-33 2z"/>
<path d="M3960 6500 c-6 -11 -8 -20 -6 -20 3 0 10 9 16 20 6 11 8 20 6 20 -3
0 -10 -9 -16 -20z"/>
<path d="M4214 6494 c-18 -14 -18 -15 4 -4 12 6 22 13 22 15 0 8 -5 6 -26 -11z"/>
<path d="M2890 6481 c0 -9 24 -21 41 -21 5 0 9 5 9 11 0 5 -4 8 -9 4 -5 -3
-12 -1 -16 5 -8 12 -25 13 -25 1z"/>
<path d="M2770 6472 c0 -13 23 -32 38 -32 8 0 21 -8 28 -17 12 -18 84 -26 84
-10 0 4 -16 7 -35 7 -27 0 -35 4 -35 18 0 10 -5 23 -12 30 -13 13 -68 17 -68
4z"/>
<path d="M4062 6453 c-17 -7 -36 -43 -22 -43 5 0 10 5 10 11 0 7 8 18 18 25
18 14 16 16 -6 7z"/>
<path d="M8045 6423 c16 -21 33 -42 39 -48 6 -5 47 -54 90 -107 43 -54 84 -98
90 -98 6 0 4 6 -4 13 -9 7 -27 28 -40 47 -72 105 -161 218 -175 224 -28 10
-28 7 0 -31z"/>
<path d="M9983 6433 c-27 -25 -72 -165 -55 -170 21 -8 13 -50 -18 -97 -27 -40
-29 -48 -18 -67 12 -20 18 -21 103 -16 112 7 123 17 94 85 -11 26 -27 54 -35
63 -12 14 -12 18 7 35 28 25 59 87 59 117 0 17 -11 28 -45 45 -55 27 -67 27
-92 5z"/>
<path d="M3571 6403 c1 -18 46 -103 51 -97 4 3 9 -3 12 -14 4 -12 -2 -34 -14
-55 -16 -28 -25 -34 -43 -30 -35 9 -48 24 -45 52 3 23 -2 27 -35 35 -31 8 -46
6 -83 -13 -44 -21 -45 -23 -32 -43 18 -27 61 -40 106 -34 17 3 32 1 32 -3 0
-17 153 -76 176 -67 22 8 17 93 -8 146 -12 25 -27 63 -33 85 -10 37 -14 40
-48 43 -20 2 -37 0 -36 -5z m-141 -173 c8 -5 11 -10 5 -10 -5 0 -17 5 -25 10
-8 5 -10 10 -5 10 6 0 17 -5 25 -10z"/>
<path d="M2917 6367 c-10 -10 -16 -22 -12 -25 3 -4 9 -2 13 4 4 6 12 13 19 15
7 2 9 9 5 15 -4 6 -13 3 -25 -9z"/>
<path d="M3951 6327 c-13 -21 -12 -21 5 -5 10 10 16 20 13 22 -3 3 -11 -5 -18
-17z"/>
<path d="M2875 6309 c-4 -6 -5 -12 -2 -15 2 -3 7 2 10 11 7 17 1 20 -8 4z"/>
<path d="M8920 6263 c-39 -55 -98 -121 -189 -211 -35 -34 -61 -66 -57 -70 12
-12 239 235 269 294 24 47 17 43 -23 -13z"/>
<path d="M10988 6248 c5 -5 16 -8 23 -6 8 3 3 7 -10 11 -17 4 -21 3 -13 -5z"/>
<path d="M11070 6220 c8 -5 20 -10 25 -10 6 0 3 5 -5 10 -8 5 -19 10 -25 10
-5 0 -3 -5 5 -10z"/>
<path d="M4627 6161 c-4 -15 0 -24 11 -28 9 -4 20 -11 24 -17 5 -8 8 -7 8 1 0
6 -5 15 -11 18 -6 4 -14 16 -18 28 -8 20 -8 20 -14 -2z"/>
<path d="M1281 6147 c-13 -21 -12 -21 5 -5 10 10 16 20 13 22 -3 3 -11 -5 -18
-17z"/>
<path d="M3314 6154 c23 -22 20 -33 -11 -40 -70 -17 -41 -35 42 -27 56 5 105
31 105 55 0 4 -27 8 -59 8 -33 0 -63 5 -66 10 -3 6 -11 10 -16 10 -6 0 -3 -7
5 -16z"/>
<path d="M4481 6113 c-7 -32 -16 -65 -21 -74 -4 -9 -5 -30 -2 -48 6 -27 10
-15 26 69 20 107 18 149 -3 53z"/>
<path d="M4357 6108 c-3 -13 -9 -45 -12 -73 -4 -27 -13 -72 -21 -99 -8 -27
-13 -66 -13 -85 1 -28 4 -22 11 24 5 33 13 62 18 65 9 6 34 179 27 187 -3 2
-7 -6 -10 -19z"/>
<path d="M4608 6117 c6 -7 9 -24 8 -39 -2 -15 0 -44 4 -65 8 -38 8 -37 9 14 0
28 6 55 11 58 6 3 10 1 10 -6 0 -7 3 -9 7 -6 7 8 -36 57 -50 57 -5 0 -5 -5 1
-13z"/>
<path d="M3256 6061 c3 -13 2 -21 -2 -18 -9 5 -8 -68 2 -111 4 -20 9 -23 31
-17 20 5 32 0 54 -21 25 -23 29 -25 35 -11 3 10 4 23 1 31 -3 8 1 17 9 20 8 3
14 1 14 -4 0 -6 5 -10 10 -10 6 0 10 11 10 25 0 23 -2 24 -22 13 -13 -7 -30
-18 -38 -25 -14 -11 -16 -8 -18 20 -2 22 -13 41 -36 62 -19 17 -39 39 -46 50
-10 18 -10 18 -4 -4z"/>
<path d="M4505 6040 c8 -54 32 -150 46 -187 17 -44 20 -19 4 28 -9 24 -23 77
-30 118 -16 81 -31 113 -20 41z"/>
<path d="M4690 6076 c0 -2 8 -10 18 -17 15 -13 16 -12 3 4 -13 16 -21 21 -21
13z"/>
<path d="M11260 6059 c0 -5 5 -7 10 -4 6 3 10 8 10 11 0 2 -4 4 -10 4 -5 0
-10 -5 -10 -11z"/>
<path d="M3483 6040 c-18 -8 -53 -56 -53 -75 0 -3 9 -5 20 -5 11 0 21 -4 21
-10 3 -19 5 -25 16 -46 9 -16 9 -24 0 -33 -9 -9 -4 -9 21 0 33 11 82 61 82 84
0 16 -62 94 -75 94 -5 0 -20 -4 -32 -9z"/>
<path d="M11010 6030 c8 -5 20 -10 25 -10 6 0 3 5 -5 10 -8 5 -19 10 -25 10
-5 0 -3 -5 5 -10z"/>
<path d="M11226 6025 c-2 -6 2 -12 10 -12 7 0 15 6 18 12 2 6 -2 12 -10 12 -7
0 -15 -6 -18 -12z"/>
<path d="M4602 6000 c0 -14 2 -19 5 -12 2 6 2 18 0 25 -3 6 -5 1 -5 -13z"/>
<path d="M11068 6013 c7 -3 16 -2 19 1 4 3 -2 6 -13 5 -11 0 -14 -3 -6 -6z"/>
<path d="M11120 6002 c0 -4 9 -8 20 -9 11 -1 18 2 15 8 -7 11 -35 12 -35 1z"/>
<path d="M4730 5993 c5 -2 10 -10 10 -17 0 -7 7 -21 15 -32 13 -17 13 -15 1
16 -8 19 -19 35 -25 36 -7 2 -7 0 -1 -3z"/>
<path d="M9687 5974 c-8 -8 1 -24 13 -24 4 0 10 7 14 15 5 15 -14 21 -27 9z"/>
<path d="M10838 5938 c-7 -7 -24 -14 -38 -16 -36 -5 -50 -29 -50 -87 0 -96 78
-205 146 -205 18 0 44 -4 57 -9 27 -11 44 3 66 55 10 25 17 31 34 26 20 -5 21
-4 8 11 -12 15 -11 20 3 35 9 10 16 24 16 30 0 17 22 55 38 65 7 5 12 28 12
55 0 34 -3 43 -10 32 -8 -12 -13 -13 -30 -2 -11 6 -30 12 -43 12 -27 0 -70
-28 -62 -41 7 -11 -5 -12 -23 -1 -7 5 -10 16 -6 25 9 24 -18 22 -35 -2 -14
-18 -15 -18 -38 5 -28 28 -28 28 -45 12z m220 -158 c-15 -24 -22 -19 -13 9 3
12 11 19 16 16 5 -4 3 -14 -3 -25z"/>
<path d="M4453 5885 c0 -33 2 -45 4 -27 2 18 2 45 0 60 -2 15 -4 0 -4 -33z"/>
<path d="M11183 5927 c3 -10 2 -17 -3 -17 -22 0 16 -40 43 -46 29 -6 29 -7 22
-53 -3 -25 -7 -56 -8 -68 -1 -12 -4 -19 -6 -17 -8 8 -42 -107 -35 -118 4 -6 3
-8 -3 -5 -6 4 -24 -30 -43 -81 -48 -131 -49 -132 -61 -132 -9 0 -9 -3 0 -14 9
-10 8 -16 -3 -25 -11 -10 -16 -9 -23 2 -10 17 -62 44 -83 42 -42 -2 -80 -18
-85 -36 -5 -15 -16 -19 -54 -19 -30 0 -53 6 -60 14 -21 25 -68 37 -81 21 -7
-8 -9 -19 -6 -24 4 -6 -3 -15 -15 -21 -15 -9 -19 -18 -15 -35 4 -15 0 -29 -10
-39 -26 -26 -10 -136 27 -182 16 -20 29 -38 29 -40 0 -3 -62 36 -85 53 -5 5
-18 8 -27 9 -81 4 -78 3 -78 34 0 28 -13 40 -24 22 -6 -10 -66 -3 -66 7 0 3
11 23 25 43 14 20 26 45 28 55 1 10 6 23 10 30 11 18 -7 24 -88 29 -65 4 -78
2 -97 -15 -19 -18 -19 -21 -5 -27 10 -3 17 -12 17 -20 0 -10 12 -14 40 -14 28
0 40 4 40 14 0 8 5 18 12 22 8 5 9 0 6 -14 -4 -12 -2 -22 3 -22 5 0 8 -12 5
-27 -2 -16 -5 -32 -5 -36 -1 -5 -10 -6 -21 -2 -11 3 -28 2 -37 -4 -16 -9 -14
-10 10 -11 15 0 27 -5 27 -11 0 -5 -4 -8 -9 -4 -5 3 -12 1 -16 -5 -3 -5 1 -10
9 -10 25 0 19 -19 -9 -30 -16 -6 -23 -15 -19 -25 3 -8 11 -12 17 -8 6 4 8 0 4
-10 -4 -10 0 -17 11 -20 12 -3 11 -5 -5 -6 -13 -1 -23 -7 -23 -16 0 -8 -4 -15
-9 -15 -5 0 -14 -13 -21 -30 -9 -21 -19 -30 -35 -30 -31 0 -50 -24 -31 -39 24
-20 26 -51 4 -73 -16 -16 -30 -19 -71 -16 -29 2 -59 6 -67 9 -10 3 -16 -4 -18
-22 -2 -21 7 -35 42 -66 42 -37 46 -45 46 -86 0 -48 -16 -70 -47 -65 -14 2
-19 -4 -21 -27 -2 -22 6 -39 30 -65 20 -20 34 -47 35 -63 0 -19 14 -40 44 -66
40 -36 42 -40 24 -47 -11 -4 -24 -13 -28 -21 -4 -7 -15 -13 -22 -13 -8 0 -15
-5 -15 -11 0 -6 -7 -8 -17 -5 -10 4 -48 2 -85 -5 -57 -10 -67 -15 -63 -30 4
-11 -3 -23 -20 -36 -31 -22 -26 -43 13 -61 15 -7 37 -18 49 -25 27 -14 41 -66
22 -78 -9 -6 -10 -9 -2 -9 6 0 15 -9 18 -20 3 -11 15 -20 26 -20 10 0 19 -4
19 -10 0 -5 9 -10 21 -10 13 0 18 -4 13 -12 -5 -8 -2 -9 10 -5 10 4 23 7 30 7
17 0 14 82 -3 88 -6 2 -11 12 -11 22 0 11 -7 34 -16 53 -15 32 -15 36 5 76 12
23 26 39 31 36 4 -3 21 11 37 30 l30 35 23 -20 c12 -11 27 -17 31 -14 5 3 15
2 22 -3 6 -4 17 -8 22 -8 6 0 9 -13 8 -29 -2 -25 0 -27 24 -21 24 6 62 41 63
58 0 4 7 7 15 7 10 0 17 14 21 40 l7 41 44 -7 c30 -4 53 -2 70 7 22 12 27 11
39 -6 10 -14 11 -21 2 -26 -7 -4 -2 -8 12 -11 24 -3 27 -7 56 -78 14 -33 19
-67 17 -132 -1 -77 1 -88 16 -88 29 0 109 81 113 115 2 21 9 31 27 35 13 3 27
12 31 20 4 8 12 26 19 38 7 13 11 25 9 26 -2 1 -15 8 -30 16 -16 7 -28 22 -28
32 0 10 -4 26 -9 36 -5 9 -12 24 -14 33 -3 9 -24 25 -46 35 -34 16 -41 24 -41
50 0 37 -54 105 -63 79 -12 -29 -36 -16 -47 26 -8 30 -8 44 1 55 16 19 43 18
35 -1 -7 -19 3 -19 29 1 15 11 17 17 7 23 -6 4 -22 21 -35 38 -22 30 -22 30
-71 18 -26 -7 -52 -19 -57 -26 -28 -47 -33 -49 -96 -49 l-62 0 -7 -35 c-11
-59 30 -122 65 -100 18 10 23 -16 7 -34 -9 -10 -16 -22 -16 -28 0 -13 -110 -7
-150 8 -14 5 -44 10 -67 12 -51 3 -56 7 -48 40 5 17 19 30 45 41 37 15 60 51
60 97 0 15 8 19 38 19 42 0 92 19 92 36 0 5 -7 19 -15 30 -8 10 -15 22 -15 26
0 12 57 35 71 28 8 -4 46 -10 84 -13 94 -8 185 -48 185 -83 0 -13 4 -24 9 -24
5 0 11 -9 14 -21 5 -20 6 -20 32 -3 l26 17 -11 -29 c-12 -30 -5 -100 11 -110
5 -3 9 15 9 40 0 57 29 81 33 27 1 -13 8 -21 20 -21 10 0 15 -5 12 -10 -4 -6
-10 -8 -15 -5 -4 3 -11 -6 -14 -20 -4 -14 -13 -25 -20 -25 -14 0 -16 -43 -3
-56 7 -7 43 45 52 76 4 14 15 39 25 57 11 18 23 47 28 65 6 18 13 41 17 51 6
14 2 17 -24 17 -41 0 -40 20 2 21 57 3 62 4 84 17 25 14 89 16 97 3 4 -5 19
-3 37 6 27 14 32 14 49 -2 11 -10 16 -24 13 -33 -4 -10 -2 -13 6 -8 14 9 13
464 -1 472 -4 3 -14 -1 -22 -8 -7 -8 -37 -25 -65 -38 -29 -14 -51 -31 -51 -40
0 -9 -18 -34 -40 -55 -22 -21 -40 -44 -40 -50 0 -13 -36 -36 -44 -28 -10 11
-7 39 10 72 16 32 48 221 39 230 -3 2 4 10 15 18 14 10 20 26 21 56 0 27 3 36
7 24 6 -14 10 -12 24 15 9 18 22 48 29 67 12 33 13 33 63 27 34 -4 46 -2 36 4
-8 5 -27 10 -42 10 -37 0 -36 16 3 131 25 71 29 93 19 99 -8 5 -10 15 -5 26 6
16 9 14 17 -13 16 -61 24 -34 20 74 -4 115 -14 146 -38 116 -12 -15 -13 -15
-8 -2 4 13 0 15 -22 11 -23 -4 -25 -2 -20 16 4 12 2 23 -5 28 -9 5 -10 2 -6
-9z m-93 -667 c0 -5 -11 -10 -25 -10 -15 0 -25 -6 -25 -14 0 -8 -5 -27 -11
-43 l-11 -28 -14 34 c-8 19 -12 36 -9 39 25 25 95 41 95 22z m-110 -158 c0
-10 -7 -27 -16 -38 -15 -18 -15 -18 -10 6 3 14 6 31 6 38 0 6 5 12 10 12 6 0
10 -8 10 -18z m-550 -98 c0 -18 -11 -22 -40 -13 -16 4 -19 7 -7 8 9 1 17 5 17
9 0 5 7 9 15 9 8 0 15 -6 15 -13z m283 -153 c14 -6 28 -20 32 -33 4 -13 17
-31 28 -40 36 -28 12 -32 -54 -9 -35 12 -80 21 -100 21 -43 0 -53 15 -30 47
18 25 78 31 124 14z m465 -53 c21 -21 13 -24 -53 -14 -36 6 -65 14 -65 18 0
13 105 9 118 -4z m82 -44 c0 -2 -7 -4 -15 -4 -8 0 -15 4 -15 10 0 5 7 7 15 4
8 -4 15 -8 15 -10z"/>
<path d="M10212 5897 c-14 -15 -22 -36 -22 -59 0 -22 -7 -41 -20 -53 -11 -10
-20 -27 -20 -37 0 -16 6 -19 37 -16 31 2 43 -2 66 -27 28 -29 28 -29 21 -5 -4
14 -7 61 -6 106 2 67 0 83 -16 97 -17 16 -20 16 -40 -6z"/>
<path d="M4341 5885 c0 -11 6 -56 14 -100 11 -61 11 -81 2 -87 -9 -6 -8 -8 3
-8 8 0 25 -18 37 -40 l21 -40 -24 -29 -24 -29 27 7 c26 7 30 4 56 -48 l29 -56
-5 63 c-5 60 -4 63 22 76 22 12 30 12 54 0 28 -15 35 -38 15 -50 -8 -5 -9 -1
-5 12 7 18 6 18 -8 -1 -15 -18 -15 -20 0 -23 8 -2 13 -7 10 -12 -3 -5 -1 -11
4 -14 5 -4 13 -2 16 4 7 11 37 -21 48 -52 5 -14 1 -17 -21 -16 -15 1 -34 6
-42 12 -10 7 -9 3 3 -10 12 -15 25 -20 42 -16 19 3 25 0 25 -13 0 -11 5 -15
16 -11 8 3 12 2 9 -4 -3 -6 -2 -10 4 -10 5 0 12 -10 14 -22 3 -13 3 6 1 42 -3
49 -2 60 6 45 8 -16 9 -11 4 20 -5 39 -48 145 -58 145 -3 0 -3 -6 -1 -12 2 -7
-3 -22 -11 -33 -16 -20 -16 -20 -32 5 -10 14 -30 39 -47 55 -23 24 -24 25 -6
3 l25 -28 -54 16 c-42 12 -59 13 -73 5 -15 -10 -20 -7 -32 21 -12 29 -12 34 3
39 15 5 14 7 -3 10 -16 3 -23 23 -41 104 -12 55 -22 91 -23 80z m109 -269 c0
-3 -4 -8 -10 -11 -5 -3 -10 -1 -10 4 0 6 5 11 10 11 6 0 10 -2 10 -4z m60 0
c0 -3 -13 -11 -30 -20 -16 -8 -30 -10 -30 -5 0 5 10 14 23 19 25 10 37 12 37
6z m144 -41 c3 -8 1 -15 -4 -15 -6 0 -10 7 -10 15 0 8 2 15 4 15 2 0 6 -7 10
-15z m-8 -60 c20 -48 17 -57 -6 -15 -20 36 -24 50 -14 50 3 0 12 -16 20 -35z
m24 0 c0 -5 -5 -3 -10 5 -5 8 -10 20 -10 25 0 6 5 3 10 -5 5 -8 10 -19 10 -25z"/>
<path d="M4432 5870 c0 -19 2 -27 5 -17 2 9 2 25 0 35 -3 9 -5 1 -5 -18z"/>
<path d="M4622 5860 c0 -14 2 -19 5 -12 2 6 2 18 0 25 -3 6 -5 1 -5 -13z"/>
<path d="M9547 5863 c-12 -11 -8 -23 8 -23 8 0 15 7 15 15 0 16 -12 20 -23 8z"/>
<path d="M5167 5834 c-7 -36 9 -162 30 -234 9 -30 31 -90 50 -133 19 -43 32
-81 29 -84 -3 -4 -6 -1 -6 5 0 7 -12 12 -26 12 -22 0 -24 -2 -14 -14 6 -8 32
-25 56 -36 42 -21 62 -39 28 -26 -8 3 -12 2 -9 -4 15 -24 -51 8 -78 38 -15 17
-24 19 -50 11 -29 -8 -34 -5 -87 49 -76 79 -99 127 -131 277 -28 134 -36 142
-19 20 12 -84 59 -235 73 -232 5 1 12 -4 15 -12 3 -8 0 -11 -7 -7 -16 10 -14
2 10 -38 25 -43 36 -48 14 -6 -23 44 -19 44 28 -3 23 -24 56 -53 72 -65 30
-20 30 -21 10 -37 -19 -15 -19 -16 5 -4 33 17 63 22 55 9 -4 -6 6 -10 23 -10
29 0 92 -18 92 -27 0 -2 -4 -12 -10 -22 -7 -13 -4 -29 10 -57 11 -21 20 -30
20 -21 0 10 4 16 9 13 5 -3 12 2 15 11 6 14 8 14 21 -3 12 -17 12 -21 -2 -31
-9 -7 -25 -13 -35 -13 -10 0 -18 -7 -18 -15 0 -14 -3 -14 -24 0 -22 15 -24 15
-29 -7 -3 -13 -8 -68 -11 -123 -4 -94 -4 -96 5 -35 17 111 18 113 39 107 15
-4 20 0 20 14 0 12 15 25 47 40 53 24 78 17 78 -22 0 -21 -5 -24 -42 -27 -50
-4 -54 -13 -14 -41 l29 -21 11 30 c10 30 25 38 35 21 9 -14 10 -54 2 -77 -5
-16 -2 -23 13 -27 30 -8 23 -84 -10 -103 -23 -13 -23 -14 -2 -11 25 3 75 46
68 57 -2 4 2 16 10 26 15 19 15 18 9 -1 -4 -17 -3 -16 8 3 11 18 16 20 28 10
12 -11 12 -10 3 2 -6 8 -14 31 -18 50 -15 78 -48 166 -68 183 -12 10 -16 16
-9 12 31 -16 1 35 -62 104 -17 18 -53 50 -81 71 -50 37 -97 100 -75 100 24 0
77 -35 132 -88 32 -30 58 -49 58 -42 0 6 15 -1 34 -18 19 -16 55 -44 81 -62
37 -25 44 -28 33 -11 -7 12 -17 21 -23 21 -5 0 -26 16 -44 35 -19 19 -43 37
-52 40 -9 3 -20 12 -23 20 -3 8 -11 15 -17 15 -8 0 -7 -6 2 -17 13 -16 12 -17
-3 -4 -10 7 -15 17 -13 21 3 5 -10 21 -30 36 -76 58 -209 264 -245 381 -16 52
-18 54 -23 27z m66 -161 c35 -68 83 -141 121 -180 29 -33 28 -46 -3 -19 -16
14 -81 30 -81 20 0 -3 5 -14 11 -26 6 -11 8 -22 6 -25 -18 -17 -91 197 -101
292 -6 58 -5 59 8 25 7 -20 25 -59 39 -87z m157 -351 c0 -4 10 -23 22 -42 23
-36 32 -74 16 -64 -4 3 -6 9 -3 14 3 4 -14 30 -38 56 -23 27 -51 62 -61 79
l-19 29 41 -33 c23 -18 42 -36 42 -39z m-39 -29 c13 -15 12 -15 -11 -3 -34 17
-36 20 -18 20 9 0 22 -7 29 -17z m89 11 c0 -8 -19 -13 -24 -6 -3 5 1 9 9 9 8
0 15 -2 15 -3z m-50 -49 c11 -13 10 -14 -4 -9 -9 3 -16 10 -16 15 0 13 6 11
20 -6z m146 -122 c4 -13 11 -20 17 -16 6 4 8 0 4 -10 -3 -9 2 -42 13 -74 10
-32 18 -59 16 -60 -5 -5 -24 42 -47 112 -12 39 -32 82 -45 96 -14 14 -21 28
-18 32 9 9 53 -51 60 -80z m-4 -215 c-8 -8 -9 -4 -5 13 4 13 8 18 11 10 2 -7
-1 -18 -6 -23z"/>
<path d="M4629 5826 c-8 -9 1 -55 12 -62 10 -6 10 10 0 44 -3 13 -9 21 -12 18z"/>
<path d="M4578 5786 c16 -17 41 -51 56 -76 14 -25 26 -38 26 -30 0 13 1 13 10
0 12 -18 12 -2 0 25 l-9 20 0 -20 c-1 -14 -8 -8 -26 23 -13 23 -31 50 -40 58
-8 8 -15 19 -15 23 0 4 -7 8 -15 8 -11 0 -7 -9 13 -31z"/>
<path d="M8285 5796 c-22 -7 -61 -18 -86 -26 -47 -14 -50 -17 -111 -123 -26
-45 -28 -52 -19 -110 5 -34 13 -95 16 -135 l7 -72 -38 -47 c-22 -26 -38 -52
-36 -57 2 -4 -3 -16 -11 -25 -8 -9 -19 -32 -26 -51 -6 -19 -21 -44 -33 -57
-19 -20 -20 -26 -9 -69 23 -92 35 -110 99 -145 55 -30 61 -36 64 -71 2 -21 0
-38 -4 -38 -5 0 -8 -4 -8 -10 0 -16 27 -12 34 6 3 8 10 13 15 9 6 -3 14 3 20
12 5 10 15 18 23 18 7 1 26 5 41 9 33 10 35 9 47 -34 8 -27 7 -31 -7 -26 -8 4
-21 2 -27 -3 -6 -5 -27 -11 -46 -14 -30 -3 -28 -4 13 -5 50 -2 196 19 306 44
93 21 97 22 83 36 -7 7 -12 25 -12 40 0 40 -27 36 -47 -7 -18 -37 -25 -41 -88
-48 -22 -2 -33 -2 -24 0 12 3 15 15 12 61 -5 69 -10 85 -22 77 -12 -7 -31 26
-31 53 0 11 -19 40 -41 66 l-41 47 19 52 20 52 49 3 c39 2 60 -3 97 -23 48
-27 97 -77 97 -99 0 -7 11 -27 25 -46 14 -19 30 -50 35 -70 8 -29 7 -37 -7
-47 -14 -11 -6 -13 47 -13 35 0 78 -5 96 -12 28 -10 35 -8 63 12 18 12 50 45
72 72 45 58 49 87 23 199 -11 50 -22 72 -37 81 -45 25 -93 38 -145 38 -53 0
-53 0 -143 87 -49 47 -103 111 -121 141 -17 30 -60 87 -95 125 -35 39 -63 78
-62 87 1 8 -2 23 -6 34 -5 12 -3 21 6 27 18 11 3 10 -46 -5z"/>
<path d="M10585 5800 c3 -5 10 -10 16 -10 5 0 9 5 9 10 0 6 -7 10 -16 10 -8 0
-12 -4 -9 -10z"/>
<path d="M2918 5794 c6 -3 12 -12 12 -20 0 -8 5 -14 11 -14 19 0 4 35 -16 37
-11 2 -14 0 -7 -3z"/>
<path d="M4302 5780 c0 -14 2 -19 5 -12 2 6 2 18 0 25 -3 6 -5 1 -5 -13z"/>
<path d="M4430 5793 c0 -3 5 -14 12 -26 10 -21 10 -21 -7 -7 -17 14 -17 14 -1
-17 17 -34 30 -45 20 -18 -9 21 1 19 31 -9 14 -13 22 -26 18 -28 -4 -3 -2 -3
6 -1 7 2 20 -2 29 -9 13 -11 14 -9 7 12 -9 31 -24 50 -39 50 -6 0 -4 -4 4 -10
17 -11 9 -23 -12 -15 -18 7 -51 62 -44 73 3 5 -1 9 -9 9 -8 0 -15 -2 -15 -4z"/>
<path d="M4241 5780 c0 -8 4 -24 9 -35 5 -13 9 -14 9 -5 0 8 -4 24 -9 35 -5
13 -9 14 -9 5z"/>
<path d="M4531 5783 c-2 -22 40 -123 49 -118 4 3 13 -16 19 -41 6 -24 16 -42
21 -39 7 4 7 13 0 25 -13 25 -13 33 3 24 14 -9 -4 16 -40 56 -12 14 -29 43
-37 65 -8 22 -15 35 -15 28z"/>
<path d="M9938 5752 c-17 -3 -30 -34 -43 -100 -5 -26 -3 -33 12 -38 10 -3 26
-10 37 -16 10 -5 45 -12 78 -14 l59 -4 -5 39 c-2 21 -9 47 -14 58 -14 26 -103
80 -124 75z"/>
<path d="M4299 5708 c-4 -15 -4 -78 1 -98 4 -16 7 -2 8 38 0 34 -1 62 -4 62
-2 0 -4 -1 -5 -2z"/>
<path d="M4438 5695 c-14 -14 5 -45 28 -45 17 0 22 4 17 15 -3 9 -8 13 -11 11
-3 -3 -10 1 -16 10 -6 8 -14 12 -18 9z"/>
<path d="M11080 5696 c0 -2 7 -7 16 -10 8 -3 12 -2 9 4 -6 10 -25 14 -25 6z"/>
<path d="M2893 5683 c-13 -2 -23 -11 -23 -20 0 -13 3 -13 15 -3 8 7 15 8 15 2
0 -5 -6 -14 -12 -20 -9 -7 -12 -33 -10 -83 5 -92 21 -72 22 26 l1 70 22 -27
c28 -34 47 -36 46 -5 -1 16 -2 18 -6 5 -6 -23 -11 -23 -33 5 -11 12 -17 30
-14 40 3 9 4 16 2 16 -2 -1 -13 -4 -25 -6z"/>
<path d="M4185 5638 c-49 -64 -75 -103 -45 -68 12 14 37 42 56 64 28 32 43 57
32 56 -2 -1 -21 -24 -43 -52z"/>
<path d="M2845 5600 c-4 -23 -5 -44 -2 -46 3 -3 8 13 12 36 4 23 5 44 2 46 -3
3 -8 -13 -12 -36z"/>
<path d="M4671 5614 c0 -11 3 -14 6 -6 3 7 2 16 -1 19 -3 4 -6 -2 -5 -13z"/>
<path d="M10340 5601 c0 -13 55 -51 74 -51 29 0 17 16 -29 38 -25 12 -45 18
-45 13z"/>
<path d="M3386 5583 c-3 -7 -1 -13 3 -13 17 0 41 12 41 20 0 14 -39 7 -44 -7z"/>
<path d="M4833 5590 c14 -48 32 -90 39 -90 12 0 10 4 -18 57 -14 26 -24 41
-21 33z"/>
<path d="M3348 5583 c7 -3 16 -2 19 1 4 3 -2 6 -13 5 -11 0 -14 -3 -6 -6z"/>
<path d="M4320 5572 c0 -4 12 -19 27 -33 20 -18 23 -19 13 -4 -24 32 -40 47
-40 37z"/>
<path d="M10726 5573 c-12 -12 -5 -23 14 -23 11 0 20 4 20 9 0 11 -26 22 -34
14z"/>
<path d="M4731 5550 c0 -8 8 -31 19 -50 24 -45 24 -28 0 25 -10 22 -19 33 -19
25z"/>
<path d="M5690 5553 c1 -9 50 -47 54 -41 2 1 -10 13 -25 26 -16 13 -29 20 -29
15z"/>
<path d="M9731 5546 c-9 -11 -8 -15 5 -20 20 -8 39 7 30 23 -10 15 -21 14 -35
-3z"/>
<path d="M11270 5550 c19 -13 30 -13 30 0 0 6 -10 10 -22 10 -19 0 -20 -2 -8
-10z"/>
<path d="M10790 5540 c0 -5 -12 -10 -26 -10 -20 0 -25 -4 -20 -16 3 -9 6 -24
6 -35 0 -14 9 -21 33 -26 17 -4 36 -6 41 -5 5 2 6 -4 3 -13 -4 -9 -1 -15 7
-15 8 0 16 9 19 20 4 15 14 20 41 20 34 0 36 2 26 21 -10 17 -18 19 -50 14
-23 -4 -41 -2 -45 4 -4 7 5 11 24 11 35 0 39 7 14 26 -21 16 -73 18 -73 4z"/>
<path d="M4243 5505 c0 -22 2 -30 4 -17 2 12 2 30 0 40 -3 9 -5 -1 -4 -23z"/>
<path d="M9880 5532 c0 -5 9 -17 21 -28 27 -25 65 -100 75 -150 l9 -39 5 45
c9 81 -43 178 -97 180 -7 0 -13 -4 -13 -8z"/>
<path d="M5651 5497 c21 -39 111 -157 120 -157 5 0 12 -7 15 -15 8 -21 65 -79
99 -101 21 -13 15 -4 -20 32 -70 70 -195 227 -195 245 0 4 -7 9 -15 13 -13 5
-14 2 -4 -17z"/>
<path d="M4893 5465 c16 -32 77 -81 137 -109 19 -9 26 -11 16 -4 -10 7 -39 28
-63 46 -24 17 -48 32 -53 32 -6 0 -10 3 -10 8 0 4 -10 18 -21 32 l-20 25 14
-30z"/>
<path d="M5136 5458 c21 -37 47 -69 52 -64 6 7 -40 76 -51 76 -5 0 -5 -6 -1
-12z"/>
<path d="M9691 5456 c-11 -13 -11 -20 -3 -28 15 -15 24 -5 20 23 -3 21 -4 21
-17 5z"/>
<path d="M1963 5442 c-13 -8 -8 -19 19 -40 15 -12 17 -11 15 14 -2 29 -14 38
-34 26z"/>
<path d="M10958 5443 c7 -3 16 -2 19 1 4 3 -2 6 -13 5 -11 0 -14 -3 -6 -6z"/>
<path d="M4510 5418 c0 -19 2 -20 10 -8 13 19 13 30 0 30 -5 0 -10 -10 -10
-22z"/>
<path d="M4869 5400 c-7 -35 -4 -48 7 -38 3 4 4 21 2 40 l-3 33 -6 -35z"/>
<path d="M10990 5426 c0 -2 9 -6 20 -9 11 -3 18 -1 14 4 -5 9 -34 13 -34 5z"/>
<path d="M10865 5410 c-3 -5 -1 -10 4 -10 6 0 11 5 11 10 0 6 -2 10 -4 10 -3
0 -8 -4 -11 -10z"/>
<path d="M2010 5387 c0 -6 14 -25 30 -40 17 -16 30 -25 30 -20 0 5 -11 19 -25
31 -14 13 -23 27 -20 32 3 6 1 10 -4 10 -6 0 -11 -6 -11 -13z"/>
<path d="M4791 5384 c0 -11 3 -14 6 -6 3 7 2 16 -1 19 -3 4 -6 -2 -5 -13z"/>
<path d="M4508 5384 c-10 -15 -3 -123 8 -134 5 -5 8 12 6 43 -5 90 -7 102 -14
91z"/>
<path d="M5070 5352 c0 -10 49 -57 53 -51 2 2 -9 17 -25 32 -15 15 -28 24 -28
19z"/>
<path d="M4862 5330 c0 -14 2 -19 5 -12 2 6 2 18 0 25 -3 6 -5 1 -5 -13z"/>
<path d="M4671 5304 c0 -11 3 -14 6 -6 3 7 2 16 -1 19 -3 4 -6 -2 -5 -13z"/>
<path d="M1855 5278 c4 -12 15 -35 26 -50 25 -36 24 -43 -11 -81 -16 -18 -30
-40 -30 -49 0 -12 -8 -18 -22 -19 -19 -1 -18 -2 6 -9 16 -5 50 -29 75 -53 50
-48 77 -62 87 -45 7 11 -13 28 -30 24 -6 -2 -7 -1 -3 2 4 2 3 10 -4 18 -18 22
-2 30 20 10 18 -16 18 -16 13 11 -2 15 -11 35 -18 43 -9 11 -11 29 -7 53 5 31
3 36 -10 32 -21 -9 -30 11 -17 36 10 18 8 25 -17 51 -15 16 -36 34 -46 40 -17
8 -18 7 -12 -14z m54 -42 c14 -15 19 -26 12 -31 -6 -3 -11 -1 -11 6 0 6 -10
20 -22 30 -11 11 -17 19 -11 19 5 0 20 -11 32 -24z"/>
<path d="M11158 5293 c7 -3 16 -2 19 1 4 3 -2 6 -13 5 -11 0 -14 -3 -6 -6z"/>
<path d="M5605 5210 c15 -30 44 -80 65 -110 20 -30 35 -62 33 -70 -4 -12 -3
-12 5 -2 7 11 14 8 30 -12 11 -14 23 -26 26 -26 4 0 -15 28 -42 63 -51 65
-112 161 -112 176 0 5 -7 15 -16 22 -11 9 -7 -5 11 -41z"/>
<path d="M4403 5137 c-24 -62 -48 -134 -54 -160 -20 -84 0 -197 64 -352 24
-60 106 -221 122 -240 9 -11 0 9 -19 45 -40 74 -102 221 -137 325 -34 101 -31
201 11 316 28 79 33 86 55 82 13 -3 25 -14 28 -24 6 -23 73 -53 96 -43 12 5 8
9 -17 16 -18 5 -35 15 -39 23 -3 8 -9 15 -15 15 -5 0 -6 -6 -3 -12 4 -7 -2 -4
-12 8 -10 12 -26 24 -35 27 -15 5 -16 11 -7 36 6 17 9 35 7 40 -1 5 -22 -41
-45 -102z"/>
<path d="M4801 5214 c0 -11 3 -14 6 -6 3 7 2 16 -1 19 -3 4 -6 -2 -5 -13z"/>
<path d="M10621 5214 c0 -11 3 -14 6 -6 3 7 2 16 -1 19 -3 4 -6 -2 -5 -13z"/>
<path d="M1940 5190 c-8 -5 -11 -13 -6 -17 5 -4 11 -2 13 5 4 9 10 7 22 -7 9
-11 30 -22 47 -26 l29 -6 -30 17 c-16 9 -34 23 -38 30 -9 16 -17 17 -37 4z"/>
<path d="M10593 5193 c-18 -7 -16 -33 2 -33 8 0 15 9 15 20 0 11 -1 20 -2 19
-2 0 -9 -3 -15 -6z"/>
<path d="M4530 5166 c0 -16 20 -44 37 -50 13 -5 11 0 -7 21 -14 15 -26 30 -27
32 -2 2 -3 1 -3 -3z"/>
<path d="M506 5101 c-14 -27 -14 -31 15 -75 19 -32 35 -46 47 -44 21 4 26 27
17 94 -6 51 -8 54 -35 54 -22 0 -33 -7 -44 -29z"/>
<path d="M4438 5123 c7 -3 16 -2 19 1 4 3 -2 6 -13 5 -11 0 -14 -3 -6 -6z"/>
<path d="M6064 5071 c4 -6 17 -11 29 -11 18 0 19 -2 7 -10 -13 -8 -12 -10 3
-10 9 0 17 -4 17 -9 0 -9 78 -45 124 -57 47 -11 27 16 -24 33 -24 8 -60 25
-79 37 -44 28 -86 43 -77 27z"/>
<path d="M4046 5010 c-49 -54 -46 -62 4 -10 37 39 45 50 36 50 -2 0 -20 -18
-40 -40z"/>
<path d="M5421 5004 c0 -11 3 -14 6 -6 3 7 2 16 -1 19 -3 4 -6 -2 -5 -13z"/>
<path d="M4057 4993 c-4 -3 -7 -11 -7 -17 0 -6 5 -5 12 2 6 6 9 14 7 17 -3 3
-9 2 -12 -2z"/>
<path d="M6311 4969 c13 -8 97 -13 88 -5 -2 2 -26 6 -53 9 -30 3 -43 1 -35 -4z"/>
<path d="M6526 4965 c4 -8 15 -15 27 -15 23 0 22 2 -10 19 -19 10 -22 9 -17
-4z"/>
<path d="M6615 4960 c3 -5 19 -8 36 -6 46 5 47 16 0 16 -25 0 -40 -4 -36 -10z"/>
<path d="M5730 4935 c0 -14 4 -25 9 -25 4 0 6 11 3 25 -2 14 -6 25 -8 25 -2 0
-4 -11 -4 -25z"/>
<path d="M2365 4930 c-26 -28 -15 -31 14 -3 13 13 20 23 14 23 -5 0 -18 -9
-28 -20z"/>
<path d="M6643 4922 c18 -27 217 -68 217 -43 0 6 -15 11 -32 11 -33 0 -135 22
-172 36 -13 5 -17 4 -13 -4z"/>
<path d="M1808 4888 c7 -7 12 -34 12 -60 0 -50 -48 -161 -118 -273 l-31 -50
27 -22 c15 -12 52 -34 83 -48 56 -27 89 -69 89 -112 0 -16 -1 -16 -85 6 -22 6
-59 11 -82 11 -39 0 -43 -2 -43 -25 0 -13 -4 -34 -9 -47 -67 -171 -85 -207
-104 -213 -19 -6 -16 -8 16 -15 34 -6 84 -27 97 -40 3 -3 14 -10 24 -16 32
-17 58 -58 50 -78 -6 -16 -15 -18 -66 -13 -32 3 -60 1 -63 -3 -3 -5 0 -10 6
-12 7 -2 7 -12 1 -29 -16 -42 9 -117 51 -153 53 -45 70 -98 64 -195 -5 -84 5
-110 38 -98 8 4 17 2 21 -4 3 -5 26 -9 51 -7 35 1 47 7 55 22 10 24 51 46 83
46 13 0 26 10 33 24 8 17 22 26 50 31 47 8 65 34 58 88 -3 24 0 42 10 51 8 8
14 19 14 25 0 6 5 11 11 11 5 0 7 -4 4 -10 -3 -5 1 -10 9 -10 9 0 16 6 16 13
0 21 65 36 105 23 19 -6 35 -14 35 -18 0 -3 7 -13 15 -22 17 -16 35 -122 35
-208 0 -31 4 -59 8 -62 4 -2 54 -6 110 -7 84 -2 105 -6 119 -21 9 -10 29 -18
45 -18 37 0 66 -15 96 -49 74 -83 89 -102 104 -130 13 -24 24 -31 48 -31 16 0
30 -4 30 -9 0 -9 100 -61 118 -61 5 0 9 16 10 37 1 31 -5 42 -45 80 -26 23
-53 43 -60 43 -7 0 -13 3 -13 8 0 14 -65 78 -92 90 -16 6 -28 18 -28 27 0 8
-4 15 -9 15 -6 0 -18 25 -28 56 -11 36 -25 60 -38 66 -24 11 -51 68 -32 68 6
0 -12 22 -41 49 -36 34 -52 57 -52 74 0 21 -6 26 -37 32 -21 4 -42 12 -46 18
-6 9 -10 9 -14 0 -7 -18 -23 -16 -23 2 0 8 -4 15 -10 15 -5 0 -10 7 -10 16 0
20 -24 44 -44 44 -9 0 -16 7 -16 15 0 8 -4 15 -8 15 -13 0 -43 137 -36 165 5
21 3 25 -15 25 -12 0 -21 5 -21 10 0 6 -9 10 -20 10 -15 0 -20 7 -20 29 0 20
-6 31 -17 33 -23 4 -28 68 -6 68 18 0 50 34 58 61 4 11 11 19 16 19 5 0 9 14
9 30 0 28 -2 30 -39 30 -22 0 -41 -5 -43 -12 -6 -17 -38 14 -38 36 0 9 -4 16
-10 16 -5 0 -10 5 -10 10 0 6 9 10 20 10 17 0 20 7 20 45 0 35 -6 52 -24 70
-13 13 -27 21 -30 18 -3 -4 -6 -2 -6 4 0 5 38 13 85 16 47 3 93 11 103 17 14
9 12 10 -13 5 -16 -3 -65 -9 -107 -12 -72 -5 -76 -4 -72 13 8 28 124 93 186
103 42 7 46 9 18 9 -48 1 -136 -23 -132 -37 3 -13 -8 -14 -28 -1 -13 8 -13 10
1 10 9 0 19 7 23 15 3 9 19 15 38 16 18 1 25 3 16 6 -10 2 -18 14 -18 25 0 18
-5 20 -55 16 -41 -2 -55 0 -55 10 0 14 2 16 68 75 23 20 37 37 31 37 -6 0 -23
-13 -37 -30 -25 -28 -72 -42 -72 -21 0 5 9 7 20 4 11 -3 20 0 20 6 0 6 -7 11
-15 11 -8 0 -33 19 -55 41 -32 34 -40 38 -40 22 0 -13 -15 -27 -44 -43 -37
-18 -56 -22 -111 -18 -63 4 -69 6 -105 46 -22 23 -43 42 -47 42 -4 0 -2 -5 5
-12z m363 -141 c-10 -9 -11 -8 -5 6 3 10 9 15 12 12 3 -3 0 -11 -7 -18z m589
-1277 c0 -5 -4 -10 -10 -10 -5 0 -10 5 -10 10 0 6 5 10 10 10 6 0 10 -4 10
-10z"/>
<path d="M5280 4884 c0 -22 36 -62 47 -51 3 4 1 7 -6 7 -6 0 -18 15 -26 33
-11 25 -14 27 -15 11z"/>
<path d="M5743 4845 c0 -33 2 -45 4 -27 2 18 2 45 0 60 -2 15 -4 0 -4 -33z"/>
<path d="M4043 4825 c0 -38 2 -53 4 -32 2 20 2 52 0 70 -2 17 -4 1 -4 -38z"/>
<path d="M5353 4823 c9 -2 25 -2 35 0 9 3 1 5 -18 5 -19 0 -27 -2 -17 -5z"/>
<path d="M5386 4791 c-3 -5 3 -11 15 -14 16 -4 18 -3 8 9 -13 16 -16 17 -23 5z"/>
<path d="M5270 4780 c20 -13 33 -13 25 0 -3 6 -14 10 -23 10 -15 0 -15 -2 -2
-10z"/>
<path d="M4277 4767 c-13 -35 -28 -168 -25 -222 l4 -60 2 70 c1 39 8 104 16
145 14 70 15 98 3 67z"/>
<path d="M7531 4761 c-9 -6 3 -11 35 -15 27 -4 62 -9 78 -12 19 -4 26 -3 22 5
-4 6 -25 11 -46 11 -21 0 -42 5 -45 10 -8 12 -25 13 -44 1z"/>
<path d="M6045 4750 c-3 -5 -2 -10 4 -10 5 0 18 -3 28 -7 16 -6 16 -5 4 10
-15 19 -27 22 -36 7z"/>
<path d="M2370 4734 c-22 -8 -28 -13 -15 -13 11 0 31 6 45 14 31 17 17 17 -30
-1z"/>
<path d="M8115 4739 c-4 -6 -5 -13 -2 -16 7 -7 27 6 27 18 0 12 -17 12 -25 -2z"/>
<path d="M5822 4720 c0 -14 2 -19 5 -12 2 6 2 18 0 25 -3 6 -5 1 -5 -13z"/>
<path d="M6100 4730 c0 -5 10 -10 23 -10 18 0 19 2 7 10 -19 13 -30 13 -30 0z"/>
<path d="M8346 4718 c3 -5 10 -6 15 -3 13 9 11 12 -6 12 -8 0 -12 -4 -9 -9z"/>
<path d="M6120 4701 c0 -18 43 -111 52 -111 4 0 -5 26 -18 58 -28 63 -34 72
-34 53z"/>
<path d="M7422 4699 c41 -11 207 -21 183 -10 -11 4 -63 10 -115 13 -52 3 -83
2 -68 -3z"/>
<path d="M4051 4684 c0 -11 3 -14 6 -6 3 7 2 16 -1 19 -3 4 -6 -2 -5 -13z"/>
<path d="M8276 4645 c-11 -8 -15 -15 -9 -15 6 0 16 7 23 15 16 19 11 19 -14 0z"/>
<path d="M11278 4583 c7 -3 16 -2 19 1 4 3 -2 6 -13 5 -11 0 -14 -3 -6 -6z"/>
<path d="M4600 4562 c6 -13 14 -21 18 -18 3 4 -2 14 -12 24 -18 16 -18 16 -6
-6z"/>
<path d="M5850 4571 c0 -6 4 -13 10 -16 6 -3 7 1 4 9 -7 18 -14 21 -14 7z"/>
<path d="M6190 4555 c0 -8 4 -15 10 -15 5 0 7 7 4 15 -4 8 -8 15 -10 15 -2 0
-4 -7 -4 -15z"/>
<path d="M6216 4508 c14 -46 36 -80 55 -85 10 -3 19 -10 19 -15 0 -5 -5 -6
-11 -2 -6 3 -3 -5 6 -20 10 -14 24 -26 32 -26 8 0 12 -4 9 -9 -6 -9 84 -97
143 -141 18 -14 78 -48 133 -77 54 -28 104 -55 111 -60 7 -5 39 -16 72 -23 33
-7 63 -16 67 -19 4 -3 -42 -5 -101 -5 -84 1 -128 8 -201 28 -51 15 -99 25
-107 22 -8 -3 -12 -2 -9 3 3 5 -8 14 -24 21 -17 7 -55 27 -85 46 -38 23 -52
27 -46 15 5 -9 39 -32 75 -49 36 -18 66 -34 66 -36 0 -2 -17 0 -37 5 -21 6
-51 12 -68 14 -68 10 52 -27 130 -40 44 -7 112 -21 150 -30 62 -15 145 -19
269 -12 36 2 40 -1 48 -28 5 -16 10 -93 11 -170 l1 -140 11 90 c10 86 6 185
-9 233 -6 19 -3 23 26 29 18 4 36 6 40 5 4 -1 5 4 2 12 -4 11 -11 12 -35 3
-22 -9 -34 -9 -49 1 -12 7 -20 8 -20 2 0 -10 -35 -6 -70 7 -8 4 -35 14 -60 23
-28 10 -50 26 -57 41 -7 14 -24 38 -38 53 -14 15 -25 29 -25 31 0 2 38 -14 85
-35 89 -41 185 -73 193 -65 3 2 -4 8 -14 11 -112 41 -190 88 -250 151 -35 36
-67 63 -71 60 -3 -4 -1 -7 5 -7 7 0 12 -6 12 -12 0 -7 21 -33 46 -57 25 -24
43 -45 41 -47 -5 -5 -186 93 -259 140 -32 20 -58 33 -58 29 0 -5 30 -26 66
-48 36 -22 88 -55 116 -72 27 -18 57 -33 66 -33 8 0 12 -3 9 -6 -3 -4 9 -25
28 -47 32 -37 42 -57 30 -57 -17 0 -192 95 -227 122 -70 56 -134 120 -113 113
17 -5 17 -3 -4 19 -14 14 -21 29 -17 33 4 4 11 1 16 -7 5 -8 12 -12 15 -8 8 7
-95 104 -107 100 -4 -1 -13 9 -18 23 -12 31 -24 33 -14 3z m49 -46 c-3 -3 0
-11 6 -19 6 -7 7 -13 3 -13 -5 0 -14 8 -21 18 -9 15 -8 19 3 19 8 0 12 -3 9
-5z m47 -64 c-8 -8 -12 -9 -12 -1 0 6 -3 20 -6 30 -7 17 -6 17 12 1 14 -14 16
-20 6 -30z"/>
<path d="M6911 4472 c24 -30 72 -76 106 -103 70 -55 95 -67 36 -17 -21 17 -71
63 -112 102 -71 68 -73 69 -30 18z"/>
<path d="M9096 4503 c-65 -13 -178 -61 -201 -84 -5 -6 24 6 65 25 42 20 102
41 135 47 33 6 78 14 100 19 l40 8 -35 0 c-19 0 -66 -6 -104 -15z"/>
<path d="M4723 4488 c11 -10 33 -18 51 -17 30 1 30 1 -8 10 -22 5 -44 13 -51
17 -6 4 -2 -1 8 -10z"/>
<path d="M9351 4486 c11 -9 89 -46 89 -41 0 9 -64 45 -79 45 -8 0 -12 -2 -10
-4z"/>
<path d="M4261 4454 c0 -11 3 -14 6 -6 3 7 2 16 -1 19 -3 4 -6 -2 -5 -13z"/>
<path d="M9342 4424 c-12 -8 -22 -22 -22 -30 0 -10 -5 -12 -12 -8 -10 6 -10 4
0 -8 11 -14 10 -16 -7 -11 -35 9 -23 -4 25 -29 26 -12 61 -39 78 -59 28 -34
31 -35 31 -14 0 13 -4 21 -9 18 -4 -3 -5 4 -1 16 6 20 -10 31 -17 12 -1 -6
-21 4 -43 20 -34 26 -36 29 -14 24 24 -6 25 -5 21 26 -4 28 -2 31 14 25 17 -7
17 -6 -1 14 -22 24 -16 23 -43 4z m15 -20 c-3 -3 -12 -4 -19 -1 -8 3 -5 6 6 6
11 1 17 -2 13 -5z"/>
<path d="M7619 4410 c19 -12 51 -24 70 -26 38 -5 41 -7 -84 41 -11 4 -5 -3 14
-15z"/>
<path d="M11101 4384 l-23 -24 23 2 c29 4 39 -29 12 -38 -10 -3 -26 -10 -36
-15 -10 -5 -22 -7 -27 -4 -6 3 -7 -1 -4 -9 6 -17 24 -22 24 -8 0 5 27 17 61
27 l60 19 -25 15 c-14 9 -26 19 -26 24 0 4 -6 5 -12 1 -10 -6 -10 -4 0 8 21
27 -2 28 -27 2z"/>
<path d="M6551 4370 c13 -16 24 -28 27 -26 6 6 -29 56 -39 56 -5 0 0 -13 12
-30z"/>
<path d="M10969 4381 c11 -20 41 -19 41 2 0 6 -3 7 -6 4 -4 -3 -15 -2 -26 4
-18 9 -18 8 -9 -10z"/>
<path d="M7760 4371 c40 -12 157 -22 140 -12 -8 4 -49 11 -90 14 -41 3 -64 2
-50 -2z"/>
<path d="M11038 4363 c6 -2 18 -2 25 0 6 3 1 5 -13 5 -14 0 -19 -2 -12 -5z"/>
<path d="M4560 4340 c6 -11 13 -20 16 -20 2 0 0 9 -6 20 -6 11 -13 20 -16 20
-2 0 0 -9 6 -20z"/>
<path d="M9048 4341 c-44 -21 -64 -37 -28 -23 59 24 94 41 80 41 -8 0 -32 -8
-52 -18z"/>
<path d="M4621 4265 c2 -5 29 -51 59 -102 44 -74 59 -91 75 -88 11 2 76 7 145
10 69 3 139 8 156 11 26 5 32 1 43 -23 28 -59 52 -140 56 -185 4 -54 3 -55
-127 -87 -78 -20 -208 -80 -175 -81 10 0 42 11 70 24 29 12 95 37 148 55 86
28 97 35 102 59 9 43 -17 171 -37 184 -7 5 -6 8 4 8 10 0 11 3 3 8 -6 4 -13
15 -15 26 -3 16 11 21 107 41 120 26 219 54 213 61 -3 2 -38 -6 -79 -17 -90
-25 -201 -45 -294 -53 -39 -4 -83 -9 -100 -11 -87 -13 -245 -16 -245 -6 0 6
-12 30 -27 54 -37 56 -86 125 -82 112z"/>
<path d="M6190 4244 c0 -5 6 -19 14 -30 8 -11 16 -46 18 -76 2 -38 7 -54 15
-51 8 3 9 12 2 30 -5 13 -9 38 -9 55 0 16 -9 41 -20 55 -11 14 -20 22 -20 17z"/>
<path d="M8859 4223 c-13 -16 -12 -17 4 -4 9 7 17 15 17 17 0 8 -8 3 -21 -13z"/>
<path d="M5535 4220 c-3 -6 1 -7 9 -4 18 7 21 14 7 14 -6 0 -13 -4 -16 -10z"/>
<path d="M6092 4160 c11 -28 23 -49 25 -47 4 5 -34 97 -41 97 -3 0 5 -23 16
-50z"/>
<path d="M8809 4183 c-13 -16 -12 -17 4 -4 9 7 17 15 17 17 0 8 -8 3 -21 -13z"/>
<path d="M9479 4070 c3 -41 6 -131 6 -200 l0 -125 -30 -5 c-33 -6 -36 -26 -9
-67 18 -29 18 -66 -1 -149 -9 -36 -14 -69 -10 -72 3 -3 5 0 5 6 0 7 11 12 25
12 13 0 29 8 34 18 8 13 10 14 11 2 0 -8 11 -28 25 -44 24 -28 24 -30 6 -42
-21 -15 -18 -64 4 -64 7 0 12 -6 11 -12 -5 -21 -25 -64 -25 -54 -1 5 -8 3 -16
-4 -8 -6 -20 -8 -26 -4 -8 5 -9 3 -5 -5 5 -7 14 -10 22 -7 20 8 17 -7 -6 -27
-24 -20 -66 -22 -84 -4 -6 6 -11 25 -9 41 1 16 -2 37 -7 45 -6 11 -8 0 -6 -33
2 -59 28 -85 75 -78 25 3 41 20 93 95 95 136 237 287 321 339 26 17 46 33 43
35 -3 3 -20 8 -38 12 -27 6 -33 11 -31 32 3 53 11 82 24 90 8 5 9 9 3 9 -21 0
-139 -83 -200 -141 -69 -67 -76 -64 -63 21 4 30 10 92 12 138 2 45 7 85 11 89
4 4 20 -10 37 -30 27 -32 36 -37 75 -37 40 0 44 2 44 25 0 14 -8 33 -19 44
-10 10 -20 22 -22 27 -3 5 -21 25 -42 44 -31 29 -39 32 -47 20 -8 -12 -10 -12
-10 -1 0 11 -12 13 -55 8 -56 -6 -56 -6 -72 29 -9 19 -22 34 -30 34 -7 0 -17
15 -22 33 -6 22 -7 10 -2 -43z m28 -82 c-3 -8 -6 -5 -6 6 -1 11 2 17 5 13 3
-3 4 -12 1 -19z m-24 -445 c4 -34 2 -43 -10 -43 -11 0 -14 6 -9 23 3 12 6 33
6 46 0 36 6 22 13 -26z m137 -147 c0 -3 -4 -8 -10 -11 -5 -3 -10 -1 -10 4 0 6
5 11 10 11 6 0 10 -2 10 -4z m-37 -51 c-3 -9 -8 -14 -10 -11 -3 3 -2 9 2 15 9
16 15 13 8 -4z"/>
<path d="M7910 4120 c-9 -6 -10 -10 -3 -10 6 0 15 5 18 10 8 12 4 12 -15 0z"/>
<path d="M6930 4104 c0 -13 79 -44 85 -34 3 4 -7 13 -23 18 -15 5 -35 13 -44
17 -10 4 -18 3 -18 -1z"/>
<path d="M9947 4103 c-4 -3 -7 -13 -7 -22 1 -13 3 -13 11 2 11 19 8 33 -4 20z"/>
<path d="M10957 4094 c-10 -10 -9 -54 2 -54 5 0 11 6 14 13 6 16 -7 50 -16 41z"/>
<path d="M5932 4065 c0 -11 3 -29 8 -40 11 -25 11 1 0 35 -6 20 -8 21 -8 5z"/>
<path d="M6130 4071 c0 -5 5 -13 10 -16 6 -3 10 -2 10 4 0 5 -4 13 -10 16 -5
3 -10 2 -10 -4z"/>
<path d="M6242 3983 c0 -57 4 -100 9 -97 5 3 9 -2 9 -10 0 -9 5 -16 12 -16 9
0 9 -3 0 -12 -7 -7 -12 -23 -12 -38 0 -24 -19 -65 -21 -45 0 6 -7 -10 -14 -35
-14 -49 -13 -50 -20 41 -6 86 -17 162 -25 181 -7 18 -8 12 -5 -22 5 -43 5 -43
-6 -15 -13 34 -30 58 -36 51 -2 -2 0 -12 5 -23 16 -31 33 -118 26 -136 -4 -11
0 -19 11 -23 13 -5 15 -15 10 -48 -7 -48 -43 -153 -62 -181 -7 -11 -13 -32
-13 -47 0 -19 -12 -40 -38 -66 -71 -69 -71 -69 -8 -87 34 -10 60 -24 67 -36 9
-17 17 -19 57 -13 26 4 58 11 70 15 24 9 91 -14 93 -32 1 -5 3 -13 4 -19 1 -5
3 -14 4 -20 0 -5 8 -7 16 -4 37 15 39 -27 2 -66 -16 -18 -18 -26 -9 -41 16
-25 15 -30 -3 -23 -10 4 -13 2 -10 -7 3 -9 -7 -19 -25 -28 -17 -7 -29 -15 -27
-18 7 -7 58 22 85 47 16 15 21 28 17 43 -5 17 -4 18 4 8 16 -24 26 31 26 139
0 88 -3 100 -34 160 -18 36 -52 86 -76 111 -24 25 -50 60 -60 78 -16 31 -16
32 3 22 10 -5 24 -17 31 -25 8 -9 18 -13 24 -9 5 3 7 2 4 -4 -8 -13 77 -96 88
-86 4 5 5 2 1 -5 -4 -6 1 -24 11 -40 10 -15 30 -50 43 -79 14 -29 28 -52 33
-53 11 0 9 14 -9 56 -14 33 -14 37 -1 25 16 -13 33 -66 28 -90 -1 -7 1 -11 6
-8 4 3 9 -24 11 -59 2 -40 -1 -64 -7 -64 -6 0 -11 23 -11 53 0 28 -5 59 -11
67 -7 11 -8 1 -3 -32 8 -58 -9 -132 -47 -213 -22 -49 -36 -65 -73 -85 -25 -13
-44 -25 -43 -27 7 -6 77 19 77 27 0 6 5 9 12 7 7 -1 12 7 13 18 0 11 5 20 12
20 6 0 15 4 20 9 5 5 3 6 -4 2 -7 -4 -13 -3 -13 3 0 19 16 19 28 0 7 -11 8
-19 2 -19 -5 0 -10 -6 -10 -12 0 -7 -9 -24 -20 -38 -11 -14 -20 -29 -20 -34 0
-5 16 13 35 40 54 75 69 132 70 259 0 104 -2 113 -31 170 -42 79 -137 175
-253 255 -26 18 -28 46 -2 46 11 0 18 -3 15 -7 -2 -4 9 -15 24 -25 94 -61 228
-193 261 -257 51 -100 66 -260 35 -379 -8 -33 -13 -63 -10 -66 3 -3 6 2 6 11
0 11 8 17 23 17 26 0 67 38 67 61 0 8 6 24 14 34 13 19 15 17 21 -17 10 -53
-3 -165 -25 -215 -21 -49 -92 -128 -132 -149 -21 -11 -33 -12 -47 -4 -11 5
-28 10 -39 10 -11 0 -24 6 -30 13 -7 8 -25 11 -48 9 -32 -4 -39 -10 -55 -47
-26 -58 -79 -80 -177 -73 -96 7 -259 86 -234 114 4 4 1 4 -6 0 -31 -18 -212
116 -246 183 -16 30 -32 48 -100 111 -42 39 -45 40 -26 13 13 -18 27 -33 31
-33 4 0 17 -14 29 -30 16 -23 19 -34 11 -44 -8 -9 -7 -13 4 -13 8 0 12 4 9 9
-13 21 14 5 31 -19 41 -56 98 -113 141 -140 55 -35 55 -37 -13 -195 -20 -46
-46 -50 -68 -9 -14 28 -68 52 -82 37 -4 -3 1 -6 10 -6 9 0 18 -4 21 -9 4 -5 0
-8 -6 -6 -73 16 -76 18 -71 33 4 9 2 13 -4 9 -27 -17 -41 4 -41 62 1 32 -2 63
-6 69 -7 12 -83 4 -146 -14 -49 -15 -59 -12 -39 12 11 14 10 16 -11 12 -17 -2
-31 5 -43 20 -17 20 -18 30 -8 90 5 37 13 79 17 95 5 23 3 27 -13 27 -15 0
-20 7 -20 28 -1 15 -4 45 -8 67 -5 28 0 69 18 140 16 65 20 93 11 80 -8 -10
-14 -26 -14 -35 0 -19 -33 -150 -50 -196 -8 -23 -17 -31 -35 -31 -33 0 -48 42
-49 138 -1 68 -4 81 -25 103 -14 14 -32 26 -41 26 -17 0 -38 21 -59 63 -8 15
-18 27 -23 27 -4 0 -8 9 -8 19 0 11 -9 26 -20 34 -19 13 -18 15 20 32 23 10
45 26 50 34 8 14 14 13 54 -9 26 -13 49 -33 52 -42 3 -11 15 -18 32 -18 17 0
40 -14 66 -37 53 -51 34 -20 -28 45 -52 54 -69 64 -60 35 5 -15 4 -15 -4 -3
-8 10 -8 18 0 27 7 9 6 14 -3 17 -84 29 -185 58 -231 68 -31 6 -55 15 -52 20
3 4 -7 3 -21 -2 -29 -11 -75 -4 -75 12 0 5 -4 7 -8 4 -5 -3 -39 6 -77 20 -38
14 -106 30 -151 35 -75 9 -86 9 -124 -11 -56 -29 -83 -73 -75 -125 9 -60 11
-65 29 -128 23 -75 16 -104 -27 -115 -35 -9 -53 -3 -104 40 -37 31 -29 38 46
38 28 0 55 6 67 16 19 15 19 16 -1 8 -11 -4 -63 -11 -115 -15 -116 -9 -204
-34 -196 -55 3 -8 2 -13 -3 -10 -8 5 -19 -16 -34 -65 -7 -21 26 -92 61 -135
51 -63 72 -92 72 -103 0 -5 -9 -26 -21 -45 l-20 -35 21 -11 c11 -6 26 -8 32
-4 7 4 8 3 4 -4 -4 -7 -1 -12 8 -12 9 0 16 5 16 10 0 6 6 10 13 10 20 0 113
104 187 209 l65 92 62 -3 c33 -2 60 -4 60 -5 -1 -1 -19 -15 -39 -31 -52 -41
-114 -125 -149 -201 -16 -35 -29 -68 -29 -73 0 -6 -19 -47 -41 -91 -49 -96
-100 -237 -87 -237 5 0 7 -9 3 -19 -3 -11 -1 -22 5 -26 6 -4 10 4 10 19 0 41
21 125 35 139 20 20 45 74 45 97 0 12 4 19 9 15 5 -3 13 0 17 6 4 8 3 9 -4 5
-17 -10 -15 5 8 52 11 22 20 45 20 50 0 5 9 21 21 36 11 15 18 33 15 41 -3 8
0 14 7 12 7 -1 11 6 9 16 -4 20 95 147 114 147 7 0 33 15 57 34 l45 34 31 -34
c36 -39 78 -63 120 -68 23 -2 34 3 52 28 13 17 27 36 31 41 4 6 16 21 27 35
l19 24 74 -64 c120 -104 116 -92 62 -207 -25 -54 -47 -105 -48 -113 -1 -8 -6
-23 -11 -34 -16 -36 29 -166 78 -222 29 -34 113 -95 157 -115 36 -16 155 -20
178 -5 6 4 28 32 48 62 33 49 38 53 53 41 9 -8 39 -26 66 -40 28 -14 63 -39
79 -55 l28 -30 -20 -22 c-23 -25 -102 -202 -102 -228 0 -47 105 -135 197 -166
27 -9 59 -23 71 -32 22 -15 30 -44 13 -44 -11 0 -36 30 -25 30 5 0 2 5 -6 10
-19 12 -61 13 -79 1 -10 -6 0 -8 30 -5 40 5 42 4 26 -9 -17 -14 -16 -15 8 -21
14 -4 25 -11 25 -16 0 -6 8 -10 18 -10 9 0 44 -20 77 -45 33 -25 68 -48 77
-51 10 -3 18 -12 18 -20 0 -8 5 -15 10 -15 6 -1 14 -2 19 -3 6 0 15 -6 22 -13
9 -9 27 -4 80 23 38 20 69 40 69 45 0 5 15 17 33 26 62 34 167 117 168 132 0
12 3 10 9 -4 7 -19 8 -18 15 7 4 15 13 29 21 32 21 8 17 -18 -6 -39 -11 -10
-20 -25 -21 -34 0 -12 -3 -11 -9 4 l-9 20 -2 -20 c-1 -11 -2 -26 -2 -32 1 -7
-3 -11 -7 -8 -4 2 -13 -15 -19 -38 -16 -53 -99 -218 -142 -281 -23 -36 -46
-54 -83 -71 -32 -14 -80 -51 -128 -100 -43 -42 -78 -71 -78 -65 0 6 -5 8 -11
5 -6 -4 -8 -14 -5 -22 3 -8 1 -11 -4 -8 -6 3 -10 -1 -10 -9 0 -9 -6 -16 -13
-16 -15 0 -61 -48 -70 -73 -4 -11 -12 -15 -18 -11 -7 4 -9 3 -5 -4 3 -6 2 -14
-4 -17 -6 -4 -29 -36 -51 -71 -23 -35 -45 -62 -50 -58 -5 3 -9 -4 -9 -16 0
-14 -9 -24 -29 -31 -19 -7 -33 -21 -40 -39 -7 -21 -19 -32 -42 -38 -23 -5 -36
-16 -40 -33 -4 -13 -7 -19 -8 -13 -1 7 -12 14 -26 17 -20 3 -29 -1 -39 -22
-14 -25 -14 -25 -30 28 -9 29 -13 59 -9 65 3 6 2 7 -2 3 -19 -17 -107 339
-125 503 -16 143 -16 411 -1 485 29 138 40 163 85 187 16 9 18 7 13 -6 -4 -11
-3 -15 4 -11 6 4 8 13 6 19 -3 7 9 28 26 47 83 93 92 104 68 84 -14 -11 -56
-50 -93 -87 -38 -38 -71 -68 -73 -68 -2 0 10 39 26 87 16 48 25 83 20 78 -14
-15 -72 -183 -86 -250 -7 -33 -22 -103 -33 -155 -17 -77 -20 -109 -13 -170 7
-64 9 -69 11 -30 2 32 5 20 11 -45 19 -218 32 -324 45 -380 7 -33 14 -84 14
-114 0 -48 -20 -158 -37 -201 -4 -8 -7 -17 -8 -20 -1 -3 -6 -20 -10 -38 -4
-18 -12 -35 -16 -38 -5 -3 -9 -16 -9 -28 0 -13 -9 -35 -20 -49 -11 -14 -21
-40 -21 -59 -1 -24 -3 -27 -6 -10 -3 13 -11 26 -19 29 -16 6 -44 -19 -44 -41
0 -11 -6 -13 -28 -7 -27 8 -52 -5 -52 -29 0 -5 -13 -10 -30 -10 -28 0 -30 -3
-30 -35 0 -19 -4 -35 -10 -35 -5 0 -10 -18 -10 -41 0 -42 -17 -69 -44 -69 -13
0 -16 -12 -16 -60 0 -33 -4 -60 -10 -60 -5 0 -10 -9 -10 -20 0 -11 -4 -20 -10
-20 -5 0 -10 -11 -10 -25 0 -14 -3 -25 -7 -26 -10 -1 -32 -6 -61 -15 -18 -5
-24 -1 -37 29 -8 19 -25 48 -38 63 -14 16 -55 88 -92 159 -37 72 -72 135 -77
142 -19 25 -86 170 -96 208 -6 22 -13 76 -16 120 -7 83 -35 220 -43 211 -3 -3
-1 -33 5 -68 17 -103 24 -196 12 -173 -8 15 -9 11 -5 -20 14 -105 22 -231 15
-243 -9 -18 0 -63 11 -56 17 10 9 -112 -13 -201 -12 -49 -23 -91 -24 -93 0 -1
-14 5 -31 13 -61 30 -193 308 -193 405 0 25 -11 63 -29 98 -15 31 -31 74 -35
96 -7 38 -7 38 21 32 27 -7 71 -49 150 -143 19 -24 39 -43 44 -43 29 0 -21 93
-106 197 -82 101 -106 136 -100 151 3 8 0 10 -7 6 -7 -5 -9 -2 -5 9 4 10 2 14
-7 11 -7 -3 -19 8 -26 23 -8 15 -22 39 -31 53 -8 14 -33 79 -53 145 -47 149
-47 149 -41 100 2 -22 14 -67 26 -100 13 -37 24 -101 28 -167 6 -75 13 -115
26 -134 12 -19 19 -23 25 -14 6 10 9 9 14 -1 3 -8 3 -3 0 11 -4 14 -10 27 -14
30 -4 3 -6 13 -4 23 1 9 -1 15 -6 12 -9 -6 -7 -31 3 -41 4 -4 7 -12 7 -18 0
-18 -20 9 -26 35 -7 30 -8 44 -5 94 l2 40 13 -38 c8 -20 19 -44 26 -52 6 -8 9
-19 5 -24 -3 -6 -1 -19 5 -28 9 -15 10 -14 5 7 -5 23 -4 23 7 6 7 -10 23 -31
35 -46 12 -15 20 -30 16 -34 -3 -3 -1 -6 5 -6 7 0 12 -7 12 -16 0 -9 -6 -14
-12 -11 -7 2 -13 13 -12 24 1 11 -7 25 -18 32 -16 10 -20 8 -28 -14 -6 -15
-10 -47 -10 -73 0 -30 -3 -42 -9 -34 -15 24 -18 -6 -15 -158 l3 -145 -36 -85
c-19 -47 -40 -95 -46 -107 -7 -16 -7 -30 1 -48 15 -33 15 -35 -3 -35 -8 0 -15
-4 -15 -9 0 -11 -39 -21 -99 -27 -74 -7 -60 -14 30 -14 89 0 102 -4 107 -32 2
-14 -4 -18 -25 -18 -164 0 -365 -11 -438 -24 -81 -16 -308 -84 -337 -102 -7
-4 -21 -9 -32 -10 -37 -5 -81 -17 -86 -24 -6 -9 -155 -80 -167 -80 -4 0 -19 9
-33 20 -20 16 -22 20 -7 20 9 0 17 -4 17 -10 0 -5 14 -10 30 -10 17 0 30 4 30
9 0 5 14 11 31 15 18 3 28 10 24 17 -4 5 -1 10 6 8 29 -3 50 1 44 11 -3 5 9
14 27 19 23 6 27 10 13 11 -11 1 -23 2 -27 1 -5 0 -8 4 -8 10 0 7 -27 9 -76 8
-66 -3 -78 -6 -86 -24 -5 -11 -19 -25 -31 -30 -32 -15 -31 -62 2 -70 19 -5 22
-8 11 -15 -9 -6 -17 -5 -22 3 -5 8 -8 7 -8 -4 0 -11 -14 -20 -37 -27 -21 -5
-55 -17 -76 -26 -22 -10 -36 -12 -32 -7 3 6 1 11 -5 11 -6 0 -9 4 -6 9 3 5
-10 11 -29 14 -47 8 -64 27 -66 76 -2 26 -8 41 -16 41 -7 0 -13 11 -13 24 0
14 -7 31 -15 40 -8 8 -15 19 -15 25 0 17 -66 13 -84 -4 -8 -8 -22 -15 -31 -15
-18 0 -65 -43 -65 -60 0 -5 -9 -10 -21 -10 -29 0 -49 -24 -49 -59 0 -17 -4
-31 -10 -31 -11 0 -13 -46 -4 -113 l7 -46 321 2 321 3 103 37 c56 20 110 41
120 47 26 15 194 90 201 90 3 0 -7 -11 -24 -24 -16 -13 -36 -21 -44 -18 -9 3
-12 1 -7 -6 11 -18 -49 -50 -88 -46 -21 1 -41 -4 -53 -15 -10 -9 -30 -17 -44
-18 -14 -2 -54 -14 -90 -28 l-64 -25 123 2 c99 1 122 4 122 16 0 10 8 13 30
10 17 -3 33 -1 36 4 3 5 13 3 22 -4 13 -11 14 -11 7 2 -5 8 -10 23 -10 32 -2
26 34 23 45 -4 l9 -23 0 23 c1 27 21 30 21 2 0 -11 5 -20 11 -20 7 0 10 12 7
30 -4 26 -1 31 26 39 55 18 189 42 202 37 7 -3 14 -1 16 4 7 22 278 41 278 21
0 -5 -6 -16 -14 -23 -19 -20 -29 -55 -16 -63 5 -3 10 -1 10 4 0 6 6 10 13 8 6
-1 11 6 9 15 -2 11 2 16 11 13 7 -3 30 11 50 31 20 21 37 32 37 24 0 -7 19 5
43 26 23 22 59 52 80 68 l37 28 63 -16 c34 -10 78 -21 97 -26 19 -5 39 -15 45
-23 5 -7 15 -12 20 -10 6 2 9 -38 7 -112 -2 -64 1 -115 6 -115 5 0 12 75 15
168 6 164 30 321 63 420 8 24 15 87 16 145 1 56 3 86 5 66 3 -26 11 -40 33
-53 27 -16 34 -14 31 6 -4 24 17 0 39 -45 102 -208 167 -322 192 -336 16 -9
31 -24 34 -33 3 -10 10 -18 15 -18 5 0 9 -36 9 -80 0 -44 4 -80 9 -80 5 0 12
-36 16 -80 l7 -80 1622 1 c1357 0 1615 3 1585 14 -46 17 -103 46 -109 55 -3 5
-72 44 -155 88 -342 182 -345 184 -396 240 -58 63 -84 111 -99 179 -29 128
-59 187 -132 263 -39 40 -85 79 -102 87 -60 28 -80 42 -88 62 -9 25 -14 23
107 59 204 63 355 92 595 116 322 33 436 48 514 66 45 10 101 21 126 25 l45 5
28 -59 c16 -33 40 -73 53 -88 13 -15 43 -58 65 -95 23 -38 46 -68 51 -68 5 0
6 -4 3 -10 -3 -5 -2 -10 3 -10 5 0 42 -42 83 -92 40 -51 99 -122 131 -157 32
-35 55 -68 51 -74 -3 -5 -2 -7 4 -4 5 3 38 -23 74 -59 78 -80 274 -248 384
-329 44 -33 101 -76 128 -97 l47 -37 -33 6 c-30 4 -34 2 -50 -34 -9 -22 -17
-43 -17 -46 0 -4 43 -7 95 -7 104 0 121 11 55 37 -22 9 -40 20 -40 25 0 12 2
11 54 -18 25 -14 44 -30 41 -34 -3 -5 187 -9 421 -10 l427 -1 -8 23 c-16 52
-17 91 0 134 9 24 20 44 25 44 4 0 13 14 20 30 12 29 15 30 59 26 61 -6 96
-20 123 -51 12 -14 28 -25 35 -25 7 0 13 -9 13 -20 0 -11 3 -20 8 -20 9 0 32
-63 39 -107 l5 -33 264 0 264 0 0 454 0 454 -52 7 c-29 4 -73 17 -98 29 -93
46 -161 76 -175 76 -18 0 -135 59 -153 77 -7 7 -24 13 -37 13 -14 0 -29 8 -34
18 -5 9 -31 25 -58 35 -56 20 -100 57 -109 91 -4 17 -28 35 -92 67 -48 23
-106 60 -129 81 -24 21 -49 38 -56 38 -8 0 -36 27 -63 59 -27 33 -59 64 -72
70 -12 6 -28 15 -35 21 -7 6 -24 19 -39 31 -18 13 -29 33 -33 57 -10 60 -13
64 -33 53 -10 -6 -24 -6 -34 0 -10 6 -28 4 -50 -5 -27 -12 -37 -24 -49 -64
l-16 -49 29 -19 c46 -30 138 -143 138 -168 0 -13 -8 -34 -17 -47 -10 -13 -23
-33 -29 -44 -19 -35 -57 -31 -87 9 -15 19 -27 37 -27 40 0 3 -13 33 -30 67
-39 81 -41 113 -13 177 13 29 23 54 23 56 0 4 -185 -68 -235 -91 -59 -27 -384
-122 -585 -171 -273 -67 -270 -66 -270 -42 0 24 -3 24 -59 3 l-44 -17 -35 39
c-43 47 -64 37 225 105 120 28 281 69 358 92 77 22 156 45 175 50 49 14 55 23
23 36 -25 11 -26 11 -10 -2 16 -13 16 -14 -8 -20 -14 -4 -31 -4 -38 0 -7 4 -8
3 -4 -1 10 -11 -70 -35 -91 -28 -10 4 -13 2 -8 -5 4 -7 1 -12 -8 -12 -23 0
-46 11 -46 22 0 6 7 8 15 5 8 -4 17 -2 20 3 4 6 -8 10 -25 10 -27 0 -30 -2
-20 -19 5 -11 13 -21 17 -23 5 -3 1 -3 -7 0 -48 14 -50 14 -45 0 6 -16 -4 -19
-295 -94 -74 -19 -178 -43 -230 -54 -52 -11 -111 -24 -131 -29 l-36 -8 -31 66
c-50 108 -69 155 -77 189 -5 27 -4 32 12 32 17 0 51 55 41 66 -8 8 -68 -18
-68 -29 -2 -51 -80 191 -114 350 -44 209 -51 285 -50 543 0 248 11 347 59 552
7 32 10 58 5 58 -5 0 -12 -19 -16 -42 -4 -24 -9 -37 -11 -30 -3 6 -12 12 -21
11 -11 0 -12 -3 -5 -6 10 -3 10 -8 -1 -19 -20 -19 -44 -18 -49 4 -5 19 -2 112
5 157 3 17 3 22 1 12 -2 -9 -9 -14 -15 -11 -6 4 -8 -1 -3 -16 5 -17 4 -21 -5
-15 -8 5 -11 4 -7 -2 4 -6 -2 -28 -12 -49 -19 -38 -22 -52 -36 -144 -4 -25
-14 -83 -23 -130 -29 -156 -21 -602 14 -785 2 -11 9 -47 15 -80 21 -122 103
-393 161 -534 32 -81 61 -153 64 -163 6 -18 -9 -22 -216 -58 -220 -37 -308
-50 -345 -50 -58 0 -438 -58 -528 -80 -45 -12 -124 -35 -175 -51 -51 -17 -95
-29 -96 -28 -7 8 -114 267 -125 302 -15 46 -23 48 -14 5 7 -37 25 -84 81 -218
23 -52 40 -96 39 -96 -3 -3 -370 -188 -382 -193 -5 -2 1 6 15 18 17 15 21 24
13 27 -7 3 -13 20 -13 38 0 33 -48 108 -137 215 -20 24 -57 76 -82 115 -25 39
-48 73 -52 76 -14 10 -57 161 -52 181 5 16 8 18 15 7 7 -9 8 -8 4 5 -3 10 0
28 6 40 7 12 13 31 13 42 0 13 6 19 18 17 9 -2 17 1 17 6 0 5 15 29 34 54 19
24 36 57 38 74 1 16 9 35 16 42 6 7 12 19 12 26 0 7 13 25 29 40 18 17 27 35
24 45 -4 13 -3 13 7 -1 15 -25 44 -22 59 5 6 12 25 31 41 42 17 11 30 25 30
30 0 6 10 16 22 24 l22 14 -23 18 c-23 19 -23 19 -2 19 84 0 262 147 276 228
11 65 -3 115 -45 172 l-39 52 24 47 c42 79 49 86 85 71 27 -11 33 -10 52 6 11
11 36 50 54 89 30 62 34 78 34 155 0 64 -5 94 -19 120 -10 19 -23 51 -30 71
-17 52 -47 82 -71 69 -24 -13 -33 -13 -25 0 3 6 -1 7 -10 3 -12 -4 -13 -8 -5
-13 8 -5 9 -10 2 -14 -6 -3 -22 18 -36 48 -26 54 -26 92 0 82 8 -3 13 -2 12 2
-1 4 8 27 19 51 18 36 19 49 10 70 -6 14 -14 28 -18 31 -3 3 -14 21 -24 40
-32 65 -82 107 -162 136 -28 10 -32 9 -43 -12 -14 -26 -53 -36 -89 -22 -48 18
-61 38 -61 90 0 78 -18 101 -100 132 -39 14 -88 26 -109 26 l-38 0 -10 93 -10
92 -1 -102z m-1585 -278 c84 -26 114 -45 69 -45 -14 0 -28 5 -31 10 -3 6 -18
10 -33 11 -33 0 -136 47 -108 48 11 1 57 -10 103 -24z m1830 -119 c29 -32 61
-70 71 -85 9 -14 27 -36 39 -48 13 -12 23 -26 23 -31 0 -14 42 -97 53 -103 5
-4 6 -12 2 -19 -5 -8 -14 0 -25 26 -11 23 -20 32 -22 23 -3 -8 -3 -2 -1 14 5
29 -13 38 -20 10 -2 -10 -4 -4 -4 12 0 42 -77 149 -166 231 -50 45 -62 60 -38
48 18 -11 58 -45 88 -78z m-233 34 c-6 -6 -10 -3 -10 10 0 13 4 16 10 10 7 -7
7 -13 0 -20z m123 -145 c0 -8 -4 -12 -9 -9 -4 3 -8 9 -8 15 0 5 4 9 8 9 5 0 9
-7 9 -15z m103 6 c0 -17 -18 -21 -24 -6 -3 9 0 15 9 15 8 0 15 -4 15 -9z
m-1530 -141 c6 -11 8 -20 6 -20 -3 0 -10 9 -16 20 -6 11 -8 20 -6 20 3 0 10
-9 16 -20z m-905 -72 c7 -27 11 -48 9 -48 -12 0 -34 65 -33 97 1 22 3 30 6 18
3 -11 11 -41 18 -67z m950 41 c11 -17 -1 -21 -15 -4 -8 9 -8 15 -2 15 6 0 14
-5 17 -11z m1432 -56 c-2 -16 -4 -5 -4 22 0 28 2 40 4 28 2 -13 2 -35 0 -50z
m-1356 13 c8 4 9 3 5 -4 -6 -10 -22 -10 -54 -3 -2 1 0 6 3 11 5 8 11 7 20 0 8
-7 20 -8 26 -4z m1616 -48 c-3 -8 -6 -5 -6 6 -1 11 2 17 5 13 3 -3 4 -12 1
-19z m279 9 c8 3 14 1 14 -4 0 -6 -12 -9 -27 -7 -36 3 -35 2 -27 15 4 7 10 7
16 1 6 -6 17 -8 24 -5z m-41 -38 c-8 -12 -43 -6 -38 7 2 6 13 10 24 7 10 -3
16 -9 14 -14z m1192 1 c1 -11 -2 -20 -8 -20 -10 0 -12 23 -2 33 9 9 9 10 10
-13z m-1107 -47 c0 -7 -4 -13 -10 -13 -5 0 -9 3 -9 8 1 4 1 15 0 25 -1 21 -21
23 -21 2 0 -8 -4 -15 -10 -15 -16 0 -12 22 8 36 14 11 19 9 29 -9 7 -12 12
-28 13 -34z m-491 24 c8 -10 7 -14 -4 -14 -8 0 -15 6 -15 14 0 7 2 13 4 13 2
0 9 -6 15 -13z m108 -59 c-3 -8 -6 -5 -6 6 -1 11 2 17 5 13 3 -3 4 -12 1 -19z
m1580 -20 c-3 -8 -6 -5 -6 6 -1 11 2 17 5 13 3 -3 4 -12 1 -19z m-1557 -14 c0
-8 -4 -12 -10 -9 -5 3 -10 1 -10 -6 0 -7 -2 -10 -5 -7 -8 7 5 38 16 38 5 0 9
-7 9 -16z m-2487 -36 c7 -25 1 -38 -18 -38 -21 0 -27 17 -13 40 16 26 24 25
31 -2z m4004 -280 c-3 -7 -5 -2 -5 12 0 14 2 19 5 13 2 -7 2 -19 0 -25z
m-1984 -132 c18 0 33 -35 24 -58 -3 -7 -6 -1 -6 15 -1 21 -6 27 -24 27 -13 0
-32 7 -43 16 -18 14 -18 15 6 8 14 -4 33 -8 43 -8z m236 -382 c30 -13 51 -27
48 -31 -4 -3 -14 0 -23 7 -13 12 -17 11 -24 0 -5 -8 -12 -11 -17 -7 -4 5 -2
12 6 16 10 6 8 10 -6 16 -32 13 -122 14 -129 2 -4 -7 -4 -9 1 -5 4 4 14 1 21
-7 19 -18 18 -31 -1 -15 -13 11 -15 4 -15 -54 0 -36 -4 -66 -9 -66 -5 0 -9 38
-8 85 1 67 4 85 16 89 27 8 84 -4 140 -30z m94 -77 c4 3 7 1 7 -5 0 -22 -19
-22 -31 0 -11 20 -10 21 3 11 8 -7 18 -10 21 -6z m-39 -80 c-9 -26 -20 -47
-26 -47 -5 0 -6 -10 -3 -22 5 -18 4 -20 -4 -8 -9 12 -11 11 -11 -7 0 -13 -5
-23 -11 -23 -6 0 -9 4 -7 8 13 34 73 150 75 148 2 -1 -4 -24 -13 -49z m-97 17
c-3 -3 -12 -4 -19 -1 -8 3 -5 6 6 6 11 1 17 -2 13 -5z m-422 -39 c58 -17 231
-18 270 -1 19 8 19 8 4 -8 -13 -14 -35 -18 -120 -18 -58 0 -117 4 -132 7 -16
4 -33 2 -41 -4 -9 -8 -16 -8 -20 -2 -4 5 -1 11 6 14 7 2 2 2 -10 0 -26 -4 -55
14 -46 29 3 5 12 7 20 4 8 -3 39 -13 69 -21z m428 -140 c-3 -9 -8 -14 -10 -11
-3 3 -2 9 2 15 9 16 15 13 8 -4z m-22 -48 c-10 -9 -11 -8 -5 6 3 10 9 15 12
12 3 -3 0 -11 -7 -18z m1859 -121 c0 -12 5 -27 10 -32 7 -7 7 -20 2 -34 -8
-23 -8 -23 -20 6 -13 31 -42 126 -42 134 1 17 50 -55 50 -74z m114 -41 c13
-31 14 -37 3 -25 -8 8 -18 28 -22 45 -9 38 -2 31 19 -20z m-2100 -50 c-4 -8
-11 -15 -16 -15 -6 0 -5 6 2 15 7 8 14 15 16 15 2 0 1 -7 -2 -15z m2047 -73
c0 -10 3 -12 6 -4 2 6 9 12 14 12 5 0 2 -11 -7 -25 -16 -25 -16 -26 20 -60 38
-35 47 -41 45 -27 -4 24 4 40 25 50 23 10 25 8 45 -40 21 -51 28 -85 13 -60
-5 7 -25 15 -44 18 -27 5 -40 2 -54 -12 -18 -19 -19 -18 -39 21 -22 41 -59
133 -70 173 -6 22 -6 22 19 -3 14 -14 26 -34 27 -43z m-2098 -47 c-3 -9 -8
-14 -10 -11 -3 3 -2 9 2 15 9 16 15 13 8 -4z m-17 -127 c-7 -46 -30 -130 -52
-190 -8 -21 -11 -45 -7 -54 5 -13 3 -15 -8 -9 -8 5 -4 -3 8 -16 14 -16 27 -53
37 -110 25 -133 22 -163 -24 -244 -22 -38 -40 -64 -40 -57 0 8 8 26 19 40 10
15 23 38 30 52 l12 25 -17 -22 c-19 -26 -44 -30 -44 -8 0 8 -9 15 -20 15 -13
0 -20 7 -20 20 0 13 -7 20 -20 20 -13 0 -20 7 -20 20 0 13 -7 20 -20 20 -18 0
-20 7 -20 59 0 33 -4 62 -9 65 -11 7 -4 90 9 94 5 2 10 10 10 18 0 48 141 271
162 258 7 -5 9 -2 5 8 -3 9 0 21 6 27 22 22 30 11 23 -31z m2229 2 c-3 -5 -12
-10 -18 -10 -7 0 -6 4 3 10 19 12 23 12 15 0z m717 -9 c-7 -4 -12 -14 -10 -21
2 -8 -6 -16 -17 -18 -11 -2 -29 -12 -40 -22 -11 -9 -28 -20 -37 -23 -10 -4
-18 -14 -18 -23 0 -10 -7 -25 -15 -34 -21 -23 -10 -45 30 -64 19 -9 47 -27 62
-40 15 -12 36 -25 46 -29 9 -4 21 -17 26 -30 5 -13 15 -30 23 -38 7 -8 22 -31
33 -51 11 -21 23 -38 26 -38 4 0 10 -16 14 -36 11 -60 26 -84 54 -86 14 0 31
-2 38 -2 6 -1 20 -9 30 -19 11 -9 32 -17 47 -17 16 0 36 -10 50 -25 13 -14 31
-25 39 -25 23 0 99 -31 115 -47 9 -8 11 -20 6 -31 -11 -25 -13 -72 -3 -72 5 0
6 -13 3 -30 -4 -19 -2 -30 5 -30 6 0 11 -13 11 -30 0 -16 5 -30 10 -30 6 0 10
-9 10 -21 0 -19 4 -21 43 -15 50 7 75 11 142 26 35 7 58 7 75 0 14 -6 35 -12
47 -14 36 -7 93 -75 93 -111 0 -7 7 -18 15 -25 8 -7 13 -16 10 -20 -3 -5 -1
-11 5 -15 5 -3 8 -24 7 -45 -2 -22 1 -42 7 -44 20 -8 -19 -27 -46 -22 -21 4
-31 -1 -45 -20 -14 -19 -29 -26 -58 -27 -22 -1 -43 -6 -46 -11 -4 -4 -20 -10
-37 -12 -23 -3 -39 4 -68 31 -40 37 -74 46 -74 19 0 -12 -7 -15 -25 -12 -21 4
-23 3 -13 -9 6 -8 17 -12 25 -9 8 3 11 1 8 -4 -4 -6 9 -17 27 -25 18 -8 27
-14 19 -15 -15 0 -209 114 -283 167 -26 19 -45 40 -41 45 3 7 1 8 -6 4 -20
-13 -226 153 -392 314 -108 105 -261 291 -306 372 -10 18 -24 37 -30 41 -7 4
-13 12 -13 17 0 8 -59 104 -78 125 -19 22 -64 106 -60 111 3 2 81 20 174 39
93 20 216 46 274 59 122 27 129 28 112 17z m-672 -19 c0 -5 -10 -8 -22 -8 -17
1 -22 -4 -20 -16 2 -10 -3 -18 -11 -18 -17 0 -42 -54 -32 -69 3 -6 1 -11 -4
-11 -6 0 -11 10 -11 23 0 17 -2 19 -10 7 -8 -12 -15 -9 -45 20 -19 19 -34 39
-32 45 7 21 187 47 187 27z m-2250 -42 c0 -11 -4 -20 -9 -20 -5 0 -7 9 -4 20
3 11 7 20 9 20 2 0 4 -9 4 -20z m1683 -47 c-7 -2 -19 -2 -25 0 -7 3 -2 5 12 5
14 0 19 -2 13 -5z m-108 -21 c-3 -3 -11 0 -18 7 -9 10 -8 11 6 5 10 -3 15 -9
12 -12z m48 11 c-7 -2 -19 -2 -25 0 -7 3 -2 5 12 5 14 0 19 -2 13 -5z m-156
-9 c-3 -3 -12 -4 -19 -1 -8 3 -5 6 6 6 11 1 17 -2 13 -5z m-250 -40 c-3 -3
-12 -4 -19 -1 -8 3 -5 6 6 6 11 1 17 -2 13 -5z m-2030 -56 c-3 -7 -5 -2 -5 12
0 14 2 19 5 13 2 -7 2 -19 0 -25z m847 -138 c98 -273 90 -242 70 -257 -26 -19
-70 -16 -79 5 -7 16 -19 75 -51 247 -8 44 -19 84 -24 89 -14 14 -12 60 2 74
17 17 23 4 82 -158z m1604 143 c-10 -2 -26 -2 -35 0 -10 3 -2 5 17 5 19 0 27
-2 18 -5z m-241 -9 c-3 -3 -12 -4 -19 -1 -8 3 -5 6 6 6 11 1 17 -2 13 -5z
m-3464 -24 c-3 -11 -7 -20 -9 -20 -2 0 -4 9 -4 20 0 11 4 20 9 20 5 0 7 -9 4
-20z m3530 13 c-7 -2 -19 -2 -25 0 -7 3 -2 5 12 5 14 0 19 -2 13 -5z m1006
-80 c22 -34 36 -65 31 -68 -6 -4 -10 -2 -10 2 0 5 -7 18 -16 29 -8 10 -13 13
-9 7 3 -7 4 -13 1 -13 -6 0 -66 118 -66 129 0 12 31 -27 69 -86z m-3248 11 c5
-15 8 -29 5 -31 -2 -2 -8 10 -14 26 -13 38 -5 41 9 5z m-28 -104 c4 -21 3 -29
-2 -20 -5 8 -11 32 -15 53 -5 24 -11 35 -18 31 -8 -5 -9 -1 -5 10 4 10 7 25 8
34 1 18 21 -51 32 -108z m857 100 c0 -11 -2 -20 -4 -20 -2 0 -6 9 -9 20 -3 11
-1 20 4 20 5 0 9 -9 9 -20z m-811 -123 c6 -6 11 -15 11 -20 0 -5 -7 -2 -15 7
-18 17 -35 60 -35 84 1 9 7 0 15 -22 7 -21 18 -43 24 -49z m20 28 c0 -5 -6 1
-14 15 -8 14 -14 30 -14 35 0 6 6 -1 14 -15 8 -14 14 -29 14 -35z m819 -6 c-3
-8 -7 -3 -11 10 -4 17 -3 21 5 13 5 -5 8 -16 6 -23z m722 -19 c6 -11 8 -25 4
-31 -4 -6 -1 -15 6 -19 8 -5 4 -8 -12 -7 -15 1 -24 7 -21 14 6 16 -29 33 -58
27 -14 -3 -7 3 16 15 51 25 52 25 65 1z m-1507 -3 c4 3 7 -5 7 -19 0 -15 19
-62 41 -105 23 -43 36 -73 30 -68 -17 17 -113 209 -98 197 8 -7 17 -9 20 -5z
m38 -40 c-10 -9 -11 -8 -5 6 3 10 9 15 12 12 3 -3 0 -11 -7 -18z m1339 3 c-24
-19 -40 -25 -40 -15 0 5 51 34 60 34 3 0 -6 -8 -20 -19z m-340 -5 c-7 -8 -17
-15 -23 -15 -6 0 -2 7 9 15 25 19 30 19 14 0z m514 -1 c3 -8 2 -12 -4 -9 -6 3
-10 10 -10 16 0 14 7 11 14 -7z m3060 -10 c9 -3 16 -12 16 -19 0 -19 -40 -15
-69 7 l-24 18 31 0 c17 0 37 -3 46 -6z m-4624 -25 c0 -5 -4 -9 -10 -9 -5 0
-10 7 -10 16 0 8 5 12 10 9 6 -3 10 -10 10 -16z m1010 16 c0 -2 -10 -10 -22
-16 -21 -11 -22 -11 -9 4 13 16 31 23 31 12z m305 -20 c-16 -13 -37 -24 -46
-25 -9 0 -22 -7 -29 -15 -7 -8 -20 -15 -29 -16 -12 0 -11 -2 4 -9 16 -7 13 -9
-17 -9 -21 -1 -38 1 -38 3 0 2 26 16 58 31 31 16 68 37 81 47 36 27 50 22 16
-7z m320 -13 c-3 -3 -11 0 -18 7 -9 10 -8 11 6 5 10 -3 15 -9 12 -12z m-1605
-46 c0 -12 -5 -7 -19 24 -11 24 -11 24 3 6 9 -11 16 -24 16 -30z m860 10 c0
-2 -8 -10 -17 -17 -16 -13 -17 -12 -4 4 13 16 21 21 21 13z m-531 -13 c0 -5
-4 -17 -9 -28 -8 -18 -9 -17 -9 8 -1 15 4 27 9 27 6 0 10 -3 9 -7z m1331 -8
c14 -2 28 -3 32 -4 4 -1 9 -9 13 -20 7 -24 40 -62 48 -55 3 3 8 0 13 -7 4 -8
3 -10 -4 -5 -18 11 -15 1 18 -62 36 -70 49 -139 27 -139 -8 0 -13 6 -10 14 3
7 -2 13 -11 13 -10 0 -30 7 -46 15 -19 10 -30 11 -30 5 0 -6 -4 -8 -10 -5 -13
8 -13 52 0 60 12 8 -26 85 -51 103 -20 14 -49 67 -49 90 0 10 6 12 18 7 9 -4
28 -9 42 -10z m-1950 -26 c0 -5 -4 -9 -10 -9 -5 0 -10 7 -10 16 0 8 5 12 10 9
6 -3 10 -10 10 -16z m1000 -53 c0 -39 -6 -31 -14 19 -5 29 -4 36 3 25 6 -8 11
-28 11 -44z m3740 24 c0 -16 5 -30 10 -30 6 0 10 -9 10 -20 0 -11 5 -20 10
-20 18 0 11 -32 -11 -51 -19 -16 -24 -17 -49 -4 -15 8 -47 18 -71 21 -24 4
-49 13 -56 20 -15 15 -17 54 -3 54 6 0 10 9 10 20 0 16 7 20 30 20 17 0 30 5
30 10 0 6 20 10 45 10 43 0 45 -1 45 -30z m-4352 -36 c-4 -3 -12 5 -18 18 -12
22 -12 22 6 6 10 -10 15 -20 12 -24z m667 26 c-3 -5 -12 -10 -18 -10 -7 0 -6
4 3 10 19 12 23 12 15 0z m596 -19 c8 -10 25 -22 38 -26 13 -4 20 -12 18 -20
-3 -7 0 -12 6 -12 36 1 47 -8 70 -55 14 -28 23 -56 20 -61 -3 -5 -9 -3 -14 4
-12 21 -259 50 -259 30 0 -6 -13 -8 -32 -4 -18 3 -50 7 -70 10 -42 6 -53 31
-18 40 11 3 20 12 20 19 0 8 9 14 20 14 11 0 20 4 20 8 0 5 20 19 45 32 25 13
51 30 57 37 15 18 57 9 79 -16z m-332 16 c-2 -2 -20 -14 -39 -26 l-35 -23 30
26 c17 14 34 26 39 26 5 0 7 -1 5 -3z m-899 -52 c14 -19 14 -19 -2 -6 -10 7
-18 18 -18 24 0 6 1 8 3 6 1 -2 9 -13 17 -24z m352 -17 c-7 -7 -12 -8 -12 -2
0 14 12 26 19 19 2 -3 -1 -11 -7 -17z m-352 -58 c11 -22 18 -40 15 -40 -2 0
-14 18 -25 40 -11 22 -18 40 -15 40 2 0 14 -18 25 -40z m-1393 -38 c25 -20 47
-31 54 -26 7 4 9 3 6 -3 -4 -6 0 -14 9 -17 9 -4 14 -9 11 -12 -3 -3 -18 3 -34
13 -27 18 -42 29 -93 73 -39 33 0 11 47 -28z m1703 23 c0 -8 -4 -15 -9 -15
-13 0 -22 16 -14 24 11 11 23 6 23 -9z m645 -15 c-3 -5 -10 -10 -16 -10 -5 0
-9 5 -9 10 0 6 7 10 16 10 8 0 12 -4 9 -10z m-675 -3 c0 -2 -10 -12 -21 -23
-22 -19 -22 -19 -8 4 12 19 29 30 29 19z m-1732 -32 c-3 -3 -9 2 -12 12 -6 14
-5 15 5 6 7 -7 10 -15 7 -18z m2829 -37 c-3 -8 -6 -5 -6 6 -1 11 2 17 5 13 3
-3 4 -12 1 -19z m330 -30 c-3 -8 -6 -5 -6 6 -1 11 2 17 5 13 3 -3 4 -12 1 -19z
m-1107 -4 c0 -2 -9 -4 -21 -4 -11 0 -18 4 -14 10 5 8 35 3 35 -6z m-2215 -3
c-3 -5 3 -12 12 -14 10 -3 3 -5 -16 -6 -29 -1 -32 1 -21 14 13 16 35 21 25 6z
m2285 -5 c0 -3 -4 -8 -10 -11 -5 -3 -10 -1 -10 4 0 6 5 11 10 11 6 0 10 -2 10
-4z m1084 -55 c3 -5 -2 -15 -12 -22 -15 -12 -16 -12 -5 2 7 9 10 19 6 22 -3 4
-4 7 0 7 3 0 8 -4 11 -9z m-2977 -73 c-2 -13 -4 -3 -4 22 0 25 2 35 4 23 2
-13 2 -33 0 -45z m1373 42 c6 -11 8 -20 6 -20 -3 0 -10 9 -16 20 -6 11 -8 20
-6 20 3 0 10 -9 16 -20z m4539 -31 c0 8 4 12 7 9 3 -4 0 -17 -7 -29 -9 -17 -9
-24 0 -27 27 -9 -6 -56 -35 -50 -23 4 -43 39 -26 45 6 3 12 17 12 32 0 15 8
37 18 49 l17 21 6 -32 c4 -18 7 -26 8 -18z m-3576 -26 c-7 -2 -19 -2 -25 0 -7
3 -2 5 12 5 14 0 19 -2 13 -5z m-2796 -9 c-3 -3 -12 -4 -19 -1 -8 3 -5 6 6 6
11 1 17 -2 13 -5z m2850 0 c-3 -3 -12 -4 -19 -1 -8 3 -5 6 6 6 11 1 17 -2 13
-5z m-2697 -33 c0 -5 -8 -15 -17 -22 -17 -13 -17 -13 -3 5 15 19 12 19 -130
14 -80 -3 -129 -2 -110 2 51 11 260 11 260 1z m2865 -1 c3 -5 2 -10 -4 -10 -5
0 -13 5 -16 10 -3 6 -2 10 4 10 5 0 13 -4 16 -10z m-2948 -16 c-3 -3 -12 -4
-19 -1 -8 3 -5 6 6 6 11 1 17 -2 13 -5z m-490 -60 c-3 -3 -12 -4 -19 -1 -8 3
-5 6 6 6 11 1 17 -2 13 -5z m-906 -175 c-41 -16 -81 -28 -90 -26 -10 3 -8 5 7
6 12 0 22 6 22 12 0 5 5 7 10 4 6 -4 16 -2 23 3 15 12 67 30 87 31 8 0 -18
-14 -59 -30z m119 27 c0 -2 -7 -7 -16 -10 -8 -3 -12 -2 -9 4 6 10 25 14 25 6z
m7089 -10 c10 -12 8 -13 -9 -9 -25 7 -37 23 -17 23 8 0 20 -6 26 -14z m-7281
-3 c-10 -2 -26 -2 -35 0 -10 3 -2 5 17 5 19 0 27 -2 18 -5z m142 -13 c-8 -5
-19 -10 -25 -10 -5 0 -3 5 5 10 8 5 20 10 25 10 6 0 3 -5 -5 -10z m7205 -28
c-3 -3 -11 0 -18 7 -9 10 -8 11 6 5 10 -3 15 -9 12 -12z"/>
<path d="M5966 1061 c-4 -7 -5 -15 -2 -18 9 -9 19 4 14 18 -4 11 -6 11 -12 0z"/>
<path d="M6122 1030 c0 -14 2 -19 5 -12 2 6 2 18 0 25 -3 6 -5 1 -5 -13z"/>
<path d="M6136 954 c-9 -23 -7 -67 4 -84 7 -11 9 2 9 43 -2 61 -3 66 -13 41z"/>
<path d="M9045 1380 c-25 -11 1 -11 35 0 20 6 21 8 5 8 -11 0 -29 -3 -40 -8z"/>
<path d="M9642 194 c-7 -8 -8 -14 -3 -14 10 0 25 19 20 25 -2 1 -10 -3 -17
-11z"/>
<path d="M6964 968 c3 -15 26 -23 26 -8 0 6 -4 9 -9 6 -5 -4 -12 -1 -14 4 -3
6 -4 5 -3 -2z"/>
<path d="M9955 4050 c3 -5 8 -10 11 -10 2 0 4 5 4 10 0 6 -5 10 -11 10 -5 0
-7 -4 -4 -10z"/>
<path d="M9640 4040 c0 -5 5 -10 11 -10 5 0 7 5 4 10 -3 6 -8 10 -11 10 -2 0
-4 -4 -4 -10z"/>
<path d="M7104 4028 c10 -6 22 -6 26 -2 5 5 -3 10 -18 11 -22 1 -24 0 -8 -9z"/>
<path d="M7150 4021 c0 -5 7 -12 16 -15 14 -5 15 -4 4 9 -14 17 -20 19 -20 6z"/>
<path d="M6120 4002 c6 -13 14 -21 18 -18 3 4 -2 14 -12 24 -18 16 -18 16 -6
-6z"/>
<path d="M6157 3999 c4 -13 8 -18 11 -10 2 7 -1 18 -6 23 -8 8 -9 4 -5 -13z"/>
<path d="M5950 3991 c0 -5 5 -13 10 -16 6 -3 10 -2 10 4 0 5 -4 13 -10 16 -5
3 -10 2 -10 -4z"/>
<path d="M6754 3965 c4 -11 25 -65 45 -120 21 -55 52 -127 69 -160 35 -70 109
-158 124 -148 6 3 8 1 5 -4 -9 -14 10 -27 62 -42 23 -7 50 -15 60 -18 12 -5
13 -3 5 6 -6 7 -19 13 -27 15 -28 4 -96 65 -132 119 -19 28 -35 47 -35 42 0
-6 12 -27 26 -48 14 -21 23 -43 20 -50 -2 -7 -5 -5 -5 5 -1 9 -5 18 -10 20
-35 12 -140 219 -170 334 -6 23 -19 48 -28 55 -15 12 -16 12 -9 -6z"/>
<path d="M11290 3968 c0 -9 -6 -19 -12 -21 -10 -4 -10 -6 0 -6 14 -1 28 26 18
36 -3 4 -6 -1 -6 -9z"/>
<path d="M5979 3940 c-13 -10 -19 -19 -13 -20 7 0 22 9 35 20 13 10 19 19 13
20 -7 0 -22 -9 -35 -20z"/>
<path d="M7220 3953 c0 -6 9 -18 20 -26 11 -8 17 -16 14 -20 -3 -3 1 -16 9
-29 9 -12 18 -41 22 -63 3 -22 9 -53 12 -69 l5 -29 -58 8 c-33 4 -67 14 -76
22 -9 8 -22 12 -29 7 -7 -4 -10 -3 -6 3 6 10 -159 101 -168 91 -3 -3 29 -24
72 -47 72 -39 73 -42 11 -25 -43 12 -12 -6 55 -31 37 -14 80 -25 96 -25 24 0
34 -8 55 -46 14 -26 31 -65 38 -88 19 -66 23 -60 21 29 l-2 84 27 4 27 4 -27
2 c-22 1 -28 6 -27 24 4 62 -42 220 -58 203 -3 -3 -12 2 -19 12 -8 9 -14 12
-14 5z m79 -295 c-1 -41 -1 -42 -12 -17 -7 14 -18 33 -26 43 -12 14 -10 16 13
16 24 0 26 -3 25 -42z"/>
<path d="M10167 3943 c-4 -3 -7 -11 -7 -17 0 -6 5 -5 12 2 6 6 9 14 7 17 -3 3
-9 2 -12 -2z"/>
<path d="M10255 3923 c33 -2 76 -6 95 -9 28 -5 31 -7 17 -15 -9 -6 -17 -14
-17 -19 0 -6 -10 -20 -22 -32 l-22 -22 39 -12 c22 -7 62 -21 88 -33 62 -27 69
-26 32 3 -16 13 -35 21 -42 19 -7 -3 -13 0 -13 6 0 6 -6 9 -12 7 -7 -1 -10 -1
-5 1 4 3 8 19 8 36 l1 32 8 -30 8 -30 1 34 c1 31 -1 33 -26 27 -21 -5 -24 -4
-13 4 8 5 26 10 40 11 62 2 -82 28 -150 27 -70 -2 -71 -2 -15 -5z"/>
<path d="M11240 3920 c-13 -8 -12 -10 3 -10 9 0 17 5 17 10 0 12 -1 12 -20 0z"/>
<path d="M7040 3912 c0 -19 81 -112 98 -112 2 0 -10 16 -28 36 -17 20 -36 47
-42 60 -11 23 -28 33 -28 16z"/>
<path d="M5900 3895 c-9 -10 -9 -15 -1 -15 6 0 11 4 11 9 0 5 8 12 18 14 14 4
14 5 1 6 -9 0 -22 -6 -29 -14z"/>
<path d="M11230 3890 c0 -5 5 -10 11 -10 5 0 7 5 4 10 -3 6 -8 10 -11 10 -2 0
-4 -4 -4 -10z"/>
<path d="M7112 3858 c13 -17 35 -39 49 -47 14 -9 5 4 -20 32 -52 54 -65 61
-29 15z"/>
<path d="M5768 3865 c-73 -14 -88 -27 -22 -18 67 9 100 18 89 25 -6 3 -36 0
-67 -7z"/>
<path d="M5255 3850 c-32 -6 -24 -7 40 -7 44 1 96 -3 115 -7 24 -5 32 -5 25 2
-14 14 -131 22 -180 12z"/>
<path d="M10600 3846 c0 -2 19 -15 43 -29 68 -41 145 -115 198 -190 27 -39 49
-66 49 -61 0 19 -77 122 -127 171 -29 28 -49 54 -45 58 4 5 1 5 -5 1 -7 -4
-32 6 -57 23 -43 30 -56 36 -56 27z"/>
<path d="M5498 3833 c7 -3 16 -2 19 1 4 3 -2 6 -13 5 -11 0 -14 -3 -6 -6z"/>
<path d="M5560 3830 c0 -6 21 -8 58 -4 77 9 78 14 4 14 -35 0 -62 -4 -62 -10z"/>
<path d="M10189 3838 c-7 -24 -5 -36 6 -32 20 8 27 34 10 34 -8 0 -15 -1 -16
-2z"/>
<path d="M10286 3813 c5 -20 1 -23 -28 -24 -20 -1 -9 -5 27 -9 33 -4 74 -10
90 -14 l30 -6 -30 14 c-16 9 -39 15 -51 16 -12 0 -26 10 -33 23 l-11 22 6 -22z"/>
<path d="M10202 3770 c7 -10 14 -18 15 -16 6 6 -9 36 -18 36 -5 0 -4 -9 3 -20z"/>
<path d="M6156 3755 c-3 -9 -6 -22 -5 -28 0 -7 5 -1 10 12 5 13 8 26 5 28 -2
2 -6 -3 -10 -12z"/>
<path d="M4933 3723 c9 -2 25 -2 35 0 9 3 1 5 -18 5 -19 0 -27 -2 -17 -5z"/>
<path d="M10646 3721 c-3 -4 -20 -11 -37 -15 -22 -4 -30 -10 -25 -21 3 -8 0
-15 -6 -15 -12 0 -48 -38 -48 -52 0 -16 19 -8 25 12 3 11 12 20 19 20 19 0 56
-35 56 -54 0 -9 8 -16 19 -16 33 0 44 -70 15 -101 -14 -16 -14 -20 1 -43 10
-14 26 -26 36 -26 14 0 19 -7 19 -29 0 -17 -4 -33 -10 -36 -5 -3 -9 -21 -9
-38 1 -18 3 -24 6 -14 3 13 10 16 21 12 10 -4 34 -9 55 -12 30 -5 37 -3 37 11
0 10 3 15 8 12 4 -2 33 2 65 9 31 7 57 11 57 8 0 -2 12 5 26 16 31 25 59 28
50 6 -3 -9 0 -15 8 -15 8 0 16 6 19 14 3 7 19 16 36 19 53 11 33 54 -35 76
-25 8 -51 10 -65 5 -13 -4 -39 -8 -56 -9 -27 0 -34 4 -42 27 -7 18 -17 28 -30
28 -11 0 -24 6 -28 14 -4 8 -15 16 -23 18 -16 3 -40 42 -40 64 0 8 -5 14 -11
14 -6 0 -9 -7 -5 -15 3 -8 1 -15 -5 -15 -6 0 -7 -4 -4 -10 3 -5 2 -10 -3 -10
-12 0 -22 24 -22 51 0 11 5 17 10 14 16 -10 12 3 -7 23 -10 11 -26 33 -35 50
-17 32 -32 40 -42 23z m43 -55 c-3 -3 -11 5 -18 17 -13 21 -12 21 5 5 10 -10
16 -20 13 -22z"/>
<path d="M10943 3716 c-28 -13 -29 -22 -5 -28 9 -3 27 6 40 19 20 20 20 23 5
22 -10 -1 -28 -6 -40 -13z"/>
<path d="M5005 3710 c11 -5 29 -8 40 -8 16 0 15 2 -5 8 -34 11 -60 11 -35 0z"/>
<path d="M5180 3646 c0 -2 7 -7 16 -10 8 -3 12 -2 9 4 -6 10 -25 14 -25 6z"/>
<path d="M10797 3588 c11 -13 18 -29 16 -35 -5 -14 -3 -15 40 -17 22 -2 25 0
14 9 -7 5 -12 16 -10 23 3 6 0 12 -7 12 -6 0 -8 -4 -5 -10 3 -5 1 -10 -4 -10
-6 0 -11 5 -11 11 0 13 -29 38 -44 39 -5 0 0 -10 11 -22z"/>
<path d="M8990 3556 c0 -15 49 -51 58 -42 6 7 -37 56 -50 56 -4 0 -8 -6 -8
-14z"/>
<path d="M10502 3550 c0 -14 2 -19 5 -12 2 6 2 18 0 25 -3 6 -5 1 -5 -13z"/>
<path d="M896 3541 c-19 -7 -19 -8 2 -13 18 -5 22 -13 22 -47 0 -32 -4 -41
-17 -42 -15 0 -15 -2 2 -9 18 -8 18 -9 -5 -9 -20 -1 -22 -3 -10 -11 13 -9 13
-10 0 -10 -8 -1 -33 -17 -55 -37 -45 -40 -38 -38 52 20 34 21 69 50 78 64 15
23 15 26 -1 37 -9 7 -14 18 -10 24 3 5 0 13 -6 15 -10 4 -9 8 2 16 12 9 10 11
-10 10 -14 0 -34 -4 -44 -8z"/>
<path d="M10502 3480 c0 -14 2 -19 5 -12 2 6 2 18 0 25 -3 6 -5 1 -5 -13z"/>
<path d="M10901 3474 c0 -11 3 -14 6 -6 3 7 2 16 -1 19 -3 4 -6 -2 -5 -13z"/>
<path d="M10925 3481 c-3 -5 -1 -12 5 -16 5 -3 10 1 10 9 0 18 -6 21 -15 7z"/>
<path d="M8258 3337 c-3 -19 -2 -25 4 -19 6 6 8 18 6 28 -3 14 -5 12 -10 -9z"/>
<path d="M5329 3335 c13 -25 39 -54 71 -80 l25 -20 -15 20 c-26 35 -93 101
-81 80z"/>
<path d="M9521 3304 c0 -11 3 -14 6 -6 3 7 2 16 -1 19 -3 4 -6 -2 -5 -13z"/>
<path d="M8246 3278 c3 -5 10 -6 15 -3 13 9 11 12 -6 12 -8 0 -12 -4 -9 -9z"/>
<path d="M10904 3252 c-9 -14 -8 -26 3 -53 l15 -34 9 25 c20 50 -3 101 -27 62z"/>
<path d="M9178 3193 c-18 -5 -23 -29 -10 -49 13 -19 47 -33 103 -40 50 -7 93
-25 144 -60 53 -37 46 5 -7 49 -85 69 -183 111 -230 100z"/>
<path d="M10922 3126 c-39 -35 -39 -36 -45 -128 -9 -119 -14 -146 -44 -243
-41 -134 -115 -266 -225 -404 l-42 -53 22 -18 c12 -10 22 -23 22 -29 0 -12 1
-12 38 -16 32 -3 135 119 126 149 -4 15 -2 17 4 8 17 -25 132 178 176 313 9
28 19 57 23 65 24 58 34 120 40 249 6 126 5 134 -12 127 -10 -3 -23 -1 -31 4
-9 9 -22 3 -52 -24z m-249 -820 c3 -8 -1 -22 -9 -33 -9 -10 -12 -12 -8 -4 5
10 1 11 -15 6 -22 -7 -26 1 -15 29 8 20 40 21 47 2z m-73 -6 c0 -5 -5 -10 -11
-10 -5 0 -7 5 -4 10 3 6 8 10 11 10 2 0 4 -4 4 -10z"/>
<path d="M9965 3100 c-3 -5 -1 -10 4 -10 6 0 11 5 11 10 0 6 -2 10 -4 10 -3 0
-8 -4 -11 -10z"/>
<path d="M5975 3071 c-17 -7 -14 -10 19 -19 22 -6 42 -10 44 -7 2 2 -7 7 -22
11 -14 3 -23 10 -20 15 6 10 6 10 -21 0z"/>
<path d="M9955 3070 c3 -5 8 -10 11 -10 2 0 4 5 4 10 0 6 -5 10 -11 10 -5 0
-7 -4 -4 -10z"/>
<path d="M4701 3057 c26 -21 121 -66 110 -53 -16 19 -83 56 -102 56 -7 0 -10
-1 -8 -3z"/>
<path d="M8900 3019 c-9 -17 -8 -23 7 -34 15 -11 20 -11 31 -1 12 11 12 17 0
35 -16 26 -24 26 -38 0z"/>
<path d="M4480 3012 c-33 -22 -53 -42 -43 -42 4 0 24 14 43 30 39 33 39 38 0
12z"/>
<path d="M8368 3003 c7 -3 16 -2 19 1 4 3 -2 6 -13 5 -11 0 -14 -3 -6 -6z"/>
<path d="M4393 2964 c-13 -14 -23 -31 -23 -37 0 -7 7 -3 16 8 8 11 18 18 21
15 3 -3 8 5 9 18 5 27 4 27 -23 -4z"/>
<path d="M5570 2948 c-16 -7 -20 -12 -12 -15 8 -3 21 2 30 11 19 18 17 19 -18
4z"/>
<path d="M5525 2920 c-3 -5 -1 -10 4 -10 6 0 11 5 11 10 0 6 -2 10 -4 10 -3 0
-8 -4 -11 -10z"/>
<path d="M4917 2883 c16 -21 44 -61 63 -90 19 -28 37 -50 39 -48 9 9 -107 175
-122 175 -5 0 4 -17 20 -37z"/>
<path d="M9849 2900 c6 -18 4 -28 -8 -37 -9 -7 -11 -12 -4 -13 6 0 15 5 18 10
3 6 15 10 26 10 12 0 17 4 14 11 -4 6 -9 8 -12 5 -3 -3 -14 5 -24 17 l-19 22
9 -25z"/>
<path d="M10059 2863 c-13 -15 -12 -15 11 -3 34 17 36 20 18 20 -9 0 -22 -7
-29 -17z"/>
<path d="M6398 2833 c7 -3 16 -2 19 1 4 3 -2 6 -13 5 -11 0 -14 -3 -6 -6z"/>
<path d="M6340 2820 c-21 -7 -21 -8 -5 -9 11 0 27 4 35 9 18 11 5 11 -30 0z"/>
<path d="M9972 2791 c-11 -11 -11 -15 0 -22 9 -6 9 -9 1 -9 -6 0 -15 -9 -18
-20 -4 -12 -32 -45 -62 -75 -48 -47 -59 -53 -76 -44 -15 8 -22 8 -28 -2 -4 -7
-11 -10 -15 -6 -4 4 1 14 12 21 21 16 16 30 -8 21 -8 -3 -15 -16 -14 -28 1
-17 7 -22 28 -22 38 0 43 -10 25 -47 -22 -48 -26 -84 -7 -80 32 7 -7 -15 -67
-38 -87 -34 -71 -37 23 -4 66 23 83 25 109 15 49 -17 119 -14 137 7 9 9 25 46
36 82 11 36 24 74 27 85 6 17 5 18 -5 5 -9 -12 -10 -9 -5 15 12 48 14 96 5 90
-5 -3 -10 2 -12 11 -2 10 -19 23 -38 30 -35 12 -34 12 32 13 44 1 68 -3 71
-11 4 -10 6 -10 6 0 1 18 -19 24 -85 25 -38 1 -62 -3 -72 -12z m43 -281 c3 -5
1 -10 -4 -10 -6 0 -11 5 -11 10 0 6 2 10 4 10 3 0 8 -4 11 -10z"/>
<path d="M2058 2663 c12 -2 32 -2 45 0 12 2 2 4 -23 4 -25 0 -35 -2 -22 -4z"/>
<path d="M1808 2653 c6 -2 18 -2 25 0 6 3 1 5 -13 5 -14 0 -19 -2 -12 -5z"/>
<path d="M2158 2653 c7 -3 16 -2 19 1 4 3 -2 6 -13 5 -11 0 -14 -3 -6 -6z"/>
<path d="M2198 2643 c7 -3 16 -2 19 1 4 3 -2 6 -13 5 -11 0 -14 -3 -6 -6z"/>
<path d="M2238 2633 c7 -3 16 -2 19 1 4 3 -2 6 -13 5 -11 0 -14 -3 -6 -6z"/>
<path d="M4140 2578 c-42 -46 -47 -49 -73 -39 -16 6 -45 11 -65 10 -44 -1 -34
-5 31 -14 26 -3 47 -11 47 -16 0 -6 -10 -8 -22 -5 -13 3 -17 3 -10 0 9 -4 2
-18 -23 -45 -19 -21 -35 -44 -35 -50 0 -13 199 191 200 204 0 10 0 10 -50 -45z"/>
<path d="M5154 2583 l37 -53 -3 -145 c-2 -80 0 -145 5 -145 4 0 7 35 8 78 0
42 2 106 4 142 3 73 -7 100 -56 145 l-33 30 38 -52z"/>
<path d="M2308 2613 c7 -3 16 -2 19 1 4 3 -2 6 -13 5 -11 0 -14 -3 -6 -6z"/>
<path d="M2340 2607 c0 -3 15 -10 32 -16 18 -6 28 -7 23 -2 -12 10 -55 25 -55
18z"/>
<path d="M4217 2579 c4 -13 8 -18 11 -10 2 7 -1 18 -6 23 -8 8 -9 4 -5 -13z"/>
<path d="M2468 2547 c106 -59 207 -142 195 -160 -3 -6 -2 -8 3 -4 14 8 47 -20
38 -34 -4 -7 -3 -10 3 -6 11 7 63 -40 90 -80 9 -13 19 -23 24 -23 14 0 -34 55
-136 155 -83 82 -196 160 -260 180 -11 4 8 -9 43 -28z"/>
<path d="M3858 2553 c17 -2 47 -2 65 0 17 2 3 4 -33 4 -36 0 -50 -2 -32 -4z"/>
<path d="M4213 2490 c0 -36 2 -50 4 -32 2 17 2 47 0 65 -2 17 -4 3 -4 -33z"/>
<path d="M3610 2491 c-142 -43 -321 -110 -391 -146 -20 -11 -27 -21 -24 -35 2
-12 0 -18 -6 -15 -5 4 -7 11 -4 16 10 15 -8 10 -43 -11 -21 -13 -32 -26 -29
-35 3 -7 -1 -16 -9 -19 -25 -9 -27 -7 -13 11 8 10 -5 2 -28 -16 -23 -19 -40
-38 -37 -43 3 -5 0 -7 -8 -6 -7 2 -12 -5 -12 -14 1 -10 -2 -16 -6 -13 -11 7
-43 -32 -36 -43 6 -11 -15 -22 -41 -22 -10 0 -14 6 -10 19 3 14 1 18 -10 14
-7 -3 -23 3 -34 13 -18 16 -19 16 -13 1 9 -25 -3 -21 -22 8 -14 21 -14 28 -3
43 13 15 12 16 -3 4 -23 -19 -11 -111 13 -96 15 9 10 -16 -6 -32 -8 -9 -15
-11 -15 -5 0 18 -87 14 -94 -4 -8 -21 -126 -22 -126 -1 0 11 -5 12 -24 3 -20
-10 -22 -15 -13 -27 10 -12 9 -13 -3 -4 -25 19 -52 12 -69 -18 -9 -15 -20 -28
-24 -28 -5 0 -5 5 -1 12 4 7 3 8 -4 4 -9 -5 -9 -13 -1 -28 8 -15 8 -19 0 -14
-6 4 -15 -4 -21 -18 -5 -14 -16 -26 -24 -26 -19 0 -25 -20 -15 -46 6 -17 2
-24 -16 -34 -13 -7 -29 -9 -35 -5 -7 4 -16 2 -20 -6 -5 -8 -40 -16 -86 -20
-83 -8 -94 -15 -94 -66 0 -26 4 -33 19 -33 30 0 34 -17 5 -24 -34 -9 -47 1
-40 33 4 14 3 21 -1 15 -12 -17 -102 -26 -235 -24 -78 1 -118 -2 -118 -9 0 -5
-12 -10 -27 -9 -16 1 -36 -2 -45 -6 -11 -5 -23 -1 -35 11 -24 24 -103 63 -127
63 -20 0 -92 35 -101 50 -8 14 -62 13 -67 -1 -3 -8 -8 -7 -18 2 -73 70 -320
252 -320 235 0 -2 35 -29 78 -59 43 -30 95 -71 116 -90 20 -20 40 -36 44 -36
4 0 8 -5 10 -13 2 -9 0 -8 -7 2 -6 8 -11 11 -11 6 0 -5 -6 -3 -14 3 -8 7 -32
13 -54 14 -23 0 -40 5 -39 10 1 5 -20 17 -48 27 -27 9 -70 30 -95 46 -44 29
-110 57 -117 50 -2 -2 16 -13 39 -25 l43 -22 -35 5 -35 5 28 -15 c16 -9 26
-18 23 -21 -3 -3 -11 -1 -18 4 -11 8 -102 45 -118 48 -3 1 -55 5 -116 9 -163
11 -274 -12 -388 -81 -77 -47 -120 -85 -168 -151 -93 -126 -149 -281 -154
-427 l-3 -100 9 81 c35 337 205 577 457 647 65 19 204 24 305 12 62 -8 178
-49 210 -75 21 -17 21 -20 10 -82 -33 -178 1 -421 83 -593 50 -105 104 -180
197 -276 123 -127 257 -208 438 -267 204 -66 483 -50 662 38 35 16 68 30 75
30 7 0 13 5 13 10 0 6 7 10 15 10 19 0 115 62 115 74 0 4 -7 5 -16 2 -9 -3
-12 -2 -9 5 4 6 14 8 22 5 21 -9 38 4 22 16 -11 8 -10 9 4 4 10 -3 28 4 44 17
70 60 94 87 87 98 -4 7 -3 9 3 6 21 -13 112 110 95 128 -4 5 -2 5 5 1 8 -4 24
16 46 61 52 104 83 198 102 313 22 126 16 225 -19 364 l-26 99 50 67 c49 66
108 125 188 188 23 19 42 30 42 25 0 -4 4 -3 8 4 9 15 178 104 217 114 17 4
55 15 85 23 30 9 75 18 100 21 25 3 68 9 95 14 l50 9 -63 0 c-34 -1 -66 2 -69
6 -3 3 1 6 10 6 10 0 17 8 17 18 0 27 28 48 85 65 30 9 40 15 25 15 -14 0 -95
-21 -180 -47z m-435 -201 c3 -5 -3 -10 -15 -10 -12 0 -18 5 -15 10 3 6 10 10
15 10 5 0 12 -4 15 -10z m-105 -75 c-7 -8 -17 -15 -23 -15 -5 0 -2 9 8 20 21
23 35 19 15 -5z m-174 -123 c6 -4 8 -15 5 -25 -6 -16 -7 -16 -23 2 -21 25 -9
41 18 23z m124 -16 c0 -3 -4 -8 -10 -11 -5 -3 -10 -1 -10 4 0 6 5 11 10 11 6
0 10 -2 10 -4z m-508 -72 c-6 -11 -11 -13 -16 -5 -4 6 -2 11 3 11 6 0 11 8 12
18 0 9 3 12 5 5 3 -7 1 -20 -4 -29z m442 -19 c-7 -16 -24 -21 -24 -6 0 8 7 13
27 20 1 1 0 -6 -3 -14z m-1714 -129 c0 -2 -11 -6 -25 -8 -14 -3 -25 -1 -25 3
0 5 11 9 25 9 14 0 25 -2 25 -4z m-180 -23 c0 -2 -6 -11 -14 -18 -12 -12 -14
-11 -12 9 0 14 6 22 14 19 6 -3 12 -7 12 -10z m-49 -73 l-9 -45 -1 46 c-1 25
2 49 6 53 12 12 13 -6 4 -54z m93 45 c14 -11 16 -15 5 -15 -12 0 -12 -2 1 -10
8 -5 11 -10 5 -10 -5 0 -17 5 -25 10 -13 8 -13 10 -1 10 11 0 9 4 -5 15 -10 8
-14 14 -9 14 6 0 19 -6 29 -14z m-97 -262 c-3 -10 -5 -2 -5 17 0 19 2 27 5 18
2 -10 2 -26 0 -35z m1960 -125 c-3 -8 -6 -5 -6 6 -1 11 2 17 5 13 3 -3 4 -12
1 -19z m-12 -50 c-7 -32 -59 -146 -91 -198 l-16 -25 7 29 c3 17 13 35 22 41
10 7 13 17 8 25 -5 7 -4 11 1 7 5 -3 23 30 39 74 31 84 41 99 30 47z m-140
-260 c-10 -23 -13 -25 -9 -8 3 14 6 36 6 50 0 20 1 21 9 8 6 -12 4 -28 -6 -50z
m-94 -141 c-16 -16 -25 -1 -10 16 8 8 16 11 18 5 2 -5 -2 -15 -8 -21z"/>
<path d="M3358 2477 c-42 -18 -80 -36 -85 -40 -4 -5 4 -4 17 2 14 5 59 23 100
40 41 16 68 30 60 30 -8 0 -50 -14 -92 -32z"/>
<path d="M3740 2500 c0 -5 5 -10 10 -10 6 0 10 5 10 10 0 6 -4 10 -10 10 -5 0
-10 -4 -10 -10z"/>
<path d="M9214 2416 c-9 -15 -14 -29 -11 -32 3 -3 13 6 23 20 9 15 14 29 11
32 -3 3 -13 -6 -23 -20z"/>
<path d="M3898 2423 c7 -3 16 -2 19 1 4 3 -2 6 -13 5 -11 0 -14 -3 -6 -6z"/>
<path d="M4221 2404 c0 -11 3 -14 6 -6 3 7 2 16 -1 19 -3 4 -6 -2 -5 -13z"/>
<path d="M3964 2386 c-34 -37 -104 -166 -89 -166 2 0 14 19 26 43 12 23 35 61
51 85 29 41 35 63 12 38z"/>
<path d="M5222 2370 c0 -19 2 -27 5 -17 2 9 2 25 0 35 -3 9 -5 1 -5 -18z"/>
<path d="M9268 2353 c-22 -6 -12 -33 13 -33 12 0 19 7 19 20 0 20 -2 21 -32
13z"/>
<path d="M8416 2341 c-33 -5 -49 -17 -93 -69 -50 -58 -66 -92 -44 -92 6 0 43
15 84 34 78 35 135 91 123 121 -6 16 -7 16 -70 6z"/>
<path d="M9445 2339 c-4 -6 -5 -12 -2 -15 2 -3 7 2 10 11 7 17 1 20 -8 4z"/>
<path d="M9906 2326 c-63 -20 -69 -24 -81 -60 -8 -21 -32 -57 -54 -79 -23 -22
-41 -47 -41 -56 0 -27 -39 -81 -57 -81 -12 -1 -7 -8 17 -23 26 -16 34 -28 32
-44 -3 -18 2 -23 17 -23 28 0 27 -20 -1 -21 -21 -1 63 -28 88 -29 19 0 98 190
140 340 13 47 24 88 24 93 0 9 -3 9 -84 -17z"/>
<path d="M8890 2325 c0 -3 5 -11 10 -18 36 -43 60 -67 66 -67 4 0 13 -8 20
-17 12 -17 13 -16 14 5 0 33 -29 73 -67 88 -35 15 -43 17 -43 9z"/>
<path d="M9194 2266 c-3 -8 -1 -23 5 -34 9 -17 7 -21 -12 -26 -12 -3 -36 -6
-52 -6 -26 0 -33 -6 -48 -41 -15 -36 -21 -41 -43 -36 -27 5 -50 -13 -82 -63
-24 -36 -59 -62 -122 -90 -31 -14 -64 -33 -74 -42 -10 -10 -26 -18 -36 -18
-22 0 -38 -19 -18 -22 36 -4 43 -3 49 5 3 4 26 9 50 10 24 0 49 7 55 15 7 10
41 16 110 19 54 2 115 6 134 8 19 2 43 3 53 4 9 1 17 7 17 15 0 8 7 16 14 19
8 3 18 22 22 41 4 22 12 36 21 36 9 0 13 6 9 15 -7 20 3 45 19 45 19 0 27 30
10 36 -17 7 -21 44 -4 44 6 0 9 16 7 38 -3 35 -5 37 -41 40 -26 2 -39 -1 -43
-12z"/>
<path d="M10529 2263 c-13 -16 -12 -17 4 -4 16 13 21 21 13 21 -2 0 -10 -8
-17 -17z"/>
<path d="M6802 2248 c-1 -10 -5 -17 -9 -17 -20 3 -27 -2 -14 -10 10 -7 14 -35
13 -112 l0 -104 9 75 c5 41 8 100 6 130 -2 30 -4 47 -5 38z"/>
<path d="M10445 2189 c-33 -27 -67 -57 -75 -66 -14 -15 -12 -15 12 0 15 9 39
17 53 17 23 0 25 3 19 22 -6 21 -6 22 12 8 18 -14 18 -14 5 3 -13 16 -12 19 5
23 19 5 53 45 37 43 -5 0 -35 -23 -68 -50z"/>
<path d="M10620 2217 c0 -4 -4 -6 -9 -3 -5 4 -7 -3 -4 -13 4 -16 0 -19 -23
-16 -26 2 -27 2 -9 -11 10 -8 14 -14 8 -14 -6 0 -14 -8 -17 -17 -6 -14 -3 -14
16 3 44 38 49 44 43 54 -3 5 0 7 8 4 8 -3 17 1 20 8 3 9 -2 14 -14 14 -11 0
-19 -4 -19 -9z"/>
<path d="M2598 2183 c-12 -21 -24 -51 -24 -67 -2 -24 0 -26 8 -13 5 10 6 22 3
28 -9 13 14 41 28 32 6 -4 7 -1 3 6 -5 7 -1 18 10 25 11 8 13 15 6 20 -6 3
-21 -11 -34 -31z"/>
<path d="M10027 2169 c-15 -41 -16 -56 -7 -85 6 -18 15 -34 20 -34 4 0 13 -13
20 -30 7 -16 17 -30 22 -30 16 0 6 103 -14 144 -12 23 -17 48 -14 62 11 44 -9
24 -27 -27z"/>
<path d="M6660 2166 c0 -2 7 -6 15 -10 8 -3 15 -1 15 4 0 6 -7 10 -15 10 -8 0
-15 -2 -15 -4z"/>
<path d="M488 2143 c7 -3 16 -2 19 1 4 3 -2 6 -13 5 -11 0 -14 -3 -6 -6z"/>
<path d="M438 2133 c7 -3 16 -2 19 1 4 3 -2 6 -13 5 -11 0 -14 -3 -6 -6z"/>
<path d="M5715 2120 c-13 -5 -14 -9 -5 -9 8 0 24 4 35 9 13 5 14 9 5 9 -8 0
-24 -4 -35 -9z"/>
<path d="M2546 2105 c-3 -8 -1 -15 4 -15 6 0 10 7 10 15 0 8 -2 15 -4 15 -2 0
-6 -7 -10 -15z"/>
<path d="M3853 2030 c0 -36 2 -50 4 -32 2 17 2 47 0 65 -2 17 -4 3 -4 -33z"/>
<path d="M9961 2034 c-30 -66 -56 -162 -47 -171 12 -12 77 29 109 69 29 36 29
39 14 56 -10 10 -26 36 -36 57 l-19 39 -21 -50z"/>
<path d="M96 1942 c-32 -33 -67 -74 -78 -93 l-20 -34 28 35 c15 19 52 59 81
89 29 30 52 56 50 58 -2 1 -30 -23 -61 -55z"/>
<path d="M2433 1968 c-15 -20 -25 -38 -20 -38 3 0 12 11 21 25 17 26 16 35 -1
13z"/>
<path d="M6782 1945 c-1 -22 -7 -77 -14 -123 -8 -58 -8 -86 -1 -93 13 -13 28
149 21 216 l-5 40 -1 -40z"/>
<path d="M4302 1940 c0 -14 2 -19 5 -12 2 6 2 18 0 25 -3 6 -5 1 -5 -13z"/>
<path d="M4391 1893 c7 -12 15 -20 18 -17 3 2 -3 12 -13 22 -17 16 -18 16 -5
-5z"/>
<path d="M10238 1883 c-10 -2 -18 -11 -18 -19 0 -8 -4 -13 -9 -10 -5 3 -8 -6
-8 -21 l0 -27 14 27 c8 16 19 25 25 21 6 -4 8 -3 4 4 -3 6 2 15 11 21 18 11
11 12 -19 4z"/>
<path d="M4420 1854 c1 -5 16 -27 35 -49 19 -22 35 -35 34 -30 0 6 -15 28 -34
49 -19 22 -35 35 -35 30z"/>
<path d="M9845 1830 c-3 -6 1 -7 9 -4 18 7 21 14 7 14 -6 0 -13 -4 -16 -10z"/>
<path d="M3916 1800 c8 -32 34 -83 40 -78 2 3 -7 27 -21 54 -14 27 -23 38 -19
24z"/>
<path d="M9715 1797 c-4 -10 -5 -21 -1 -24 10 -10 18 4 13 24 -4 17 -4 17 -12
0z"/>
<path d="M2020 1760 c0 -5 5 -10 11 -10 5 0 7 5 4 10 -3 6 -8 10 -11 10 -2 0
-4 -4 -4 -10z"/>
<path d="M4516 1729 c81 -92 124 -138 124 -132 0 10 -130 157 -143 162 -5 2 4
-11 19 -30z"/>
<path d="M8171 1680 c0 -8 4 -22 9 -30 12 -18 12 -2 0 25 -6 13 -9 15 -9 5z"/>
<path d="M6742 1550 c0 -19 2 -27 5 -17 2 9 2 25 0 35 -3 9 -5 1 -5 -18z"/>
<path d="M4412 1360 c0 -14 2 -19 5 -12 2 6 2 18 0 25 -3 6 -5 1 -5 -13z"/>
<path d="M6786 1240 c-4 -58 -6 -118 -4 -135 5 -41 21 150 16 200 -2 24 -7 -1
-12 -65z"/>
<path d="M5 1050 c5 -100 4 -97 13 -82 6 8 13 -1 21 -30 29 -102 156 -293 258
-388 46 -43 38 -32 -38 53 -122 138 -205 290 -239 442 l-19 80 4 -75z"/>
<path d="M1 874 c0 -11 3 -14 6 -6 3 7 2 16 -1 19 -3 4 -6 -2 -5 -13z"/>
<path d="M6 824 c-3 -9 -6 -52 -6 -96 0 -76 2 -83 35 -128 48 -65 64 -78 76
-59 7 12 9 12 9 0 0 -11 6 -9 23 5 22 19 22 19 5 -2 -13 -14 -15 -23 -7 -31 8
-8 8 -13 0 -18 -7 -4 -10 -1 -9 7 2 7 -3 12 -10 10 -8 -1 -11 2 -6 9 5 8 3 9
-5 4 -9 -5 -6 -14 11 -34 13 -14 24 -28 25 -30 2 -2 10 2 18 9 11 9 19 10 26
3 7 -7 4 -15 -8 -24 -16 -13 -17 -12 -4 4 8 10 9 17 3 17 -33 0 -18 -29 45
-89 87 -82 107 -98 213 -169 108 -73 121 -80 264 -152 l119 -60 291 1 c267 1
286 2 231 14 -176 39 -646 233 -750 310 -82 60 -68 40 20 -30 75 -60 79 -64
32 -36 -31 19 -40 21 -53 10 -12 -9 -17 -10 -27 0 -9 10 -9 11 4 6 30 -11 16
24 -18 47 -18 13 -31 28 -29 33 2 6 -7 11 -20 11 -13 1 -23 -1 -22 -5 3 -30
-9 -27 -61 18 -57 49 -80 63 -65 39 5 -7 3 -8 -5 -4 -7 5 -10 10 -7 13 3 3
-39 53 -94 110 -88 92 -220 268 -220 294 0 15 -17 10 -24 -7z m24 -18 c0 -3
-4 -8 -10 -11 -5 -3 -10 -1 -10 4 0 6 5 11 10 11 6 0 10 -2 10 -4z m40 -81 c0
-5 -5 -3 -10 5 -5 8 -10 20 -10 25 0 6 5 3 10 -5 5 -8 10 -19 10 -25z m8 -160
c-3 -3 -9 2 -12 12 -6 14 -5 15 5 6 7 -7 10 -15 7 -18z m177 -53 c-5 -6 -45
23 -50 36 -3 7 8 3 24 -10 15 -13 27 -24 26 -26z m35 -47 c0 -5 -5 -3 -10 5
-5 8 -10 20 -10 25 0 6 5 3 10 -5 5 -8 10 -19 10 -25z m35 -25 c3 -6 -1 -7 -9
-4 -18 7 -21 14 -7 14 6 0 13 -4 16 -10z m-11 -72 c-3 -5 -12 -4 -20 3 -7 6
-11 15 -8 21 3 5 12 4 20 -3 7 -6 11 -15 8 -21z m202 -33 c17 -16 14 -18 -10
-9 -9 3 -16 10 -16 15 0 13 9 11 26 -6z m629 -271 c24 -11 25 -13 5 -8 -14 4
-38 13 -55 20 -24 11 -25 13 -5 8 14 -4 39 -13 55 -20z m70 -24 c13 -6 15 -9
5 -9 -8 0 -22 4 -30 9 -18 12 -2 12 25 0z"/>
<path d="M4015 765 c-4 -16 -11 -46 -16 -65 -5 -19 -9 -44 -8 -55 0 -11 9 14
20 55 10 41 17 79 15 85 -2 5 -7 -3 -11 -20z"/>
<path d="M2098 613 c7 -3 16 -2 19 1 4 3 -2 6 -13 5 -11 0 -14 -3 -6 -6z"/>
<path d="M3650 444 c-41 -7 -112 -25 -158 -39 -47 -15 -93 -23 -105 -20 -15 4
-18 3 -9 -3 9 -6 -9 -17 -62 -38 -130 -49 -75 -38 94 20 142 49 263 77 380 89
24 3 19 4 -15 4 -27 1 -84 -5 -125 -13z"/>
<path d="M3207 299 c-4 -16 -3 -18 9 -8 7 6 11 15 8 20 -8 13 -11 11 -17 -12z"/>
<path d="M4336 211 c25 -25 40 -34 42 -26 5 19 -38 65 -61 65 -15 0 -12 -7 19
-39z"/>
<path d="M2803 147 c-52 -20 -50 -28 3 -10 27 9 51 17 53 19 9 8 -25 2 -56 -9z"/>
<path d="M2720 140 c8 -5 20 -10 25 -10 6 0 3 5 -5 10 -8 5 -19 10 -25 10 -5
0 -3 -5 5 -10z"/>
<path d="M3247 118 c-15 -5 -25 -14 -21 -19 5 -8 64 16 64 26 0 7 -10 5 -43
-7z"/>
<path d="M8653 43 c-7 -2 -13 -13 -13 -24 0 -18 9 -19 140 -19 118 0 140 2
140 15 0 8 -9 15 -20 15 -11 0 -20 5 -20 10 0 10 -203 13 -227 3z"/>
</g>
</svg>
