<?xml version="1.0" standalone="no"?>
<!DOCTYPE svg PUBLIC "-//W3C//DTD SVG 20010904//EN"
 "http://www.w3.org/TR/2001/REC-SVG-20010904/DTD/svg10.dtd">
<svg version="1.0" xmlns="http://www.w3.org/2000/svg"
 width="512" height="512" viewBox="0 0 443.868568 685.614538"
 preserveAspectRatio="xMidYMid meet">
<metadata>Created by Svg.la</metadata>
<g transform="translate(-287.105439,721.964016) scale(0.100000,-0.100000)"
fill="#4bec7b" stroke="none">
<path d="M4300 7189 c-70 -40 -68 -38 -45 -52 71 -40 183 -180 215 -268 9 -27
20 -52 23 -56 4 -3 7 -25 7 -48 l0 -42 102 -69 c123 -83 217 -166 178 -158
-14 4 -45 10 -70 14 -174 32 -228 44 -252 56 -15 8 -31 13 -35 12 -11 -3 -113
31 -138 46 -16 10 -29 10 -60 0 -22 -7 -38 -13 -35 -14 3 -1 31 -4 63 -6 33
-3 71 -10 85 -16 15 -6 32 -12 37 -12 6 -1 21 -7 33 -14 13 -8 26 -11 29 -8 3
3 18 -1 34 -9 15 -8 44 -15 63 -15 19 0 38 -5 41 -11 4 -5 12 -8 18 -6 7 2 26
0 42 -5 17 -5 44 -11 60 -12 117 -13 199 -60 303 -172 63 -67 138 -194 124
-209 -4 -5 -1 -5 6 -1 12 7 12 5 17 -72 1 -16 5 -41 9 -56 4 -15 3 -25 -2 -22
-5 3 -14 -17 -21 -44 -7 -28 -18 -50 -24 -50 -8 0 -8 -3 0 -11 8 -8 3 -30 -16
-77 -14 -37 -29 -69 -33 -70 -5 -2 -6 -8 -2 -13 3 -5 2 -19 -1 -30 -6 -18 -12
-13 -45 38 -39 59 -91 113 -191 200 -66 57 -117 114 -148 166 -24 39 -38 50
-26 20 4 -10 8 -22 9 -28 1 -5 6 -12 11 -15 22 -11 92 -115 88 -130 -4 -11 -2
-12 4 -3 7 10 14 9 31 -3 12 -8 20 -20 17 -25 -4 -5 -2 -9 3 -9 13 0 52 -75
53 -101 0 -22 1 -23 8 -4 5 11 6 26 4 33 -3 7 0 10 9 7 16 -6 41 -126 31 -151
-4 -11 -3 -15 4 -11 6 4 14 1 17 -5 3 -7 3 7 0 32 -4 39 -3 42 6 20 6 -14 9
-40 5 -57 -3 -18 -1 -42 5 -54 10 -17 8 -21 -8 -26 -24 -6 -36 -53 -17 -68 18
-14 26 -47 16 -63 -5 -8 -8 -2 -8 18 0 41 -9 47 -33 20 -23 -27 -24 -34 -9
-62 7 -13 8 -23 1 -30 -7 -7 -16 0 -26 21 -9 17 -18 31 -19 31 -6 0 1 -89 8
-102 5 -7 -4 -2 -20 12 l-28 25 14 -25 c7 -14 12 -32 11 -42 -2 -9 2 -19 8
-23 5 -3 10 -14 10 -23 -1 -11 -7 -6 -17 13 -9 17 -25 41 -36 55 l-19 25 7
-25 c7 -20 5 -23 -7 -15 -7 6 -7 3 3 -5 9 -9 22 -26 28 -39 12 -22 12 -22 -13
-6 -14 10 -26 22 -26 28 0 6 -3 7 -7 4 -3 -4 4 -18 17 -32 16 -17 19 -25 9
-25 -8 0 -20 9 -27 21 -7 12 -16 19 -19 16 -2 -3 6 -22 19 -41 14 -20 28 -33
31 -29 4 3 7 1 7 -5 0 -6 -5 -14 -11 -18 -6 -3 -8 -16 -5 -28 5 -19 4 -20 -8
-3 -15 19 -31 23 -20 5 4 -7 -2 -4 -14 6 -16 14 -22 15 -22 6 0 -11 -3 -11
-12 -2 -9 9 -9 15 1 25 8 6 11 7 8 2 -3 -6 3 -11 13 -11 18 0 18 1 2 19 -14
16 -18 17 -27 3 -10 -13 -15 -12 -35 7 -20 18 -22 19 -9 2 31 -41 53 -80 37
-68 -8 7 -19 9 -23 5 -5 -4 -5 -2 -2 4 4 7 -3 10 -20 8 -19 -2 -34 5 -51 24
l-25 27 17 -27 c20 -33 5 -38 -17 -5 l-16 22 6 -23 c3 -12 15 -30 27 -40 11
-10 32 -31 46 -47 21 -26 20 -25 -13 4 -20 19 -37 30 -37 24 0 -7 5 -15 10
-18 6 -3 10 -11 10 -18 0 -6 -11 4 -25 23 -13 18 -22 37 -19 41 3 5 0 9 -6 9
-6 0 -9 3 -7 8 2 4 -7 17 -20 29 -29 28 -29 19 2 -35 13 -23 19 -40 13 -36 -8
5 -9 1 -5 -12 6 -14 3 -13 -12 5 -13 18 -20 20 -23 10 -3 -10 -16 -2 -44 25
-21 22 -56 55 -76 74 l-37 33 -62 -25 c-35 -14 -64 -24 -66 -22 -2 2 38 45 89
97 106 107 144 174 227 394 37 97 51 149 55 205 3 41 12 111 19 155 l15 80
-54 60 c-29 33 -73 83 -98 110 -25 28 -67 87 -93 133 -72 125 -86 145 -106
148 -11 1 -16 -1 -12 -4 4 -4 12 -7 17 -7 6 0 34 -44 62 -97 28 -53 62 -111
75 -130 22 -30 22 -31 3 -14 -21 18 -31 11 -14 -10 4 -5 0 -3 -8 6 -8 8 -23
21 -33 29 -15 12 -17 12 -11 -3 7 -19 -11 -22 -23 -3 -4 6 -19 21 -33 32 -13
11 -19 13 -13 5 8 -10 9 -21 3 -30 -8 -13 -10 -12 -10 3 0 9 -4 17 -9 17 -6 0
-8 -8 -6 -19 3 -14 -1 -18 -16 -14 -10 3 -19 10 -19 15 0 5 4 6 10 3 6 -3 7 1
4 9 -6 16 -25 23 -23 9 5 -28 -2 -36 -16 -17 -13 18 -14 18 -9 -6 5 -22 4 -23
-6 -7 -11 18 -12 18 -27 0 -8 -10 -12 -13 -8 -6 6 14 -38 46 -67 48 -16 2 -15
-2 9 -27 21 -22 23 -27 9 -22 -15 6 -17 4 -11 -6 5 -9 4 -11 -4 -6 -6 4 -9 11
-6 16 3 5 0 12 -6 16 -8 4 -9 3 -5 -4 4 -7 2 -12 -4 -12 -6 0 -8 -4 -5 -10 10
-16 -11 -12 -25 5 -11 13 -10 14 2 10 9 -4 15 0 15 9 0 13 -4 13 -29 0 -19
-10 -28 -21 -24 -30 4 -10 -9 -6 -39 11 -55 30 -58 25 -7 -11 35 -24 27 -28
-23 -9 -17 7 -16 5 4 -13 14 -13 18 -22 11 -22 -7 0 -21 7 -31 16 -15 14 -17
14 -15 -3 1 -14 -6 -18 -34 -16 l-35 1 25 -14 25 -15 -28 6 c-19 4 -26 2 -22
-5 3 -5 -1 -10 -10 -10 -24 0 -74 -41 -68 -56 3 -8 -9 -22 -29 -33 -45 -28
-123 -105 -123 -122 0 -8 -5 -13 -12 -12 -6 1 -16 -10 -21 -25 -9 -28 -57 -79
-103 -113 l-26 -18 3 42 c3 49 29 203 45 260 6 21 8 41 6 44 -8 7 -59 -218
-65 -284 -2 -35 -8 -63 -12 -63 -4 0 -8 -22 -9 -49 -1 -51 13 -106 26 -98 5 3
8 -8 8 -23 0 -16 -4 -25 -10 -22 -5 3 0 -6 12 -21 20 -26 21 -67 1 -67 -5 0
-5 8 1 18 7 14 5 23 -10 35 -18 16 -19 16 -19 -11 0 -21 -2 -24 -10 -12 -7 10
-10 11 -10 2 0 -7 7 -15 15 -18 23 -9 6 -26 -18 -18 -22 6 -22 6 1 -16 28 -26
23 -36 -10 -20 -22 10 -22 10 -4 -4 10 -8 24 -17 30 -19 12 -4 -32 -46 -49
-47 -18 -1 -101 -127 -91 -137 3 -3 9 3 13 14 22 57 133 140 168 126 13 -4 16
-3 11 5 -10 17 9 15 23 -2 14 -17 0 -29 -23 -20 -10 4 -14 0 -13 -14 1 -16 4
-18 19 -9 13 9 21 8 30 -1 11 -11 10 -12 -3 -7 -10 4 -20 2 -24 -4 -3 -7 3
-11 17 -12 22 -1 21 -1 -4 -11 l-27 -9 26 -25 c25 -23 60 -34 48 -14 -3 6 -1
10 4 10 6 0 11 -5 11 -11 0 -5 6 -7 13 -3 7 4 9 3 4 -2 -5 -5 -13 -10 -18 -10
-22 -3 -23 -5 -9 -14 8 -5 25 -10 38 -10 13 0 21 -4 18 -9 -3 -5 8 -14 24 -20
17 -5 30 -15 30 -21 0 -6 3 -9 8 -7 13 8 53 -12 46 -24 -4 -7 -1 -10 7 -7 20
7 51 -11 43 -24 -5 -8 -1 -9 9 -5 10 4 54 -11 109 -38 50 -24 94 -42 98 -40 3
2 51 5 106 5 86 2 120 -4 259 -39 88 -23 171 -46 184 -52 32 -13 178 -41 214
-41 27 1 28 0 13 -17 -11 -12 -44 -23 -94 -30 -113 -18 -114 -19 -29 -20 53
-1 77 3 77 11 0 6 3 8 6 5 10 -10 -18 -39 -32 -33 -8 3 -11 0 -7 -10 4 -10 0
-12 -13 -7 -13 5 -16 3 -11 -10 4 -11 0 -15 -14 -14 -10 1 -19 5 -19 9 0 4 -4
8 -10 8 -6 0 -6 -10 1 -27 10 -26 9 -27 -9 -10 -19 17 -19 17 -17 -8 3 -21 1
-23 -15 -15 -26 14 -43 13 -34 -2 5 -8 0 -7 -11 2 -17 13 -18 13 -13 0 4 -10
0 -16 -11 -16 -44 -2 -64 -18 -55 -46 4 -13 1 -16 -11 -12 -10 4 -14 13 -10
22 5 13 3 13 -13 -1 -17 -16 -21 -16 -32 -2 -7 8 -18 15 -24 14 -7 0 -6 -2 2
-6 6 -2 12 -11 12 -18 0 -7 6 -16 13 -18 8 -4 9 -6 0 -6 -6 -1 -18 6 -27 14
-17 17 -30 20 -21 5 3 -5 1 -10 -5 -10 -6 0 -8 -5 -4 -11 4 -8 0 -8 -15 0 -12
7 -21 8 -21 2 0 -5 6 -12 13 -14 7 -4 8 -6 1 -6 -6 -1 -17 6 -24 14 -13 15 -5
20 28 16 19 -3 15 3 -20 29 l-33 23 20 -23 20 -23 -32 5 c-27 4 -31 2 -21 -10
7 -8 13 -21 14 -29 2 -11 -1 -12 -12 -2 -7 6 -12 15 -9 19 3 4 -2 10 -10 14
-8 3 -15 2 -15 -2 0 -9 -46 -10 -55 -1 -3 4 6 10 21 13 14 4 24 9 22 12 -10 9
-68 -18 -61 -29 3 -7 -3 -4 -14 6 -11 9 -27 15 -35 12 -10 -4 -25 6 -42 25
-14 17 -26 28 -26 25 0 -4 -6 -2 -14 4 -7 6 -21 9 -29 5 -20 -7 -95 37 -90 53
3 9 11 8 31 -4 l27 -17 -25 25 c-21 20 -36 24 -94 26 l-70 3 32 -33 c18 -18
29 -37 25 -41 -5 -4 -3 -7 2 -5 6 1 17 0 25 -4 8 -3 22 -8 30 -11 8 -3 -1 -5
-21 -3 -26 2 -35 -1 -32 -10 3 -6 12 -14 21 -16 10 -2 -55 -5 -142 -5 -88 0
-165 2 -170 6 -20 12 -46 12 -43 0 1 -6 -10 -12 -25 -12 -48 -2 -43 -16 6 -16
26 0 56 -5 67 -10 13 -8 19 -7 19 0 0 6 5 8 11 4 8 -4 2 -12 -15 -21 -35 -18
-33 -22 7 -14 46 11 67 2 36 -15 l-24 -13 25 -2 c14 -1 31 -1 38 0 6 1 20 -2
30 -8 12 -7 5 -8 -28 -5 -32 2 -41 1 -30 -6 12 -8 12 -10 -5 -10 -19 0 -19 -1
2 -15 16 -11 28 -13 48 -5 40 15 55 10 18 -6 -18 -8 -33 -19 -33 -24 0 -7 7
-7 21 0 30 17 34 6 7 -20 -22 -22 -22 -22 -1 -11 12 6 25 20 28 31 4 11 11 18
16 14 6 -3 5 -11 -2 -21 -10 -11 0 -10 39 5 54 21 72 15 25 -8 -17 -7 -23 -14
-15 -17 7 -3 30 4 51 14 31 16 38 17 33 5 -4 -12 1 -14 29 -9 19 3 28 3 22 0
-19 -7 -15 -23 4 -16 11 4 14 3 9 -5 -10 -16 3 -15 34 3 33 19 49 19 24 0 -10
-8 -14 -15 -7 -15 6 0 18 7 27 15 19 20 27 19 19 -2 -5 -12 -3 -14 8 -7 8 4
22 7 32 6 10 -2 25 2 33 8 10 9 14 9 14 1 0 -6 -3 -11 -7 -11 -5 0 -17 -13
-28 -28 l-19 -27 33 28 c18 15 39 27 47 27 9 0 13 4 10 9 -4 5 3 7 15 4 16 -4
17 -8 7 -14 -7 -5 -20 -9 -28 -9 -9 0 -24 -10 -34 -21 -18 -22 -18 -22 5 -16
13 4 28 7 32 7 5 0 5 5 2 10 -3 6 -1 10 4 10 20 0 11 -28 -10 -33 -12 -3 -18
-10 -14 -17 4 -6 16 -8 28 -5 12 3 -8 -10 -44 -29 -65 -34 -105 -76 -95 -99 3
-8 5 -7 5 3 1 20 52 62 68 55 8 -2 16 2 19 9 3 8 14 12 26 8 14 -3 19 -1 14 6
-4 6 7 13 26 17 18 4 46 14 62 22 15 8 25 10 22 4 -4 -7 -1 -8 8 -5 9 3 16 11
16 16 0 6 7 8 15 4 8 -3 15 -1 15 4 0 5 10 12 23 16 35 12 47 13 53 3 3 -5 0
-9 -7 -9 -7 0 -9 -3 -6 -6 4 -4 13 -1 21 5 8 7 20 10 25 7 5 -4 13 -1 17 5 5
8 3 9 -7 4 -8 -5 -10 -4 -6 0 4 5 13 10 20 11 7 2 30 10 52 18 23 9 55 13 76
9 23 -3 47 1 67 11 17 9 39 13 48 9 13 -5 15 -3 9 7 -6 10 -4 12 8 7 9 -3 19
-2 21 2 5 8 89 25 92 19 1 -2 11 5 23 16 13 12 29 17 45 14 14 -3 23 -1 20 3
-7 13 13 11 39 -2 21 -12 22 -11 4 8 -16 19 -16 21 -2 27 25 9 32 7 15 -5 -12
-9 -12 -10 3 -5 10 3 26 6 35 6 13 0 13 3 -4 16 -18 14 -17 15 14 11 17 -2 32
0 32 3 0 4 15 12 33 17 17 5 31 14 30 20 -1 5 18 9 43 9 29 -1 44 3 44 12 0
11 15 16 48 15 6 -1 12 3 12 9 0 5 5 6 10 3 6 -3 10 -1 10 4 0 6 -5 11 -12 11
-21 0 2 14 29 18 25 3 76 46 67 55 -2 2 17 11 43 20 27 9 42 16 36 16 -7 1
-13 6 -13 12 0 5 5 7 12 3 8 -5 9 -2 5 9 -3 10 -2 17 3 17 5 0 21 5 37 12 15
6 35 10 43 9 11 -1 10 1 -3 9 -9 6 -23 8 -30 5 -6 -4 -1 3 13 14 14 12 33 19
43 17 9 -2 15 0 11 5 -3 5 0 9 6 9 6 0 8 5 5 10 -3 6 1 10 9 10 9 0 16 7 16
15 0 8 5 15 10 15 6 0 10 7 10 15 0 8 4 15 9 15 5 0 23 13 40 29 17 16 31 27
31 24 0 -3 6 0 14 7 8 6 12 19 9 27 -4 10 -2 14 4 10 6 -4 20 4 31 18 11 14
25 25 31 25 6 0 11 7 11 15 0 8 5 15 10 15 6 0 10 7 10 16 0 8 4 13 8 10 5 -3
16 9 26 26 15 24 21 27 28 17 8 -11 9 -10 4 4 -4 12 0 17 17 18 12 1 26 1 31
0 5 -1 3 6 -5 15 -13 16 -12 17 13 12 23 -4 25 -3 15 14 -9 14 -9 23 2 40 21
34 -39 -19 -118 -104 -36 -39 -115 -111 -176 -160 -60 -49 -115 -93 -122 -98
-16 -13 -26 -13 -17 1 3 6 -5 4 -18 -5 -28 -18 -38 -14 -31 15 3 12 11 18 19
15 8 -3 14 -1 14 4 0 6 -4 10 -8 10 -5 0 -2 27 7 60 13 48 21 62 43 71 15 6
33 18 40 27 11 14 9 14 -15 -1 -37 -24 -53 -13 -31 21 10 15 25 32 33 39 23
18 -1 16 -27 -3 -28 -19 -29 -7 -2 22 19 19 26 48 29 124 1 20 3 22 11 10 7
-10 8 2 6 40 -2 30 -1 49 1 43 7 -19 22 -16 21 5 0 9 3 26 7 36 6 14 5 17 -3
12 -20 -12 -13 10 8 29 11 10 20 13 20 7 0 -7 -4 -12 -10 -12 -5 0 -10 -5 -10
-12 0 -6 9 -3 20 7 16 14 17 20 8 27 -10 6 -10 10 1 17 12 8 12 12 -2 26 -20
19 -23 39 -4 29 6 -4 9 -3 4 1 -4 5 0 19 9 33 8 13 13 26 11 29 -5 5 -57 -70
-57 -82 0 -4 5 -3 12 1 7 5 8 3 4 -5 -5 -7 -11 -10 -14 -7 -3 3 -12 0 -20 -7
-18 -14 -17 -12 36 71 41 65 41 97 0 58 -28 -25 -40 -20 -15 6 14 14 37 52 37
62 0 3 -7 3 -16 -1 -12 -4 -14 0 -8 23 l7 29 -27 -30 c-35 -39 -24 -5 14 45
36 48 48 72 17 35 -22 -26 -26 -28 -32 -13 -4 11 4 31 22 55 15 21 20 32 11
24 -10 -7 -27 -29 -39 -48 -29 -47 -35 -35 -9 17 12 23 19 45 16 48 -3 3 -6 1
-6 -4 0 -6 -7 -19 -16 -30 -8 -10 -13 -13 -9 -7 13 26 12 48 -1 61 -13 11 -14
10 -11 -10 2 -13 2 -17 0 -10 -3 7 -8 10 -13 7 -4 -3 -7 6 -6 19 0 13 4 22 7
20 3 -2 11 9 18 24 10 24 10 25 -3 9 -13 -16 -15 -15 -24 20 l-10 38 1 -43 c0
-23 -3 -45 -6 -49 -6 -5 -12 57 -8 80 1 5 -3 36 -9 70 -5 34 -12 80 -14 102
-2 22 -6 47 -9 55 -3 8 -7 38 -10 67 -4 50 -3 52 29 69 18 10 32 20 30 22 -2
2 -18 -4 -35 -13 -33 -17 -33 -16 -45 30 -8 32 3 -104 14 -165 17 -102 22
-155 25 -295 4 -144 -1 -199 -16 -189 -14 8 -66 124 -75 164 -4 19 -9 29 -12
22 -3 -10 -13 -6 -33 14 -19 18 -29 23 -29 13 -1 -10 -4 -8 -11 5 -9 15 -13
16 -20 5 -7 -12 -9 -11 -9 1 0 12 -2 12 -8 2 -7 -10 -15 -7 -34 13 l-25 25 5
-25 c2 -14 9 -25 15 -25 6 0 7 -3 4 -6 -4 -4 -13 -1 -22 6 -12 10 -15 10 -15
0 0 -9 -4 -9 -17 1 -15 13 -15 12 -4 -8 21 -40 -4 -25 -37 23 -18 25 -30 49
-27 54 6 9 -20 80 -29 80 -3 0 2 -16 10 -35 19 -47 18 -48 -16 -30 -16 9 -30
20 -30 26 0 6 5 7 12 3 7 -4 8 -3 4 5 -4 6 -12 9 -17 6 -5 -4 -9 5 -9 19 0 14
-4 27 -9 30 -5 4 -7 -4 -3 -16 3 -14 2 -19 -6 -14 -7 4 -12 19 -13 34 0 24 -1
25 -9 7 -5 -11 -9 -15 -9 -9 -1 6 -12 22 -25 35 -15 16 -26 41 -30 74 -4 28
-12 57 -17 65 -8 11 -9 9 -5 -10 2 -14 7 -43 11 -65 6 -37 5 -39 -9 -21 -9 11
-16 31 -17 45 0 14 -4 35 -9 46 -6 13 -7 1 -5 -35 2 -30 2 -45 -1 -32 -3 14
-11 21 -19 19 -17 -7 -35 12 -36 38 0 11 -3 14 -6 8 -9 -23 -82 33 -84 64 0
10 -3 13 -5 6 -3 -7 -12 -9 -20 -6 -7 3 -11 10 -7 17 3 6 2 8 -2 3 -5 -4 -15
5 -22 20 -12 26 -12 26 -7 3 5 -23 4 -24 -10 -7 -8 10 -22 20 -32 21 -9 1 -19
13 -21 25 -2 13 1 20 7 16 6 -4 5 4 -1 19 -7 14 -16 23 -22 19 -5 -3 -6 3 -2
16 3 11 3 21 -2 21 -15 0 -13 -41 3 -47 8 -3 14 -9 14 -15 0 -5 -4 -6 -10 -3
-14 9 -13 -8 2 -23 9 -9 9 -12 0 -12 -17 0 -32 43 -32 90 0 21 -4 41 -8 44 -5
3 -7 -9 -5 -27 3 -24 -2 -17 -20 28 -14 33 -31 76 -40 96 -16 36 -94 141 -109
147 -4 2 -6 8 -2 13 3 5 2 8 -3 7 -5 -2 -28 13 -51 33 l-42 36 57 31 c32 17
54 32 48 32 -5 0 -35 -14 -65 -31z m-185 -809 c3 -5 1 -10 -4 -10 -6 0 -11 5
-11 10 0 6 2 10 4 10 3 0 8 -4 11 -10z m203 -35 c-3 -3 -9 2 -12 12 -6 14 -5
15 5 6 7 -7 10 -15 7 -18z m-287 -12 c13 -16 12 -17 -3 -4 -10 7 -18 15 -18
17 0 8 8 3 21 -13z m-102 -64 c-15 -9 -32 -2 -24 11 3 5 13 6 21 3 12 -4 13
-8 3 -14z m444 -69 c9 0 19 -9 22 -21 4 -11 13 -18 20 -15 16 6 28 -20 18 -37
-4 -8 -1 -7 9 1 13 10 16 9 21 -9 3 -12 10 -18 16 -14 6 3 11 1 11 -4 0 -16
-16 -13 -30 4 -20 24 -23 10 -5 -19 16 -23 16 -26 2 -20 -9 3 -16 9 -15 12 1
4 -4 18 -12 32 -7 14 -13 26 -12 28 1 1 -1 3 -4 5 -4 1 -23 17 -42 34 -45 41
-57 34 -14 -8 17 -17 48 -63 68 -103 20 -39 41 -75 46 -81 6 -5 5 1 -2 15
l-13 25 22 -19 c12 -11 20 -24 17 -30 -2 -6 11 -26 28 -45 20 -22 25 -32 14
-28 -22 8 -22 6 -5 -27 8 -14 17 -23 20 -19 4 3 4 -5 1 -18 -3 -13 -8 -41 -11
-62 -4 -26 -9 -34 -14 -25 -6 8 -9 0 -9 -25 0 -41 -21 -70 -57 -81 -13 -4 -23
-12 -23 -17 0 -6 -4 -7 -10 -4 -5 3 -26 -3 -47 -14 -42 -22 -40 -27 4 -10 15
7 35 13 43 14 8 1 26 5 39 9 21 7 23 6 16 -10 -4 -11 -9 -28 -10 -39 -5 -40
-17 -64 -30 -59 -9 4 -12 -1 -8 -14 3 -11 0 -29 -6 -39 -6 -10 -11 -12 -11 -5
0 9 -5 10 -19 3 -13 -7 -17 -18 -14 -36 5 -25 -11 -35 -21 -12 -3 6 -3 0 0
-15 4 -18 2 -28 -6 -28 -6 0 -9 4 -6 8 3 5 -1 9 -9 9 -10 0 -11 -5 -4 -18 7
-14 5 -19 -10 -24 -10 -3 -21 -15 -24 -25 -6 -23 -36 -26 -57 -7 -12 10 -12 9
-1 -5 16 -22 5 -62 -15 -54 -8 3 -13 2 -10 -3 3 -5 -4 -11 -15 -14 -16 -4 -20
-11 -16 -26 3 -12 1 -21 -3 -21 -5 0 -16 -7 -24 -16 -15 -14 -16 -14 -16 0 0
9 -5 16 -11 16 -5 0 -7 -4 -4 -10 3 -5 1 -10 -5 -10 -6 0 -9 -4 -6 -9 4 -5 -3
-7 -14 -4 -11 3 -20 9 -20 14 0 5 7 5 17 2 11 -4 14 -3 9 5 -8 13 -32 16 -39
5 -2 -5 -2 -2 0 5 2 8 -6 16 -17 19 -11 3 -20 12 -20 19 0 8 -5 14 -10 14 -12
0 -32 15 -57 41 -9 9 -24 14 -35 11 -15 -3 -16 -7 -7 -13 8 -5 17 -3 21 4 6 9
8 9 8 -1 0 -7 16 -28 35 -46 52 -49 42 -54 -14 -7 -27 23 -53 41 -59 41 -5 0
-12 8 -16 18 -3 9 -9 24 -12 32 -4 8 1 6 10 -5 13 -16 15 -17 10 -2 -5 14 0
17 24 17 17 0 33 -5 35 -10 3 -6 4 -5 3 2 -3 15 -89 18 -143 6 -35 -8 -45 5
-15 17 9 4 59 22 109 40 78 28 138 58 311 160 52 31 60 41 67 95 8 60 22 129
60 286 40 163 37 177 -71 294 l-59 63 61 -41 c34 -23 68 -42 77 -42z m-554 16
c-2 -2 -17 -6 -34 -10 -22 -5 -26 -4 -15 4 14 9 59 15 49 6z m1530 -103 c12
-26 29 -61 37 -76 8 -16 11 -34 7 -39 -4 -7 -1 -8 7 -3 9 6 10 1 5 -16 -4 -16
-3 -20 3 -11 23 33 74 -76 93 -201 25 -160 -27 -484 -107 -665 -21 -47 -35
-69 -84 -129 -6 -7 -10 -16 -10 -20 -1 -10 -76 -63 -89 -63 -5 0 -16 -6 -23
-13 -12 -11 -149 -76 -173 -82 -5 -1 -21 -7 -35 -12 -14 -6 -58 -21 -97 -34
-40 -12 -73 -26 -73 -30 0 -3 -12 -4 -27 -2 -19 3 -24 2 -15 -5 9 -6 4 -9 -17
-10 -17 0 -38 -8 -47 -16 -14 -14 -36 -20 -71 -19 -7 1 -13 -3 -13 -8 0 -5
-11 -8 -25 -7 -14 1 -25 5 -25 8 0 13 25 30 44 31 14 0 16 3 7 6 -11 4 -8 10
10 26 32 26 -5 2 -59 -39 -23 -17 -38 -35 -34 -39 4 -5 1 -5 -6 -1 -8 5 -21 1
-32 -9 -22 -20 -50 -14 -50 11 0 9 69 84 154 168 149 146 205 219 192 252 -3
8 -2 13 3 10 9 -6 71 127 71 154 0 10 3 20 8 22 4 2 17 21 29 44 19 36 20 44
8 61 -9 12 -10 24 -4 34 5 8 9 10 10 4 1 -5 2 -14 3 -20 0 -5 6 -11 11 -12 6
0 9 4 7 9 -1 6 3 17 10 26 11 13 11 15 -2 8 -9 -4 -8 -1 3 7 9 8 17 17 17 20
0 4 13 35 28 69 54 119 124 315 123 343 0 4 13 35 58 140 5 11 18 41 30 67 25
57 25 58 5 58 -10 0 -14 -5 -10 -16 4 -9 2 -13 -5 -8 -8 4 -9 -1 -5 -17 6 -21
5 -22 -4 -6 -7 10 -9 25 -6 34 7 17 -10 43 -28 43 -6 0 -2 -7 8 -15 11 -8 15
-15 10 -15 -17 0 -33 22 -27 36 3 8 9 12 14 9 4 -3 16 -1 26 4 10 6 34 15 53
19 49 13 81 -6 109 -65z m-1357 46 c142 -2 136 -17 -7 -18 -80 -1 -146 -6
-155 -12 -11 -8 -5 -9 23 -4 45 7 63 -1 46 -21 -13 -16 -33 -19 -24 -4 3 6 2
10 -3 10 -9 0 -25 -36 -24 -51 1 -4 -11 -17 -25 -30 -20 -18 -25 -20 -20 -6 4
9 2 17 -3 17 -6 0 -10 -4 -10 -10 0 -5 -15 -26 -32 -46 -22 -24 -29 -39 -20
-42 6 -2 12 -9 12 -15 0 -8 -4 -7 -12 1 -20 20 -28 14 -29 -25 0 -21 -3 -32
-6 -26 -3 10 -10 10 -25 2 -15 -8 -18 -17 -14 -37 5 -26 5 -26 -9 3 l-14 30
-2 -35 c-2 -19 -2 -46 -1 -60 1 -14 -2 -20 -6 -14 -10 15 -40 25 -47 14 -3 -5
-1 -11 5 -15 6 -4 8 -12 4 -18 -3 -7 2 -3 10 7 15 19 16 18 16 -15 0 -27 -3
-31 -11 -19 -9 12 -10 11 -6 -5 3 -11 7 -27 9 -35 3 -8 3 -12 1 -7 -3 4 -9 4
-15 1 -5 -3 -9 0 -7 7 1 8 1 21 0 29 -1 13 -2 13 -11 0 -5 -8 -7 -33 -4 -55 3
-22 7 -49 8 -61 3 -19 206 -307 227 -319 5 -4 7 -11 4 -16 -7 -10 -59 14 -71
32 -3 6 5 3 20 -6 47 -31 28 -7 -29 36 -32 24 -59 38 -66 33 -7 -4 -9 -3 -6 3
4 6 -19 27 -50 49 -76 52 -100 92 -118 197 -10 60 -24 102 -45 136 -42 67 -39
82 22 133 80 66 120 108 167 175 37 53 52 66 99 83 30 11 74 23 98 27 24 3 44
10 44 15 0 5 9 4 19 -2 11 -5 53 -11 93 -11z m528 -34 c0 -12 -19 -12 -23 0
-4 9 -1 12 9 8 7 -3 14 -7 14 -8z m-589 -22 c-8 -15 -10 -15 -11 -2 0 17 10
32 18 25 2 -3 -1 -13 -7 -23z m54 17 c-3 -5 -14 -10 -23 -9 -14 0 -13 2 3 9
27 11 27 11 20 0z m291 -12 c4 -6 3 -8 -4 -4 -17 10 -25 -13 -10 -31 9 -13 6
-12 -14 2 -14 11 -22 22 -16 24 6 2 4 7 -3 12 -10 6 -6 9 13 9 15 0 30 -5 34
-12z m-66 -2 c0 -3 -4 -8 -10 -11 -5 -3 -10 -1 -10 4 0 6 5 11 10 11 6 0 10
-2 10 -4z m-33 -12 c-3 -3 -12 -4 -19 -1 -8 3 -5 6 6 6 11 1 17 -2 13 -5z
m365 -13 c8 12 9 11 5 -1 -5 -20 -36 -25 -51 -9 -8 9 -8 10 2 5 7 -4 15 0 19
11 7 17 8 17 11 -1 3 -15 6 -16 14 -5z m628 -50 c0 -45 -6 -37 -13 18 -4 29
-2 40 4 30 5 -7 9 -29 9 -48z m-1285 39 c-3 -5 -11 -10 -16 -10 -6 0 -7 5 -4
10 3 6 11 10 16 10 6 0 7 -4 4 -10z m688 -47 c5 -25 3 -31 -8 -27 -11 5 -13
20 -6 63 2 11 9 -7 14 -36z m934 15 c-3 -8 -6 -5 -6 6 -1 11 2 17 5 13 3 -3 4
-12 1 -19z m-970 -10 c-3 -8 -6 -5 -6 6 -1 11 2 17 5 13 3 -3 4 -12 1 -19z
m-32 -8 c3 -5 1 -10 -4 -10 -6 0 -11 5 -11 10 0 6 2 10 4 10 3 0 8 -4 11 -10z
m-235 -22 c0 -19 2 -20 10 -8 8 13 10 12 10 -3 0 -11 5 -15 11 -11 8 5 8 1 0
-14 -7 -14 -8 -23 -1 -27 5 -3 10 -17 10 -30 0 -13 5 -27 10 -30 7 -4 6 -13
-1 -27 -9 -17 -13 -18 -21 -7 -7 10 -8 8 -5 -9 4 -17 -7 -35 -48 -77 -55 -57
-59 -74 -7 -30 39 32 52 15 18 -22 -32 -34 -32 -38 -4 -57 25 -18 17 -22 -12
-6 -23 12 -36 -13 -16 -32 18 -19 18 -26 -1 -46 -17 -18 -19 -18 -42 2 l-24
21 18 -27 c19 -31 10 -38 -12 -10 -13 16 -14 16 -9 -3 7 -24 -8 -53 -18 -36
-4 6 -2 11 4 11 6 0 8 5 5 10 -11 18 -23 10 -21 -14 3 -23 2 -23 -30 -10 -25
11 -33 11 -37 1 -3 -8 -11 -6 -27 8 -20 17 -23 18 -17 3 7 -21 3 -22 -26 -7
-21 11 -20 10 3 -17 l25 -28 -40 29 -40 30 17 -27 c13 -19 15 -29 6 -34 -6 -4
-8 -3 -5 3 8 13 -39 57 -52 48 -16 -9 -14 -28 2 -22 8 3 14 -1 14 -9 0 -19 -7
-18 -33 7 -12 12 -20 27 -17 35 3 8 0 14 -7 14 -6 0 -8 -4 -5 -10 3 -5 2 -10
-4 -10 -5 0 -13 5 -16 10 -9 15 -48 13 -39 -2 4 -8 3 -10 -2 -5 -5 5 -9 14 -9
20 -1 7 -6 11 -13 10 -6 -2 -9 4 -5 12 4 13 8 13 22 3 14 -10 14 -10 3 2 -7 8
-16 15 -20 15 -10 0 -62 41 -62 49 0 3 10 6 23 6 33 0 67 11 67 21 0 5 -6 9
-13 9 -21 0 -64 215 -45 226 4 3 8 -6 8 -19 0 -34 45 -112 83 -142 18 -14 38
-30 45 -36 10 -8 46 -2 135 24 l122 34 36 69 c19 38 46 97 58 132 24 63 41 80
41 40z m-284 -13 c-14 -14 -16 -14 -16 -2 0 9 6 17 13 20 19 7 21 -1 3 -18z
m345 -52 c13 -15 12 -15 -8 -4 -24 12 -29 21 -14 21 5 0 15 -7 22 -17z m-216
-39 c13 -13 30 -21 37 -19 9 4 14 -2 14 -15 0 -11 -3 -20 -6 -20 -3 0 -11 -14
-18 -30 -16 -36 -33 -46 -123 -71 -83 -23 -122 -24 -139 -4 -11 13 -10 14 4 9
19 -7 21 7 4 25 -11 11 -9 12 7 7 11 -3 44 -7 74 -8 49 -2 56 0 82 30 16 17
31 43 35 57 7 29 -2 59 -15 50 -5 -3 -12 -2 -15 3 -12 19 37 8 59 -14z m-85 9
c-8 -3 -21 -10 -28 -16 -9 -7 -11 -6 -6 7 3 9 16 16 28 15 14 0 16 -2 6 -6z
m1550 -3 c0 -5 -5 -10 -11 -10 -5 0 -7 5 -4 10 3 6 8 10 11 10 2 0 4 -4 4 -10z
m13 -55 c-3 -9 -8 -14 -10 -11 -3 3 -2 9 2 15 9 16 15 13 8 -4z m-1933 -45 c0
-5 -4 -10 -10 -10 -5 0 -10 5 -10 10 0 6 5 10 10 10 6 0 10 -4 10 -10z m647
-57 c-3 -3 -11 -2 -17 2 -8 5 -7 11 2 22 12 15 13 14 16 -1 2 -10 1 -20 -1
-23z m1274 -36 c-13 -12 -20 -15 -16 -7 14 26 28 41 33 35 3 -3 -5 -16 -17
-28z m-1297 -53 c9 -24 2 -26 -12 -4 -7 11 -8 20 -3 20 5 0 12 -7 15 -16z
m-844 -78 c0 -3 -4 -8 -10 -11 -5 -3 -10 -1 -10 4 0 6 5 11 10 11 6 0 10 -2
10 -4z m6 -41 c-3 -9 -10 -13 -16 -10 -6 4 -5 11 3 20 15 16 22 11 13 -10z
m1511 -24 c1 -31 0 -33 -8 -13 -5 13 -13 21 -18 18 -5 -3 -7 2 -4 12 8 33 29
21 30 -17z m-1112 -11 c10 -11 16 -20 13 -20 -3 0 -13 9 -23 20 -10 11 -16 20
-13 20 3 0 13 -9 23 -20z m245 -10 c13 -8 13 -10 -2 -10 -9 0 -20 5 -23 10 -8
13 5 13 25 0z m-56 -15 c3 -8 1 -15 -4 -15 -6 0 -10 7 -10 15 0 8 2 15 4 15 2
0 6 -7 10 -15z m881 -46 c-6 -17 -9 -19 -16 -8 -12 19 -11 32 1 24 6 -3 10 -1
10 6 0 7 3 10 6 6 3 -3 3 -15 -1 -28z m-1315 -24 c7 -9 8 -15 2 -15 -5 0 -12
7 -16 15 -3 8 -4 15 -2 15 2 0 9 -7 16 -15z m1910 11 c0 -3 -4 -8 -10 -11 -5
-3 -10 -1 -10 4 0 6 5 11 10 11 6 0 10 -2 10 -4z m-1983 -21 c0 -21 -24 -26
-39 -8 -11 14 -11 16 4 10 10 -3 20 -2 23 3 9 14 12 12 12 -5z m1347 -31 c5
-14 4 -15 -9 -4 -17 14 -19 20 -6 20 5 0 12 -7 15 -16z m37 -21 c13 -16 12
-17 -3 -4 -10 7 -18 15 -18 17 0 8 8 3 21 -13z m-1 -26 c0 -2 -8 -3 -18 -3
-10 0 -19 6 -19 13 0 8 6 9 19 2 10 -5 18 -11 18 -12z m-32 -48 c-3 -8 -7 -3
-11 10 -4 17 -3 21 5 13 5 -5 8 -16 6 -23z m-1043 -39 c3 -6 -1 -7 -9 -4 -18
7 -21 14 -7 14 6 0 13 -4 16 -10z m529 -22 c-5 -17 -3 -20 10 -15 16 6 36 -19
36 -46 0 -14 -43 23 -80 69 -14 16 -13 17 3 11 9 -3 17 -2 17 4 0 6 5 7 10 4
6 -4 8 -16 4 -27z m491 0 c5 4 5 1 1 -6 -6 -10 -11 -10 -22 -1 -8 6 -14 17
-14 23 0 6 7 3 14 -6 7 -10 17 -14 21 -10z m-537 -13 c-3 -3 -9 2 -12 12 -6
14 -5 15 5 6 7 -7 10 -15 7 -18z m132 -60 c19 -22 20 -26 5 -15 -24 18 -35 32
-35 44 0 5 1 7 3 5 1 -2 13 -17 27 -34z m175 5 c3 -5 1 -10 -4 -10 -6 0 -11 5
-11 10 0 6 2 10 4 10 3 0 8 -4 11 -10z m45 -20 c0 -5 -2 -10 -4 -10 -3 0 -8 5
-11 10 -3 6 -1 10 4 10 6 0 11 -4 11 -10z m64 -6 c3 -8 2 -12 -4 -9 -6 3 -10
10 -10 16 0 14 7 11 14 -7z m51 -12 c-3 -3 -11 0 -18 7 -9 10 -8 11 6 5 10 -3
15 -9 12 -12z m-74 -29 c13 -16 12 -17 -3 -4 -17 13 -22 21 -14 21 2 0 10 -8
17 -17z m-20 -10 c13 -16 12 -17 -3 -4 -17 13 -22 21 -14 21 2 0 10 -8 17 -17z
m-678 -274 l32 -31 -37 27 c-21 15 -38 29 -38 31 0 10 14 1 43 -27z m548 14
c13 -16 12 -17 -3 -4 -17 13 -22 21 -14 21 2 0 10 -8 17 -17z m-94 -18 c0 -17
-13 -20 -21 -6 -4 5 0 12 6 14 7 3 13 6 14 6 0 1 1 -6 1 -14z m-882 -25 c3 -6
-1 -7 -9 -4 -18 7 -21 14 -7 14 6 0 13 -4 16 -10z m51 -102 c4 -7 4 -10 -1 -6
-4 4 -14 3 -22 -3 -13 -11 -19 2 -6 14 10 11 21 8 29 -5z m79 2 c-3 -5 -12
-10 -18 -10 -7 0 -6 4 3 10 19 12 23 12 15 0z m275 6 c0 -2 -7 -7 -16 -10 -8
-3 -12 -2 -9 4 6 10 25 14 25 6z m-270 -36 c0 -5 -2 -10 -4 -10 -3 0 -8 5 -11
10 -3 6 -1 10 4 10 6 0 11 -4 11 -10z m175 -10 c-3 -5 -12 -10 -18 -10 -7 0
-6 4 3 10 19 12 23 12 15 0z m85 0 c0 -5 -5 -10 -11 -10 -5 0 -7 5 -4 10 3 6
8 10 11 10 2 0 4 -4 4 -10z m-56 -25 c-10 -8 -23 -14 -29 -14 -5 0 -1 6 9 14
11 8 24 15 30 15 5 0 1 -7 -10 -15z m236 -55 c0 -5 -8 -10 -17 -10 -15 0 -16
2 -3 10 19 12 20 12 20 0z m10 -30 c-8 -5 -19 -10 -25 -10 -5 0 -3 5 5 10 8 5
20 10 25 10 6 0 3 -5 -5 -10z"/>
<path d="M4110 5390 c-8 -5 -10 -10 -5 -10 6 0 17 5 25 10 8 5 11 10 5 10 -5
0 -17 -5 -25 -10z"/>
<path d="M4040 5365 c-19 -7 -28 -14 -20 -14 8 0 29 6 45 14 39 17 21 18 -25
0z"/>
<path d="M4069 5280 c20 -19 43 -44 51 -54 14 -18 13 -19 -15 -12 l-30 7 24
-17 c13 -9 26 -13 30 -8 8 12 34 11 44 -1 5 -6 7 -4 5 4 -2 8 -12 15 -23 17
-10 1 -28 13 -39 26 -12 13 -35 35 -52 48 -24 20 -23 18 5 -10z"/>
<path d="M4034 5251 c21 -23 26 -26 26 -11 0 5 -10 15 -22 21 -23 12 -23 12
-4 -10z"/>
<path d="M5225 6130 c3 -5 8 -10 11 -10 2 0 4 5 4 10 0 6 -5 10 -11 10 -5 0
-7 -4 -4 -10z"/>
<path d="M5422 5895 c0 -16 2 -22 5 -12 2 9 2 23 0 30 -3 6 -5 -1 -5 -18z"/>
<path d="M5383 5801 c-18 -26 -33 -52 -33 -57 0 -5 8 3 18 17 9 15 25 38 36
53 10 15 17 28 15 30 -2 2 -19 -17 -36 -43z"/>
<path d="M5332 5670 c0 -14 2 -19 5 -12 2 6 2 18 0 25 -3 6 -5 1 -5 -13z"/>
<path d="M5321 5624 c0 -11 3 -14 6 -6 3 7 2 16 -1 19 -3 4 -6 -2 -5 -13z"/>
<path d="M4774 4858 l-19 -23 23 19 c12 11 22 21 22 23 0 8 -8 2 -26 -19z"/>
<path d="M4720 4720 c8 -5 20 -10 25 -10 6 0 3 5 -5 10 -8 5 -19 10 -25 10 -5
0 -3 -5 5 -10z"/>
<path d="M3780 6110 c-8 -5 -10 -10 -5 -10 6 0 17 5 25 10 8 5 11 10 5 10 -5
0 -17 -5 -25 -10z"/>
<path d="M3801 6064 c0 -11 3 -14 6 -6 3 7 2 16 -1 19 -3 4 -6 -2 -5 -13z"/>
<path d="M3771 6044 c0 -11 3 -14 6 -6 3 7 2 16 -1 19 -3 4 -6 -2 -5 -13z"/>
<path d="M3659 6023 c-13 -16 -12 -17 4 -4 16 13 21 21 13 21 -2 0 -10 -8 -17
-17z"/>
<path d="M3585 5939 c-4 -6 -5 -12 -2 -15 2 -3 7 2 10 11 7 17 1 20 -8 4z"/>
<path d="M3512 5860 c-7 -11 -12 -28 -12 -37 1 -10 7 -3 16 16 16 38 14 50 -4
21z"/>
<path d="M3596 5813 c-6 -14 -5 -15 5 -6 7 7 10 15 7 18 -3 3 -9 -2 -12 -12z"/>
<path d="M3491 5783 c-1 -11 10 -45 24 -75 14 -29 25 -47 25 -40 0 7 -8 27
-17 45 -9 18 -20 46 -24 62 -5 22 -7 24 -8 8z"/>
<path d="M3555 5740 c2 -27 15 -38 15 -12 0 11 -4 23 -8 26 -5 3 -8 -4 -7 -14z"/>
<path d="M3547 5656 c-3 -8 3 -25 13 -38 l19 -23 -9 34 c-11 41 -16 46 -23 27z"/>
<path d="M4165 5695 c-5 -2 -36 -9 -68 -15 -32 -7 -56 -14 -54 -17 8 -7 120
16 131 27 10 10 9 11 -9 5z"/>
<path d="M3990 5650 c-18 -12 -2 -12 25 0 13 6 15 9 5 9 -8 0 -22 -4 -30 -9z"/>
<path d="M3915 5620 c-3 -6 1 -7 9 -4 18 7 21 14 7 14 -6 0 -13 -4 -16 -10z"/>
<path d="M4200 5589 c0 -5 -6 -7 -12 -3 -7 4 -9 3 -5 -1 13 -15 37 -14 37 1 0
8 -4 14 -10 14 -5 0 -10 -5 -10 -11z"/>
<path d="M3955 5550 c10 -11 20 -20 23 -20 3 0 -3 9 -13 20 -10 11 -20 20 -23
20 -3 0 3 -9 13 -20z"/>
<path d="M3449 6943 c-13 -16 -12 -17 4 -4 9 7 17 15 17 17 0 8 -8 3 -21 -13z"/>
<path d="M3449 6893 l-24 -28 28 24 c25 23 32 31 24 31 -2 0 -14 -12 -28 -27z"/>
<path d="M4340 6836 c0 -2 28 -24 63 -48 83 -59 92 -64 83 -49 -10 16 -146
107 -146 97z"/>
<path d="M3249 6753 c-13 -16 -12 -17 4 -4 16 13 21 21 13 21 -2 0 -10 -8 -17
-17z"/>
<path d="M4604 6749 c-3 -6 -1 -16 4 -21 8 -8 11 -5 9 11 -1 24 -3 25 -13 10z"/>
<path d="M3202 6718 c-7 -7 -12 -44 -12 -94 0 -82 0 -83 -27 -87 -27 -4 -27
-4 4 -6 17 0 33 -7 36 -13 3 -7 2 29 -1 80 -4 80 -3 95 13 112 19 21 7 28 -13
8z"/>
<path d="M4610 6701 c0 -6 4 -12 8 -15 5 -3 9 1 9 9 0 8 -4 15 -9 15 -4 0 -8
-4 -8 -9z"/>
<path d="M4736 6670 c3 -19 13 -42 21 -50 14 -13 15 -13 7 0 -5 8 -14 31 -21
50 l-12 35 5 -35z"/>
<path d="M4687 6660 c3 -11 9 -20 14 -20 4 0 7 9 6 20 -1 11 -7 20 -13 20 -7
0 -10 -8 -7 -20z"/>
<path d="M4056 6659 c3 -5 13 -9 23 -9 10 0 35 -7 56 -16 20 -8 39 -13 42 -11
5 5 -46 25 -94 37 -19 5 -31 4 -27 -1z"/>
<path d="M4867 6599 c4 -13 8 -18 11 -10 2 7 -1 18 -6 23 -8 8 -9 4 -5 -13z"/>
<path d="M3888 6577 c-26 -17 -48 -36 -48 -41 0 -5 8 -2 18 7 10 10 23 17 29
17 5 0 20 11 33 25 31 33 25 31 -32 -8z"/>
<path d="M4821 6594 c0 -11 3 -14 6 -6 3 7 2 16 -1 19 -3 4 -6 -2 -5 -13z"/>
<path d="M4750 6586 c0 -9 5 -16 10 -16 6 0 10 4 10 9 0 6 -4 13 -10 16 -5 3
-10 -1 -10 -9z"/>
<path d="M3813 6527 c-6 -7 -30 -23 -52 -36 -22 -14 -39 -26 -37 -28 6 -7 106
58 106 68 0 12 -2 11 -17 -4z"/>
<path d="M3098 6523 c6 -2 18 -2 25 0 6 3 1 5 -13 5 -14 0 -19 -2 -12 -5z"/>
<path d="M3201 6453 c-10 -26 -10 -27 4 -9 8 11 15 23 15 28 0 15 -7 8 -19
-19z"/>
<path d="M4922 6460 c0 -14 2 -19 5 -12 2 6 2 18 0 25 -3 6 -5 1 -5 -13z"/>
<path d="M4953 6463 c-9 -3 -10 -10 -3 -24 13 -24 30 -25 30 -1 0 15 -2 15
-11 2 -9 -12 -10 -11 -6 8 3 12 4 22 4 21 -1 0 -8 -3 -14 -6z"/>
<path d="M3625 6426 c-66 -31 -109 -75 -92 -93 4 -3 7 0 7 9 0 22 39 54 90 74
46 18 92 45 75 43 -6 0 -42 -15 -80 -33z"/>
<path d="M4370 6376 c0 -2 8 -10 18 -17 15 -13 16 -12 3 4 -13 16 -21 21 -21
13z"/>
<path d="M3508 6306 c-10 -7 -15 -16 -11 -19 3 -4 -1 -9 -10 -13 -16 -6 -94
-94 -83 -94 2 0 21 17 41 38 24 24 39 33 42 25 8 -20 23 -15 23 8 0 11 5 29
11 41 13 25 9 30 -13 14z"/>
<path d="M5111 6284 c-1 -11 6 -29 15 -40 8 -10 12 -13 9 -6 -4 8 -11 26 -15
40 -7 22 -8 23 -9 6z"/>
<path d="M5513 6275 c-3 -9 -3 -18 -1 -21 3 -3 8 4 11 16 6 23 -1 27 -10 5z"/>
<path d="M5150 6270 c0 -5 5 -10 11 -10 5 0 7 5 4 10 -3 6 -8 10 -11 10 -2 0
-4 -4 -4 -10z"/>
<path d="M5226 6267 c3 -10 9 -15 12 -12 3 3 0 11 -7 18 -10 9 -11 8 -5 -6z"/>
<path d="M3720 6176 c7 -7 13 -7 20 0 6 6 3 10 -10 10 -13 0 -16 -4 -10 -10z"/>
<path d="M3330 6119 l-55 -51 52 42 c46 37 71 61 61 60 -2 0 -28 -23 -58 -51z"/>
<path d="M3160 6061 c0 -6 4 -13 10 -16 6 -3 7 1 4 9 -7 18 -14 21 -14 7z"/>
<path d="M3255 6049 c-4 -6 -5 -12 -2 -15 2 -3 7 2 10 11 7 17 1 20 -8 4z"/>
<path d="M3215 6002 c-27 -24 -70 -72 -64 -72 3 0 25 20 49 45 44 45 53 60 15
27z"/>
<path d="M5606 6001 c-4 -7 -5 -15 -2 -18 9 -9 19 4 14 18 -4 11 -6 11 -12 0z"/>
<path d="M4621 5794 c0 -11 3 -14 6 -6 3 7 2 16 -1 19 -3 4 -6 -2 -5 -13z"/>
<path d="M3014 5778 l-19 -23 23 19 c21 18 27 26 19 26 -2 0 -12 -10 -23 -22z"/>
<path d="M2959 5713 l-24 -28 28 24 c25 23 32 31 24 31 -2 0 -14 -12 -28 -27z"/>
<path d="M5590 5640 c-6 -11 -8 -20 -6 -20 3 0 10 9 16 20 6 11 8 20 6 20 -3
0 -10 -9 -16 -20z"/>
<path d="M4572 5610 c0 -14 2 -19 5 -12 2 6 2 18 0 25 -3 6 -5 1 -5 -13z"/>
<path d="M4916 5608 c-8 -32 -8 -35 7 -35 9 0 12 10 9 29 -5 34 -8 35 -16 6z"/>
<path d="M2901 5594 c0 -11 3 -14 6 -6 3 7 2 16 -1 19 -3 4 -6 -2 -5 -13z"/>
<path d="M4556 5504 c-4 -42 -15 -93 -26 -113 -19 -37 -70 -90 -105 -109 -11
-6 -15 -12 -9 -12 25 0 81 49 111 99 24 41 33 69 38 127 4 41 5 77 3 80 -3 2
-8 -30 -12 -72z"/>
<path d="M5556 5563 c-6 -14 -5 -15 5 -6 7 7 10 15 7 18 -3 3 -9 -2 -12 -12z"/>
<path d="M4880 5501 c0 -6 4 -13 10 -16 6 -3 7 1 4 9 -7 18 -14 21 -14 7z"/>
<path d="M3420 5450 c0 -5 5 -10 11 -10 5 0 7 5 4 10 -3 6 -8 10 -11 10 -2 0
-4 -4 -4 -10z"/>
<path d="M5924 5388 c0 -7 18 -31 39 -53 l39 -40 -37 53 c-40 56 -42 58 -41
40z"/>
<path d="M5519 5333 c-13 -16 -12 -17 4 -4 9 7 17 15 17 17 0 8 -8 3 -21 -13z"/>
<path d="M3257 5323 c-4 -3 -7 -16 -6 -27 0 -19 1 -19 10 3 10 24 8 36 -4 24z"/>
<path d="M4375 5260 c-3 -6 1 -7 9 -4 18 7 21 14 7 14 -6 0 -13 -4 -16 -10z"/>
<path d="M5505 5260 c-3 -6 1 -7 9 -4 18 7 21 14 7 14 -6 0 -13 -4 -16 -10z"/>
<path d="M4729 5223 c34 -45 51 -60 51 -46 0 12 -18 32 -54 63 l-30 25 33 -42z"/>
<path d="M2895 5220 c10 -11 20 -20 23 -20 3 0 -3 9 -13 20 -10 11 -20 20 -23
20 -3 0 3 -9 13 -20z"/>
<path d="M3260 5233 c0 -6 8 -17 18 -24 16 -13 16 -13 2 6 -8 11 -16 22 -17
24 -2 2 -3 0 -3 -6z"/>
<path d="M3300 5196 c0 -3 9 -10 20 -16 11 -6 20 -8 20 -6 0 3 -9 10 -20 16
-11 6 -20 8 -20 6z"/>
<path d="M4465 5175 c12 -12 20 -26 17 -33 -2 -7 5 -10 19 -7 30 6 30 6 -4 40
-17 17 -27 24 -23 18 8 -14 -4 -17 -20 -5 -5 4 0 -2 11 -13z"/>
<path d="M2942 5176 c7 -8 15 -12 17 -11 5 6 -10 25 -20 25 -5 0 -4 -6 3 -14z"/>
<path d="M3350 5165 c0 -2 17 -13 38 -24 20 -11 67 -48 103 -84 62 -60 147
-117 173 -117 6 0 -13 14 -43 30 -30 17 -84 59 -120 94 -56 54 -151 118 -151
101z"/>
<path d="M5624 5145 c-10 -8 -14 -15 -8 -15 6 0 17 7 24 15 16 19 9 19 -16 0z"/>
<path d="M2990 5131 c0 -5 7 -12 16 -15 14 -5 15 -4 4 9 -14 17 -20 19 -20 6z"/>
<path d="M3050 5075 c13 -14 26 -25 28 -25 3 0 -5 11 -18 25 -13 14 -26 25
-28 25 -3 0 5 -11 18 -25z"/>
<path d="M2899 5031 c12 -7 10 -22 -8 -88 -11 -44 -21 -97 -20 -119 1 -32 3
-27 14 31 7 39 21 89 30 112 15 37 19 41 32 28 8 -8 23 -15 33 -15 10 0 21 -4
24 -9 6 -10 64 -25 85 -22 8 2 10 -2 5 -10 -4 -7 -3 -10 4 -5 6 3 14 1 17 -5
4 -5 13 -8 20 -5 8 3 24 -3 37 -13 13 -10 38 -22 56 -25 17 -4 32 -11 32 -16
0 -4 7 -7 16 -6 9 0 19 -5 21 -12 3 -8 -1 -10 -13 -5 -12 4 -15 3 -10 -5 8
-14 36 -16 36 -3 0 5 25 0 55 -12 30 -11 55 -24 55 -28 0 -5 9 -9 20 -9 39 0
19 17 -50 44 -38 15 -86 38 -105 52 -20 13 -38 24 -41 24 -3 0 -12 7 -21 15
-8 8 -19 13 -24 10 -13 -9 -142 32 -226 71 -68 32 -105 44 -74 25z"/>
<path d="M3110 5015 c13 -14 26 -25 28 -25 3 0 -5 11 -18 25 -13 14 -26 25
-28 25 -3 0 5 -11 18 -25z"/>
<path d="M4208 4943 c7 -3 16 -2 19 1 4 3 -2 6 -13 5 -11 0 -14 -3 -6 -6z"/>
<path d="M4428 4943 c12 -2 30 -2 40 0 9 3 -1 5 -23 4 -22 0 -30 -2 -17 -4z"/>
<path d="M4068 4933 c6 -2 18 -2 25 0 6 3 1 5 -13 5 -14 0 -19 -2 -12 -5z"/>
<path d="M3998 4923 c12 -2 30 -2 40 0 9 3 -1 5 -23 4 -22 0 -30 -2 -17 -4z"/>
<path d="M3928 4913 c7 -3 16 -2 19 1 4 3 -2 6 -13 5 -11 0 -14 -3 -6 -6z"/>
<path d="M3776 4847 c3 -10 9 -15 12 -12 3 3 0 11 -7 18 -10 9 -11 8 -5 -6z"/>
<path d="M3300 4809 c0 -5 10 -9 22 -9 12 0 18 3 14 7 -10 11 -36 12 -36 2z"/>
<path d="M4373 4809 c9 -6 14 -16 11 -22 -5 -8 -2 -7 7 1 12 11 12 14 -1 22
-8 5 -19 10 -25 10 -5 -1 -2 -5 8 -11z"/>
<path d="M4105 4791 c-3 -5 -2 -12 3 -15 5 -3 9 1 9 9 0 17 -3 19 -12 6z"/>
<path d="M3358 4783 c6 -2 18 -2 25 0 6 3 1 5 -13 5 -14 0 -19 -2 -12 -5z"/>
<path d="M3385 4760 c-3 -5 -1 -10 4 -10 6 0 11 5 11 10 0 6 -2 10 -4 10 -3 0
-8 -4 -11 -10z"/>
<path d="M3450 4738 c0 -11 22 -10 39 1 10 7 7 9 -12 8 -15 -1 -27 -5 -27 -9z"/>
<path d="M3830 4560 c-9 -6 -10 -10 -3 -10 6 0 15 5 18 10 8 12 4 12 -15 0z"/>
<path d="M4485 4560 c-3 -5 -2 -10 4 -10 5 0 13 5 16 10 3 6 2 10 -4 10 -5 0
-13 -4 -16 -10z"/>
<path d="M4450 4550 c-9 -6 -10 -10 -3 -10 6 0 15 5 18 10 8 12 4 12 -15 0z"/>
<path d="M4299 4513 c-13 -16 -12 -17 4 -4 9 7 17 15 17 17 0 8 -8 3 -21 -13z"/>
<path d="M4053 4486 c0 -8 6 -12 14 -9 7 3 10 9 7 14 -8 14 -21 11 -21 -5z"/>
<path d="M2940 4486 c0 -2 8 -10 18 -17 15 -13 16 -12 3 4 -13 16 -21 21 -21
13z"/>
<path d="M3010 4428 c0 -3 14 -21 32 -39 17 -19 26 -25 20 -14 -10 21 -52 62
-52 53z"/>
<path d="M5284 4394 l-22 -15 21 -42 c19 -40 57 -96 85 -125 6 -7 12 -15 12
-18 0 -4 -59 19 -84 33 -21 13 -63 66 -71 92 -4 15 -10 20 -17 13 -9 -9 1 -27
41 -69 7 -7 11 -16 8 -19 -8 -9 -45 18 -58 43 -14 27 -27 29 -35 8 -4 -8 -10
-13 -14 -10 -4 3 -28 -6 -52 -20 -41 -23 -92 -38 -172 -50 -16 -3 -30 -6 -31
-7 -2 -2 1 -27 5 -56 3 -29 3 -82 -2 -118 -7 -47 -5 -71 4 -91 19 -38 40 -43
26 -5 -10 25 -7 36 24 88 19 33 44 85 56 115 l20 54 12 -29 c6 -17 24 -60 40
-97 16 -36 39 -106 50 -155 25 -105 50 -395 50 -581 0 -87 4 -133 11 -133 5 0
9 8 8 18 -1 9 2 25 6 36 9 20 -1 413 -12 461 -5 26 -7 27 -13 10 -5 -13 -10 7
-14 55 -4 41 -12 91 -17 111 -12 48 -20 189 -10 189 4 0 12 -17 19 -37 l11
-38 -5 35 c-4 32 -3 33 7 10 6 -14 8 -37 5 -52 -4 -20 -1 -28 9 -28 11 0 14
-10 10 -45 -3 -33 -1 -47 9 -51 8 -3 14 -15 13 -27 0 -12 8 -83 18 -157 10
-74 21 -238 25 -365 l7 -230 -3 255 c-1 140 -4 271 -6 290 -19 157 -30 460
-17 460 16 0 97 -86 165 -175 70 -93 122 -178 165 -267 16 -35 27 -52 23 -38
-12 45 -79 174 -137 262 -56 85 -70 113 -44 86 26 -27 157 -229 188 -290 18
-34 47 -103 66 -153 18 -49 31 -74 27 -55 -15 87 -147 345 -228 447 -128 161
-190 233 -199 233 -6 0 -8 2 -5 6 3 3 2 20 -2 38 l-7 34 51 -24 c69 -31 122
-43 110 -23 -4 7 -21 25 -37 38 -15 13 -43 54 -62 91 -31 62 -33 68 -17 83 20
21 14 21 -14 1z m-289 -231 c-4 -27 -22 -74 -41 -105 -36 -59 -64 -88 -50 -52
4 10 10 58 13 106 l6 87 31 4 c17 2 35 5 40 5 4 1 5 -19 1 -45z m209 -162 c-8
-8 -12 5 -18 54 l-6 50 14 -50 c8 -27 12 -52 10 -54z m-11 -389 c2 -34 0 -57
-5 -50 -4 7 -7 42 -7 78 1 75 6 63 12 -28z"/>
<path d="M4012 4282 c13 -15 118 -66 124 -60 1 2 -29 19 -67 39 -38 20 -64 29
-57 21z"/>
<path d="M3102 4250 c0 -14 2 -19 5 -12 2 6 2 18 0 25 -3 6 -5 1 -5 -13z"/>
<path d="M3110 4214 c0 -17 47 -57 62 -51 9 4 8 6 -4 6 -9 1 -26 13 -37 29
-11 15 -21 22 -21 16z"/>
<path d="M4150 4214 c0 -6 72 -38 83 -36 4 1 7 -2 7 -7 0 -6 -18 -20 -40 -32
-60 -34 -40 -35 26 -1 33 16 65 27 73 24 8 -3 11 0 7 7 -4 6 -16 11 -26 11
-11 0 -42 9 -70 20 -55 22 -60 23 -60 14z"/>
<path d="M4708 4203 c16 -6 15 -38 -3 -100 -19 -64 -48 -100 -88 -112 l-32 -9
33 -1 c71 -2 122 38 206 162 l46 67 -48 -1 c-29 -1 -37 -4 -19 -6 l28 -4 -23
-40 c-12 -21 -26 -39 -30 -39 -5 0 -6 -4 -3 -10 3 -5 1 -10 -4 -10 -6 0 -10
-6 -8 -12 1 -7 -4 -12 -11 -10 -8 1 -11 -2 -7 -8 3 -5 -1 -10 -10 -10 -8 0
-18 -6 -21 -14 -3 -8 -12 -17 -19 -20 -10 -3 -8 7 7 36 12 22 27 64 34 94 l12
54 -26 -1 c-15 0 -21 -3 -14 -6z"/>
<path d="M5172 3930 c0 -14 2 -19 5 -12 2 6 2 18 0 25 -3 6 -5 1 -5 -13z"/>
<path d="M5176 3862 c-3 -6 -1 -14 5 -17 15 -10 25 3 12 16 -7 7 -13 7 -17 1z"/>
<path d="M6740 3610 c-19 -4 -29 -8 -22 -9 7 0 10 -6 6 -13 -5 -8 -2 -9 12 -4
36 14 110 25 144 21 19 -2 55 -6 80 -9 45 -6 45 -6 10 6 -43 13 -183 19 -230
8z"/>
<path d="M5600 3585 c0 -5 5 -17 10 -25 5 -8 10 -10 10 -5 0 6 -5 17 -10 25
-5 8 -10 11 -10 5z"/>
<path d="M7028 3583 c7 -3 16 -2 19 1 4 3 -2 6 -13 5 -11 0 -14 -3 -6 -6z"/>
<path d="M7100 3570 c14 -4 34 -8 45 -8 16 0 15 2 -5 8 -14 4 -34 8 -45 8 -16
0 -15 -2 5 -8z"/>
<path d="M7189 3533 c-13 -15 -12 -15 8 -5 23 13 66 16 76 6 3 -3 1 -19 -5
-35 -16 -47 -4 -43 20 6 l22 45 -54 0 c-38 0 -58 -5 -67 -17z"/>
<path d="M5641 3474 c0 -11 3 -14 6 -6 3 7 2 16 -1 19 -3 4 -6 -2 -5 -13z"/>
<path d="M6339 3451 c-32 -26 -115 -121 -107 -121 2 0 37 34 78 75 78 79 88
95 29 46z"/>
<path d="M5701 3414 c0 -11 3 -14 6 -6 3 7 2 16 -1 19 -3 4 -6 -2 -5 -13z"/>
<path d="M5661 3394 c0 -11 3 -14 6 -6 3 7 2 16 -1 19 -3 4 -6 -2 -5 -13z"/>
<path d="M5671 3354 c0 -11 3 -14 6 -6 3 7 2 16 -1 19 -3 4 -6 -2 -5 -13z"/>
<path d="M5711 3344 c0 -11 3 -14 6 -6 3 7 2 16 -1 19 -3 4 -6 -2 -5 -13z"/>
<path d="M5723 3275 c0 -27 2 -38 4 -22 2 15 2 37 0 50 -2 12 -4 0 -4 -28z"/>
<path d="M6212 3308 c-16 -21 -44 -80 -39 -84 2 -2 16 18 30 46 26 49 29 62 9
38z"/>
<path d="M7147 3290 c-9 -11 -17 -24 -17 -28 0 -4 -11 -20 -25 -36 -14 -16
-25 -32 -25 -35 1 -10 60 62 76 92 17 32 15 34 -9 7z"/>
<path d="M5681 3264 c0 -11 3 -14 6 -6 3 7 2 16 -1 19 -3 4 -6 -2 -5 -13z"/>
<path d="M6333 3214 c-15 -20 -45 -45 -68 -55 -42 -19 -96 -50 -105 -60 -3 -3
-14 -9 -25 -14 -17 -7 -17 -9 -4 -12 9 -2 32 5 50 16 19 11 52 29 75 40 22 11
47 27 54 36 7 9 19 14 26 11 7 -3 16 -1 19 4 3 4 0 10 -7 12 -9 3 -8 12 5 31
25 39 13 33 -20 -9z"/>
<path d="M6161 3194 c0 -11 3 -14 6 -6 3 7 2 16 -1 19 -3 4 -6 -2 -5 -13z"/>
<path d="M5692 3170 c0 -19 2 -27 5 -17 2 9 2 25 0 35 -3 9 -5 1 -5 -18z"/>
<path d="M5182 3170 c0 -14 2 -19 5 -12 2 6 2 18 0 25 -3 6 -5 1 -5 -13z"/>
<path d="M6385 3170 c-16 -7 -17 -9 -3 -9 9 -1 20 4 23 9 7 11 7 11 -20 0z"/>
<path d="M7042 3160 c-12 -12 -22 -26 -22 -32 0 -6 12 1 27 16 31 31 27 45 -5
16z"/>
<path d="M5732 3145 c0 -16 2 -22 5 -12 2 9 2 23 0 30 -3 6 -5 -1 -5 -18z"/>
<path d="M6141 3143 c-1 -6 -4 -20 -7 -30 -5 -17 -5 -17 6 0 6 10 9 23 6 30
-3 9 -5 9 -5 0z"/>
<path d="M5183 3075 c0 -38 2 -53 4 -32 2 20 2 52 0 70 -2 17 -4 1 -4 -38z"/>
<path d="M5692 3100 c0 -14 2 -19 5 -12 2 6 2 18 0 25 -3 6 -5 1 -5 -13z"/>
<path d="M5726 3048 c-4 -35 -6 -90 -6 -123 1 -33 1 -78 1 -99 -1 -24 6 -47
17 -59 16 -19 16 -19 -7 -12 -20 6 -22 5 -11 -6 23 -25 58 -19 72 11 7 16 16
26 20 24 4 -3 8 0 8 5 0 6 -5 11 -11 11 -5 0 -8 4 -4 10 3 5 13 6 22 3 12 -5
15 -2 10 10 -3 8 -3 17 1 19 4 2 32 30 62 63 46 49 40 45 -34 -23 -49 -45 -95
-82 -102 -82 -18 0 -19 7 -23 233 -1 42 -3 77 -5 77 -2 0 -7 -28 -10 -62z"/>
<path d="M6964 3095 c-10 -8 -15 -15 -10 -15 5 0 2 -8 -5 -17 -13 -16 -12 -17
3 -4 10 7 15 17 12 22 -3 5 4 9 15 9 11 0 23 5 26 10 9 15 -19 12 -41 -5z"/>
<path d="M6778 3083 c12 -2 30 -2 40 0 9 3 -1 5 -23 4 -22 0 -30 -2 -17 -4z"/>
<path d="M5268 3020 c-2 -22 0 -40 4 -40 5 0 8 18 8 40 0 22 -2 40 -4 40 -2 0
-6 -18 -8 -40z"/>
<path d="M5691 3044 c0 -11 3 -14 6 -6 3 7 2 16 -1 19 -3 4 -6 -2 -5 -13z"/>
<path d="M6898 3033 c6 -2 18 -2 25 0 6 3 1 5 -13 5 -14 0 -19 -2 -12 -5z"/>
<path d="M6108 3023 c-10 -2 -18 -9 -18 -14 0 -5 -6 -9 -13 -9 -7 0 -26 -12
-43 -27 -17 -16 -23 -23 -15 -17 49 35 101 56 123 51 13 -4 43 -23 66 -42 23
-20 42 -33 42 -30 0 4 6 3 13 -3 24 -20 140 -52 206 -56 l66 -5 -77 14 c-42 7
-84 18 -95 23 -10 6 -21 11 -25 11 -27 5 -96 42 -113 61 -18 20 -79 52 -94 49
-3 -1 -14 -3 -23 -6z"/>
<path d="M6853 3001 c-18 -9 -33 -21 -33 -27 0 -13 -43 -34 -70 -34 -11 0 -20
-4 -20 -9 0 -4 -27 -14 -60 -21 -33 -7 -57 -16 -55 -20 13 -21 151 31 233 87
68 47 70 57 5 24z"/>
<path d="M5181 2984 c0 -11 3 -14 6 -6 3 7 2 16 -1 19 -3 4 -6 -2 -5 -13z"/>
<path d="M5682 2950 c0 -19 2 -27 5 -17 2 9 2 25 0 35 -3 9 -5 1 -5 -18z"/>
<path d="M5263 2882 c-1 -72 0 -79 7 -42 11 58 12 130 3 130 -5 0 -9 -40 -10
-88z"/>
<path d="M5173 2910 c0 -25 2 -35 4 -22 2 12 2 32 0 45 -2 12 -4 2 -4 -23z"/>
<path d="M5945 2898 l-40 -43 43 40 c39 36 47 45 39 45 -2 0 -21 -19 -42 -42z"/>
<path d="M5672 2890 c0 -14 2 -19 5 -12 2 6 2 18 0 25 -3 6 -5 1 -5 -13z"/>
<path d="M6570 2896 c0 -2 7 -7 16 -10 8 -3 12 -2 9 4 -6 10 -25 14 -25 6z"/>
<path d="M5690 2845 c0 -8 2 -15 4 -15 2 0 6 7 10 15 3 8 1 15 -4 15 -6 0 -10
-7 -10 -15z"/>
<path d="M5170 2785 c0 -14 4 -25 9 -25 4 0 6 11 3 25 -2 14 -6 25 -8 25 -2 0
-4 -11 -4 -25z"/>
<path d="M5822 2752 c-54 -74 -78 -90 -98 -65 -10 12 -10 7 2 -17 16 -33 16
-34 0 -21 -15 13 -18 12 -23 -7 -3 -12 -10 -22 -15 -22 -5 0 -6 -4 -3 -10 3
-5 1 -10 -5 -10 -6 0 -9 -4 -5 -9 7 -13 -16 -62 -26 -55 -5 3 -8 -5 -7 -18 0
-13 -18 -54 -41 -93 -64 -108 -48 -100 24 13 36 55 65 103 65 106 0 7 67 109
83 126 31 33 99 131 95 135 -2 3 -23 -21 -46 -53z"/>
<path d="M5259 2788 c-4 -9 -6 -148 -2 -144 6 6 13 146 7 146 -2 0 -5 -1 -5
-2z"/>
<path d="M5636 2715 c-4 -22 -20 -73 -36 -112 -15 -40 -26 -73 -24 -73 17 0
80 188 71 213 -2 7 -7 -6 -11 -28z"/>
<path d="M5252 2590 c0 -14 2 -19 5 -12 2 6 2 18 0 25 -3 6 -5 1 -5 -13z"/>
<path d="M5653 2569 c-2 -23 3 -25 10 -4 4 8 3 16 -1 19 -4 3 -9 -4 -9 -15z"/>
<path d="M5254 2470 c0 -52 1 -74 3 -47 2 26 2 68 0 95 -2 26 -3 4 -3 -48z"/>
<path d="M5163 2400 c0 -30 2 -43 4 -27 2 15 2 39 0 55 -2 15 -4 2 -4 -28z"/>
<path d="M5242 2315 c0 -16 2 -22 5 -12 2 9 2 23 0 30 -3 6 -5 -1 -5 -18z"/>
<path d="M5153 2235 c0 -38 2 -53 4 -32 2 20 2 52 0 70 -2 17 -4 1 -4 -38z"/>
<path d="M5239 2278 c-7 -15 -6 -65 1 -77 7 -11 9 -2 10 32 0 38 -5 58 -11 45z"/>
<path d="M5517 2273 c-4 -3 -7 -11 -7 -17 0 -6 5 -5 12 2 6 6 9 14 7 17 -3 3
-9 2 -12 -2z"/>
<path d="M5373 2179 c-26 -39 -55 -82 -63 -95 -8 -13 -21 -26 -28 -29 -16 -6
-32 35 -32 86 0 22 -4 38 -9 34 -5 -3 -7 -21 -4 -40 4 -26 2 -36 -11 -41 -17
-7 -22 -33 -6 -35 6 -1 15 -3 20 -4 6 -1 13 -3 17 -4 4 0 -2 -7 -13 -15 -10
-8 -16 -18 -11 -22 4 -4 7 -2 7 4 0 7 5 12 11 12 6 0 8 -11 4 -29 -5 -22 -2
-30 12 -35 14 -6 15 -4 6 5 -13 13 -6 42 8 33 5 -3 9 2 9 11 0 11 5 15 15 11
11 -4 20 6 32 35 11 28 18 37 24 28 11 -18 24 14 15 37 -4 10 -2 13 6 8 7 -5
9 -2 5 9 -3 9 5 36 18 61 14 26 23 46 21 46 -2 0 -26 -32 -53 -71z m-133 -99
c0 -5 -5 -10 -11 -10 -5 0 -7 5 -4 10 3 6 8 10 11 10 2 0 4 -4 4 -10z"/>
<path d="M5448 2154 c-33 -75 -88 -133 -88 -92 0 6 -2 9 -5 6 -9 -8 6 -38 16
-32 5 3 9 -2 9 -10 0 -19 -11 -20 -29 -3 -7 6 -11 8 -10 2 4 -12 -20 -57 -34
-67 -6 -3 -12 -17 -14 -30 -2 -13 -9 -27 -17 -33 -20 -15 -38 -55 -32 -70 7
-19 -13 -75 -26 -75 -6 0 -7 8 -3 18 4 13 3 14 -5 6 -9 -9 -7 -22 8 -53 19
-39 19 -40 1 -30 -11 5 -19 6 -19 0 0 -5 8 -12 17 -15 13 -5 14 -9 5 -15 -7
-4 -15 -30 -17 -57 -3 -27 -7 -59 -10 -71 -3 -15 -1 -23 7 -23 8 0 9 -3 3 -8
-6 -4 -10 -14 -10 -22 0 -8 -4 -18 -10 -22 -6 -5 -6 -8 2 -8 12 0 11 -102 -3
-335 -3 -49 -5 -107 -5 -127 0 -20 -3 -39 -8 -42 -4 -3 -7 -22 -5 -43 1 -21
-2 -43 -7 -49 -5 -7 -9 -27 -8 -45 1 -19 -2 -42 -6 -51 -5 -13 -3 -18 8 -18
14 0 18 29 32 226 1 17 5 36 9 42 4 6 9 102 12 214 5 218 16 326 44 453 21 93
77 245 112 301 50 80 110 195 104 201 -3 3 -11 -7 -18 -23z m-181 -326 c-3 -8
-6 -5 -6 6 -1 11 2 17 5 13 3 -3 4 -12 1 -19z"/>
<path d="M5141 2129 c-1 -32 -7 -70 -26 -179 -4 -19 -10 -112 -13 -206 -6
-143 -10 -175 -24 -191 -16 -18 -17 -30 -8 -127 7 -70 16 -113 25 -123 8 -8
15 -10 15 -4 0 5 -4 13 -10 16 -15 9 -8 111 8 107 6 -1 12 2 12 7 0 5 -6 12
-12 14 -9 4 -10 8 -2 14 14 10 14 12 14 228 0 106 7 230 16 301 9 67 14 134
11 150 -4 26 -4 26 -6 -7z"/>
<path d="M5211 2034 c0 -11 3 -14 6 -6 3 7 2 16 -1 19 -3 4 -6 -2 -5 -13z"/>
<path d="M5227 1813 c-4 -3 -7 -11 -7 -17 0 -6 5 -5 12 2 6 6 9 14 7 17 -3 3
-9 2 -12 -2z"/>
<path d="M5080 1268 c0 -7 5 -20 10 -28 8 -12 10 -11 10 7 0 12 -4 25 -10 28
-5 3 -10 0 -10 -7z"/>
<path d="M5093 1105 c0 -44 2 -61 4 -37 2 23 2 59 0 80 -2 20 -4 1 -4 -43z"/>
<path d="M5160 1140 c0 -5 5 -10 11 -10 5 0 7 5 4 10 -3 6 -8 10 -11 10 -2 0
-4 -4 -4 -10z"/>
<path d="M5091 1004 c0 -11 3 -14 6 -6 3 7 2 16 -1 19 -3 4 -6 -2 -5 -13z"/>
<path d="M5071 744 c0 -11 3 -14 6 -6 3 7 2 16 -1 19 -3 4 -6 -2 -5 -13z"/>
<path d="M5071 704 c0 -11 3 -14 6 -6 3 7 2 16 -1 19 -3 4 -6 -2 -5 -13z"/>
<path d="M5139 711 c11 -7 10 -18 -3 -64 -9 -30 -13 -63 -9 -73 5 -13 3 -15
-7 -9 -10 6 -11 2 -6 -20 6 -22 4 -26 -8 -22 -19 7 -20 3 -6 -24 8 -14 7 -19
-2 -19 -7 -1 -22 -15 -33 -33 -11 -18 -27 -32 -34 -32 -13 0 -29 -26 -30 -49
-1 -13 42 29 92 88 33 39 42 59 48 105 4 31 10 80 14 109 7 47 6 52 -11 52
-15 0 -16 -2 -5 -9z"/>
<path d="M5060 649 c0 -13 -7 -56 -15 -94 -17 -79 -20 -145 -5 -109 12 30 34
214 26 221 -3 4 -6 -5 -6 -18z"/>
</g>
</svg>
